<svg id="svg" version="1.1" xmlns="http://www.w3.org/2000/svg" xmlns:xlink="http://www.w3.org/1999/xlink" width="400" height="469.1983122362869" viewBox="0, 0, 400,469.1983122362869"><g id="svgg"><path id="path0" d="M37.600 153.200 L 37.600 299.200 200.600 299.200 L 363.600 299.200 363.600 153.200 L 363.600 7.200 200.600 7.200 L 37.600 7.200 37.600 153.200 M247.395 251.016 C 249.467 252.035,250.681 253.911,251.019 256.614 C 251.414 259.774,251.210 260.065,248.704 259.921 L 246.600 259.800 246.376 257.850 C 245.764 252.523,239.600 253.719,239.600 259.164 C 239.600 262.486,240.045 262.984,245.276 265.519 C 250.355 267.980,251.610 269.966,251.587 275.508 C 251.556 282.896,245.848 286.920,239.287 284.179 C 235.096 282.428,232.822 275.208,236.355 274.871 C 238.983 274.619,239.600 275.014,239.600 276.946 C 239.600 279.220,240.633 280.200,243.031 280.200 C 245.838 280.200,246.600 279.139,246.600 275.231 C 246.600 271.368,246.329 271.008,241.802 268.846 C 235.543 265.858,233.449 261.480,235.223 255.092 C 236.427 250.756,242.637 248.676,247.395 251.016 M82.705 265.300 L 82.810 280.000 87.605 280.000 L 92.400 280.000 92.400 282.200 L 92.400 284.400 85.400 284.400 L 78.400 284.400 78.400 267.379 L 78.400 250.358 80.500 250.479 L 82.600 250.600 82.705 265.300 M218.800 264.751 C 218.800 280.067,218.763 279.780,220.800 280.062 C 221.703 280.187,221.812 280.403,221.921 282.300 L 222.042 284.400 219.815 284.400 C 214.469 284.400,214.041 282.937,214.017 264.567 C 213.998 249.308,213.794 250.400,216.667 250.400 L 218.800 250.400 218.800 264.751 M100.800 253.000 L 100.800 255.200 98.400 255.200 L 96.000 255.200 96.000 253.000 L 96.000 250.800 98.400 250.800 L 100.800 250.800 100.800 253.000 M261.116 256.900 L 261.231 260.400 262.816 260.400 L 264.400 260.400 264.400 262.600 L 264.400 264.800 262.800 264.800 L 261.200 264.800 261.200 272.186 C 261.200 280.201,261.258 280.400,263.574 280.400 C 264.311 280.400,264.400 280.643,264.400 282.656 L 264.400 284.912 262.245 284.690 C 256.986 284.147,256.400 282.915,256.400 272.392 L 256.400 264.800 255.480 264.800 C 254.126 264.800,253.600 264.051,253.600 262.120 C 253.600 260.421,253.617 260.400,255.000 260.400 L 256.400 260.400 256.400 257.067 C 256.400 253.128,256.398 253.131,258.985 253.282 L 261.000 253.400 261.116 256.900 M326.400 256.800 L 326.400 260.400 328.000 260.400 L 329.600 260.400 329.600 262.600 L 329.600 264.800 328.000 264.800 L 326.400 264.800 326.400 272.186 C 326.400 280.201,326.458 280.400,328.774 280.400 C 329.511 280.400,329.600 280.643,329.600 282.656 L 329.600 284.912 327.413 284.686 C 322.361 284.165,322.000 283.386,322.000 273.007 L 322.000 264.851 320.700 264.725 C 319.435 264.603,319.397 264.545,319.280 262.527 L 319.160 260.454 320.480 260.327 L 321.800 260.200 321.916 256.700 L 322.031 253.200 324.216 253.200 L 326.400 253.200 326.400 256.800 M134.231 260.359 C 137.515 261.850,138.509 264.239,138.324 270.200 L 138.200 274.200 133.300 274.312 L 128.400 274.425 128.400 276.612 C 128.400 278.267,128.595 278.995,129.200 279.600 C 130.716 281.116,134.000 280.252,134.000 278.338 C 134.000 277.710,134.328 277.600,136.200 277.600 C 138.335 277.600,138.400 277.632,138.391 278.700 C 138.329 286.471,125.765 287.054,123.983 279.369 C 123.468 277.149,123.513 268.044,124.052 265.534 C 125.105 260.621,129.684 258.293,134.231 260.359 M154.000 261.948 L 154.000 264.297 152.054 264.555 C 148.039 265.088,147.600 266.285,147.600 276.697 L 147.600 284.400 145.200 284.400 L 142.800 284.400 142.800 272.400 L 142.800 260.400 145.200 260.400 C 147.493 260.400,147.600 260.444,147.600 261.400 C 147.600 262.610,147.756 262.628,149.211 261.592 C 150.494 260.679,152.750 259.639,153.500 259.616 C 153.845 259.605,154.000 260.328,154.000 261.948 M169.394 260.278 C 173.939 262.445,174.420 280.910,170.009 283.900 C 168.151 285.160,165.639 285.118,164.073 283.800 C 163.419 283.250,162.775 282.800,162.642 282.800 C 162.509 282.800,162.400 285.410,162.400 288.600 L 162.400 294.400 160.200 294.400 L 158.000 294.400 158.000 277.400 L 158.000 260.400 160.153 260.400 C 162.039 260.400,162.335 260.510,162.538 261.284 L 162.769 262.168 163.685 261.339 C 165.770 259.449,167.127 259.197,169.394 260.278 M187.313 260.363 C 190.785 261.851,191.000 262.544,191.000 272.231 L 191.000 280.661 189.847 282.173 C 186.893 286.048,180.245 285.708,177.800 281.558 C 177.072 280.322,177.000 279.481,177.000 272.170 L 177.000 264.141 178.079 262.511 C 179.866 259.811,183.859 258.882,187.313 260.363 M205.990 260.516 C 209.173 262.087,209.400 262.882,209.400 272.471 C 209.400 280.201,209.346 280.814,208.575 281.846 C 205.442 286.042,198.349 285.735,196.149 281.308 C 194.820 278.634,194.825 266.290,196.157 263.383 C 197.789 259.817,202.054 258.574,205.990 260.516 M279.924 261.761 C 280.065 263.970,279.857 264.206,277.434 264.584 C 273.636 265.176,273.200 266.396,273.200 276.426 L 273.200 284.400 270.800 284.400 L 268.400 284.400 268.400 272.400 L 268.400 260.400 270.800 260.400 C 273.093 260.400,273.200 260.444,273.200 261.400 C 273.200 262.574,273.468 262.643,274.480 261.728 C 277.346 259.134,279.759 259.149,279.924 261.761 M293.713 260.363 C 296.802 261.687,297.992 264.549,297.998 270.667 C 298.001 274.563,298.242 274.400,292.508 274.400 L 287.501 274.400 287.683 276.594 C 288.015 280.595,292.642 282.257,293.270 278.600 C 293.421 277.720,296.941 277.181,297.685 277.925 C 298.226 278.466,297.301 281.610,296.264 282.752 C 293.369 285.939,286.583 285.326,284.318 281.672 C 283.325 280.071,282.779 271.034,283.382 266.203 C 284.033 260.994,288.842 258.275,293.713 260.363 M312.160 260.209 C 315.329 261.533,316.430 263.733,316.710 269.295 C 316.973 274.510,317.093 274.400,311.151 274.400 L 306.400 274.400 306.400 276.226 C 306.400 280.658,310.943 282.359,312.201 278.398 C 312.408 277.745,312.807 277.600,314.403 277.600 C 316.824 277.600,317.025 277.916,316.195 280.415 C 314.358 285.947,305.481 286.456,302.791 281.182 C 301.627 278.901,301.602 265.948,302.757 263.684 C 304.552 260.168,308.537 258.695,312.160 260.209 M100.800 272.400 L 100.800 284.400 98.400 284.400 L 96.000 284.400 96.000 272.400 L 96.000 260.400 98.400 260.400 L 100.800 260.400 100.800 272.400 M108.590 261.100 C 108.742 261.485,109.108 262.970,109.404 264.400 C 109.927 266.925,111.278 273.163,111.918 276.000 C 112.219 277.338,112.264 277.258,112.932 274.200 C 113.316 272.440,113.789 270.460,113.982 269.800 C 114.176 269.140,114.447 267.970,114.585 267.200 C 114.723 266.430,115.117 264.585,115.461 263.100 L 116.086 260.400 118.288 260.400 C 120.987 260.400,121.063 259.111,117.635 271.600 C 117.243 273.030,116.355 276.331,115.663 278.935 C 114.127 284.713,114.324 284.400,112.225 284.400 C 110.268 284.400,110.100 284.157,109.045 279.800 C 108.725 278.480,108.190 276.410,107.856 275.200 C 107.521 273.990,106.866 271.560,106.400 269.800 C 105.934 268.040,105.279 265.610,104.945 264.400 C 103.736 260.021,103.625 260.400,106.111 260.400 C 107.838 260.400,108.374 260.551,108.590 261.100 M129.023 264.889 C 128.634 265.445,128.400 266.645,128.400 268.089 L 128.400 270.400 131.200 270.400 L 134.000 270.400 133.999 268.500 C 133.995 264.670,130.800 262.351,129.023 264.889 M164.092 264.268 C 161.908 265.146,161.593 278.730,163.725 280.086 C 164.573 280.625,166.688 280.417,167.251 279.739 C 168.207 278.588,168.026 265.935,167.038 264.843 C 166.312 264.040,165.198 263.823,164.092 264.268 M182.654 264.829 L 181.600 265.658 181.600 272.229 C 181.600 279.249,181.926 280.400,183.911 280.400 C 186.170 280.400,186.400 279.664,186.394 272.477 C 186.387 265.485,186.336 265.202,184.926 264.460 C 183.807 263.871,183.889 263.857,182.654 264.829 M201.289 264.623 C 200.426 265.227,200.400 265.459,200.400 272.431 L 200.400 279.617 201.437 280.090 C 202.271 280.470,202.683 280.446,203.537 279.966 L 204.600 279.370 204.709 272.300 L 204.818 265.230 203.629 264.615 C 202.185 263.868,202.367 263.868,201.289 264.623 M288.627 264.770 C 288.199 265.243,287.844 266.481,287.709 267.970 L 287.489 270.400 290.344 270.400 L 293.200 270.400 293.200 268.000 C 293.200 264.432,290.597 262.594,288.627 264.770 M307.386 264.815 C 306.902 265.350,306.590 266.450,306.476 268.015 L 306.304 270.400 309.152 270.400 L 312.000 270.400 312.000 268.626 C 312.000 264.562,309.491 262.490,307.386 264.815 M22.697 407.036 C 21.457 408.277,22.698 414.400,24.190 414.400 C 24.746 414.400,25.200 414.580,25.200 414.800 C 25.200 415.031,26.467 415.200,28.200 415.200 C 29.933 415.200,31.200 415.031,31.200 414.800 C 31.200 414.580,31.470 414.400,31.800 414.400 C 32.658 414.400,32.555 414.675,31.200 416.000 C 30.540 416.645,29.997 417.314,29.993 417.487 C 29.989 417.659,29.539 418.224,28.993 418.742 C 28.447 419.260,27.992 419.890,27.983 420.142 C 27.974 420.394,27.434 421.042,26.783 421.581 C 26.132 422.121,25.600 422.756,25.600 422.992 C 25.600 423.229,25.240 423.730,24.800 424.107 C 24.360 424.484,24.000 425.045,24.000 425.353 C 24.000 425.662,23.730 426.018,23.400 426.145 C 23.070 426.271,22.800 426.611,22.800 426.899 C 22.800 427.187,22.485 427.720,22.100 428.083 C 20.957 429.162,20.411 429.919,20.004 430.989 C 19.793 431.545,19.450 432.000,19.242 432.000 C 19.034 432.000,18.745 432.540,18.600 433.200 C 18.455 433.860,18.190 434.400,18.010 434.400 C 17.831 434.400,17.192 435.345,16.590 436.500 C 15.989 437.655,15.383 438.690,15.244 438.800 C 14.750 439.192,12.800 443.424,12.800 444.106 C 12.800 444.488,12.643 444.800,12.451 444.800 C 12.259 444.800,11.981 445.560,11.832 446.488 C 11.684 447.416,11.346 448.310,11.081 448.473 C 9.660 449.351,10.959 459.600,12.491 459.600 C 12.661 459.600,12.800 459.848,12.800 460.151 C 12.800 460.455,13.385 460.940,14.100 461.229 C 14.815 461.518,15.529 461.945,15.686 462.177 C 16.079 462.759,24.738 462.741,25.115 462.157 C 25.272 461.915,26.345 461.492,27.500 461.218 C 28.655 460.944,29.600 460.558,29.600 460.360 C 29.600 460.162,29.842 460.000,30.139 460.000 C 30.435 460.000,31.093 459.640,31.600 459.200 C 32.107 458.760,32.771 458.400,33.074 458.400 C 33.377 458.400,33.729 458.130,33.855 457.800 C 33.982 457.470,34.296 457.200,34.554 457.200 C 34.811 457.200,35.330 456.840,35.707 456.400 C 36.084 455.960,36.621 455.600,36.900 455.600 C 37.180 455.600,37.855 455.060,38.400 454.400 C 38.945 453.740,39.558 453.200,39.762 453.200 C 39.965 453.200,41.196 452.120,42.495 450.800 C 43.795 449.480,44.930 448.400,45.017 448.400 C 45.275 448.400,44.687 449.780,44.325 450.026 C 44.141 450.151,43.777 451.726,43.514 453.526 C 43.252 455.327,42.894 456.800,42.719 456.800 C 42.543 456.800,42.400 457.430,42.400 458.200 C 42.400 458.970,42.580 459.600,42.800 459.600 C 43.020 459.600,43.200 460.039,43.200 460.575 C 43.200 462.672,45.223 464.096,48.502 464.306 C 51.298 464.486,55.516 463.911,55.985 463.286 C 56.103 463.129,56.920 462.640,57.799 462.200 C 59.223 461.488,60.810 460.096,62.300 458.252 C 63.394 456.898,62.937 455.473,61.500 455.759 C 60.785 455.902,60.142 456.188,60.071 456.396 C 60.000 456.604,59.325 456.890,58.571 457.032 C 57.817 457.173,57.200 457.449,57.200 457.645 C 57.200 457.840,56.308 458.000,55.218 458.000 C 53.252 458.000,53.234 457.988,52.961 456.530 C 52.655 454.903,53.353 450.400,53.970 450.019 C 54.186 449.885,54.484 449.016,54.632 448.088 C 54.781 447.160,55.052 446.400,55.235 446.400 C 55.418 446.400,55.784 445.680,56.047 444.800 C 56.311 443.920,56.658 443.200,56.819 443.200 C 56.979 443.200,57.229 442.570,57.374 441.800 C 57.518 441.030,57.780 440.400,57.955 440.400 C 58.130 440.400,58.489 439.680,58.753 438.800 C 59.016 437.920,59.405 437.200,59.616 437.200 C 59.827 437.200,60.000 436.958,60.000 436.661 C 60.000 436.365,60.349 435.720,60.775 435.228 C 61.202 434.737,61.666 433.809,61.807 433.167 C 61.948 432.525,62.229 432.000,62.432 432.000 C 62.634 432.000,62.800 431.724,62.800 431.387 C 62.800 431.051,63.050 430.679,63.355 430.562 C 63.661 430.445,64.131 429.562,64.400 428.600 C 64.669 427.638,65.139 426.755,65.445 426.638 C 65.750 426.521,66.000 426.149,66.000 425.813 C 66.000 425.476,66.146 425.200,66.325 425.200 C 66.504 425.200,66.895 424.577,67.193 423.817 C 67.492 423.056,67.976 422.341,68.268 422.229 C 68.561 422.117,68.800 421.764,68.800 421.446 C 68.800 421.127,68.935 420.807,69.100 420.733 C 69.562 420.528,71.200 418.087,71.200 417.604 C 71.200 417.368,71.470 417.071,71.800 416.945 C 72.130 416.818,72.400 416.535,72.400 416.315 C 72.400 415.895,73.722 414.140,75.404 412.326 C 76.874 410.740,76.728 410.660,72.827 410.913 C 67.883 411.233,62.211 414.828,61.371 418.173 C 61.237 418.706,60.874 419.239,60.564 419.359 C 60.254 419.478,60.000 419.831,60.000 420.145 C 60.000 420.458,59.747 420.812,59.438 420.930 C 59.128 421.049,58.757 421.683,58.613 422.340 C 58.469 422.996,58.092 423.633,57.776 423.754 C 57.459 423.876,57.200 424.251,57.200 424.587 C 57.200 424.924,57.034 425.200,56.832 425.200 C 56.629 425.200,56.342 425.752,56.194 426.427 C 56.046 427.102,55.683 427.747,55.387 427.860 C 55.091 427.974,54.734 428.592,54.593 429.233 C 54.452 429.875,54.200 430.400,54.032 430.400 C 53.865 430.400,53.490 431.120,53.200 432.000 C 52.910 432.880,52.540 433.600,52.379 433.600 C 52.218 433.600,51.975 434.045,51.839 434.589 C 51.591 435.574,50.918 436.426,47.700 439.825 C 46.765 440.813,46.000 441.776,46.000 441.965 C 46.000 442.432,40.779 447.600,40.307 447.600 C 40.101 447.600,39.374 448.230,38.692 449.000 C 38.011 449.770,37.293 450.400,37.098 450.400 C 36.903 450.400,36.508 450.625,36.220 450.900 C 34.906 452.158,30.673 454.400,29.612 454.400 C 29.202 454.400,28.796 454.611,28.710 454.870 C 28.006 456.982,21.841 454.907,21.338 452.388 C 21.207 451.734,20.943 451.200,20.750 451.200 C 20.558 451.200,20.400 450.570,20.400 449.800 C 20.400 449.030,20.556 448.400,20.747 448.400 C 20.938 448.400,21.195 447.654,21.317 446.742 C 21.439 445.831,21.701 444.976,21.899 444.842 C 22.097 444.709,22.494 443.745,22.782 442.700 C 23.069 441.655,23.457 440.800,23.644 440.800 C 23.832 440.800,24.098 440.350,24.236 439.800 C 24.374 439.250,24.624 438.800,24.791 438.800 C 24.959 438.800,25.320 438.002,25.593 437.026 C 25.866 436.050,26.339 435.155,26.645 435.038 C 26.950 434.921,27.200 434.569,27.200 434.255 C 27.200 433.942,27.453 433.588,27.762 433.470 C 28.072 433.351,28.443 432.717,28.587 432.060 C 28.731 431.404,29.108 430.767,29.424 430.646 C 29.741 430.524,30.000 430.149,30.000 429.813 C 30.000 429.476,30.189 429.200,30.421 429.200 C 30.652 429.200,31.025 428.674,31.249 428.032 C 31.473 427.390,31.913 426.765,32.228 426.645 C 32.543 426.524,32.800 426.149,32.800 425.813 C 32.800 425.476,32.989 425.200,33.221 425.200 C 33.452 425.200,33.825 424.674,34.049 424.032 C 34.273 423.390,34.713 422.765,35.028 422.645 C 35.343 422.524,35.600 422.246,35.600 422.026 C 35.600 421.807,36.137 421.036,36.793 420.314 C 38.863 418.034,39.200 417.609,39.200 417.270 C 39.200 417.088,39.650 416.517,40.200 416.000 C 40.750 415.483,41.208 414.867,41.217 414.630 C 41.226 414.394,41.766 413.758,42.417 413.219 C 43.068 412.679,43.600 412.033,43.600 411.783 C 43.600 411.533,44.230 410.755,45.000 410.055 C 47.357 407.910,46.967 407.200,43.433 407.200 C 41.802 407.200,40.407 407.378,40.333 407.596 C 40.124 408.219,26.050 408.324,25.667 407.706 C 25.297 407.111,23.115 406.618,22.697 407.036 M112.900 422.505 C 111.965 422.730,111.200 423.068,111.200 423.257 C 111.200 423.446,110.924 423.600,110.587 423.600 C 110.251 423.600,109.871 423.870,109.745 424.200 C 109.618 424.530,109.300 424.800,109.039 424.800 C 108.550 424.800,107.283 425.662,105.953 426.900 C 105.539 427.285,105.094 427.600,104.964 427.600 C 104.467 427.600,93.600 438.298,93.600 438.788 C 93.600 438.970,92.970 439.750,92.200 440.520 C 91.430 441.290,90.800 442.052,90.800 442.213 C 90.800 442.374,90.193 443.078,89.451 443.778 C 88.708 444.478,87.976 445.444,87.824 445.925 C 87.509 446.918,86.800 447.108,86.800 446.200 C 86.800 445.870,86.966 445.600,87.168 445.600 C 87.371 445.600,87.655 445.060,87.800 444.400 C 87.945 443.740,88.211 443.200,88.392 443.200 C 88.572 443.200,88.936 442.300,89.200 441.200 C 89.464 440.100,89.834 439.200,90.022 439.200 C 90.210 439.200,90.482 438.570,90.626 437.800 C 90.771 437.030,91.013 436.400,91.164 436.400 C 91.470 436.400,92.400 434.025,92.400 433.243 C 92.400 432.968,92.670 432.473,93.000 432.143 C 93.330 431.813,93.600 431.106,93.600 430.571 C 93.600 430.037,93.780 429.600,94.000 429.600 C 94.616 429.600,94.474 426.416,93.829 425.771 C 93.175 425.117,89.200 424.970,89.200 425.600 C 89.200 425.820,88.830 426.000,88.377 426.000 C 86.726 426.000,84.000 426.901,84.000 427.447 C 84.000 427.751,84.180 428.000,84.400 428.000 C 84.620 428.000,84.800 428.810,84.800 429.800 C 84.800 430.790,84.643 431.600,84.451 431.600 C 84.259 431.600,83.987 432.320,83.846 433.200 C 83.706 434.080,83.441 434.800,83.259 434.800 C 83.077 434.800,82.690 435.790,82.400 437.000 C 82.110 438.210,81.735 439.200,81.568 439.200 C 81.401 439.200,81.145 439.740,81.000 440.400 C 80.855 441.060,80.592 441.600,80.416 441.600 C 80.239 441.600,79.880 442.453,79.618 443.495 C 79.355 444.537,79.019 445.482,78.870 445.595 C 78.499 445.877,77.364 448.286,76.748 450.100 C 76.468 450.925,76.115 451.600,75.964 451.600 C 75.813 451.600,75.571 452.230,75.426 453.000 C 75.282 453.770,75.015 454.400,74.834 454.400 C 74.652 454.400,74.269 455.255,73.982 456.300 C 73.694 457.345,73.302 458.306,73.109 458.436 C 72.463 458.872,72.539 463.188,73.200 463.607 C 74.811 464.629,79.514 463.880,79.849 462.549 C 79.980 462.027,80.247 461.600,80.443 461.600 C 80.640 461.600,80.800 461.234,80.800 460.787 C 80.800 460.341,81.070 459.871,81.400 459.745 C 81.730 459.618,82.000 459.298,82.000 459.033 C 82.000 458.768,82.360 458.164,82.800 457.692 C 83.240 457.220,83.600 456.718,83.600 456.577 C 83.600 456.436,84.500 455.439,85.600 454.362 C 86.700 453.285,87.600 452.286,87.600 452.141 C 87.600 451.997,88.545 450.946,89.700 449.806 C 90.855 448.666,92.160 447.232,92.600 446.618 C 93.781 444.972,105.143 433.600,105.607 433.600 C 105.826 433.600,106.397 433.150,106.875 432.600 C 107.353 432.050,107.982 431.600,108.272 431.600 C 108.562 431.600,108.800 431.434,108.800 431.232 C 108.800 431.029,109.340 430.745,110.000 430.600 C 110.660 430.455,111.200 430.171,111.200 429.968 C 111.200 429.125,112.405 429.682,112.645 430.636 C 112.979 431.969,112.562 436.053,112.059 436.363 C 111.847 436.495,111.541 437.321,111.379 438.201 C 111.217 439.080,110.939 439.895,110.761 440.012 C 110.583 440.129,110.208 441.434,109.927 442.912 C 109.647 444.390,109.290 445.600,109.133 445.600 C 108.977 445.600,108.723 446.455,108.569 447.500 C 108.415 448.545,108.135 449.500,107.946 449.622 C 107.424 449.961,106.686 456.219,106.885 458.619 C 107.093 461.133,108.363 462.782,110.100 462.793 C 110.705 462.797,111.200 462.980,111.200 463.200 C 111.200 463.420,111.650 463.600,112.200 463.600 C 112.750 463.600,113.200 463.443,113.200 463.252 C 113.200 463.060,114.100 462.784,115.200 462.638 C 116.300 462.492,117.200 462.213,117.200 462.018 C 117.200 461.823,117.752 461.542,118.427 461.394 C 119.102 461.246,119.745 460.888,119.856 460.598 C 119.967 460.309,120.499 459.961,121.039 459.826 C 122.061 459.569,122.381 459.340,124.961 457.010 C 125.820 456.234,126.670 455.600,126.850 455.600 C 127.403 455.600,143.122 439.676,143.384 438.850 C 143.520 438.423,143.894 437.973,144.215 437.850 C 144.546 437.722,144.800 437.111,144.800 436.439 C 144.800 435.009,145.392 433.351,146.185 432.558 C 146.504 432.239,146.664 431.712,146.540 431.388 C 146.289 430.733,144.400 430.569,144.400 431.202 C 144.400 431.735,125.139 450.985,124.273 451.317 C 123.903 451.459,123.600 451.748,123.600 451.960 C 123.600 452.173,123.241 452.460,122.802 452.599 C 122.364 452.738,121.770 453.066,121.484 453.326 C 119.696 454.953,117.483 455.540,116.571 454.629 C 115.945 454.002,115.767 450.400,116.362 450.400 C 116.562 450.400,116.849 449.500,117.000 448.400 C 117.151 447.300,117.414 446.400,117.583 446.400 C 117.752 446.400,118.120 445.320,118.400 444.000 C 118.680 442.680,119.054 441.600,119.230 441.600 C 119.407 441.600,119.672 440.790,119.821 439.800 C 119.969 438.810,120.234 438.000,120.408 438.000 C 120.582 438.000,120.854 437.055,121.011 435.900 C 121.168 434.745,121.458 433.698,121.654 433.573 C 121.851 433.448,122.122 431.648,122.256 429.573 C 122.706 422.625,120.218 420.745,112.900 422.505 " stroke="none" fill="#046364" fill-rule="evenodd"></path><path id="path1" d="M239.638 250.496 C 236.471 251.555,234.804 254.488,234.804 259.000 C 234.804 264.033,236.388 266.262,241.802 268.846 C 246.329 271.008,246.600 271.368,246.600 275.231 C 246.600 279.139,245.838 280.200,243.031 280.200 C 240.633 280.200,239.600 279.220,239.600 276.946 C 239.600 275.014,238.983 274.619,236.355 274.871 C 232.822 275.208,235.096 282.428,239.287 284.179 C 245.848 286.920,251.556 282.896,251.587 275.508 C 251.610 269.966,250.355 267.980,245.276 265.519 C 240.045 262.984,239.600 262.486,239.600 259.164 C 239.600 253.719,245.764 252.523,246.376 257.850 L 246.600 259.800 248.704 259.921 C 251.210 260.065,251.414 259.774,251.019 256.614 C 250.386 251.551,245.053 248.684,239.638 250.496 M78.400 267.379 L 78.400 284.400 85.400 284.400 L 92.400 284.400 92.400 282.200 L 92.400 280.000 87.605 280.000 L 82.810 280.000 82.705 265.300 L 82.600 250.600 80.500 250.479 L 78.400 250.358 78.400 267.379 M214.267 250.667 C 213.873 251.060,213.976 277.898,214.380 279.988 C 214.917 282.773,216.921 284.400,219.815 284.400 L 222.042 284.400 221.921 282.300 C 221.812 280.403,221.703 280.187,220.800 280.062 C 218.763 279.780,218.800 280.067,218.800 264.751 L 218.800 250.400 216.667 250.400 C 215.493 250.400,214.413 250.520,214.267 250.667 M96.000 253.000 L 96.000 255.200 98.400 255.200 L 100.800 255.200 100.800 253.000 L 100.800 250.800 98.400 250.800 L 96.000 250.800 96.000 253.000 M256.685 253.449 C 256.528 253.605,256.400 255.233,256.400 257.067 L 256.400 260.400 255.000 260.400 C 253.617 260.400,253.600 260.421,253.600 262.120 C 253.600 264.051,254.126 264.800,255.480 264.800 L 256.400 264.800 256.400 272.392 C 256.400 282.915,256.986 284.147,262.245 284.690 L 264.400 284.912 264.400 282.656 C 264.400 280.643,264.311 280.400,263.574 280.400 C 261.258 280.400,261.200 280.201,261.200 272.186 L 261.200 264.800 262.800 264.800 L 264.400 264.800 264.400 262.600 L 264.400 260.400 262.816 260.400 L 261.231 260.400 261.116 256.900 L 261.000 253.400 258.985 253.282 C 257.876 253.217,256.841 253.292,256.685 253.449 M321.916 256.700 L 321.800 260.200 320.480 260.327 L 319.160 260.454 319.280 262.527 C 319.397 264.545,319.435 264.603,320.700 264.725 L 322.000 264.851 322.000 273.007 C 322.000 283.386,322.361 284.165,327.413 284.686 L 329.600 284.912 329.600 282.656 C 329.600 280.643,329.511 280.400,328.774 280.400 C 326.458 280.400,326.400 280.201,326.400 272.186 L 326.400 264.800 328.000 264.800 L 329.600 264.800 329.600 262.600 L 329.600 260.400 328.000 260.400 L 326.400 260.400 326.400 256.800 L 326.400 253.200 324.216 253.200 L 322.031 253.200 321.916 256.700 M127.800 260.377 C 124.144 262.023,122.202 271.688,123.983 279.369 C 125.765 287.054,138.329 286.471,138.391 278.700 C 138.400 277.632,138.335 277.600,136.200 277.600 C 134.328 277.600,134.000 277.710,134.000 278.338 C 134.000 280.252,130.716 281.116,129.200 279.600 C 128.595 278.995,128.400 278.267,128.400 276.612 L 128.400 274.425 133.300 274.312 L 138.200 274.200 138.324 270.200 C 138.589 261.663,134.149 257.519,127.800 260.377 M151.673 260.208 C 150.943 260.525,149.835 261.148,149.211 261.592 C 147.756 262.628,147.600 262.610,147.600 261.400 C 147.600 260.444,147.493 260.400,145.200 260.400 L 142.800 260.400 142.800 272.400 L 142.800 284.400 145.200 284.400 L 147.600 284.400 147.600 276.697 C 147.600 266.285,148.039 265.088,152.054 264.555 L 154.000 264.297 154.000 261.948 C 154.000 259.369,153.855 259.260,151.673 260.208 M165.400 260.067 C 164.960 260.310,164.188 260.883,163.685 261.339 L 162.769 262.168 162.538 261.284 C 162.335 260.510,162.039 260.400,160.153 260.400 L 158.000 260.400 158.000 277.400 L 158.000 294.400 160.200 294.400 L 162.400 294.400 162.400 288.600 C 162.400 285.410,162.509 282.800,162.642 282.800 C 162.775 282.800,163.419 283.250,164.073 283.800 C 166.742 286.046,170.765 284.632,172.037 281.000 C 173.257 277.518,173.108 265.801,171.808 263.053 C 170.433 260.146,167.623 258.837,165.400 260.067 M180.879 260.272 C 179.661 260.703,178.843 261.357,178.079 262.511 L 177.000 264.141 177.000 272.170 C 177.000 279.481,177.072 280.322,177.800 281.558 C 180.245 285.708,186.893 286.048,189.847 282.173 L 191.000 280.661 191.000 272.231 C 191.000 263.987,190.979 263.770,190.046 262.463 C 188.237 259.926,184.429 259.016,180.879 260.272 M198.882 260.420 C 193.997 262.589,193.438 280.348,198.149 283.708 C 201.031 285.763,206.361 284.811,208.575 281.846 C 209.825 280.172,209.837 264.956,208.590 262.800 C 206.942 259.950,202.431 258.844,198.882 260.420 M276.711 260.353 C 275.892 260.739,274.888 261.358,274.480 261.728 C 273.468 262.643,273.200 262.574,273.200 261.400 C 273.200 260.444,273.093 260.400,270.800 260.400 L 268.400 260.400 268.400 272.400 L 268.400 284.400 270.800 284.400 L 273.200 284.400 273.200 276.426 C 273.200 266.396,273.636 265.176,277.434 264.584 C 279.857 264.206,280.065 263.970,279.924 261.761 C 279.779 259.472,279.155 259.198,276.711 260.353 M287.188 260.500 C 283.647 262.289,283.016 264.500,283.259 274.283 C 283.483 283.363,287.513 287.064,294.113 284.252 C 296.459 283.252,298.824 279.064,297.685 277.925 C 296.941 277.181,293.421 277.720,293.270 278.600 C 292.642 282.257,288.015 280.595,287.683 276.594 L 287.501 274.400 292.508 274.400 C 298.242 274.400,298.001 274.563,297.998 270.667 C 297.989 261.610,293.447 257.338,287.188 260.500 M306.412 260.233 C 302.560 261.904,302.000 263.450,302.000 272.400 C 302.000 280.517,302.341 281.848,304.891 283.666 C 306.938 285.126,312.090 285.036,314.097 283.506 C 315.549 282.398,317.150 278.890,316.606 278.009 C 316.104 277.197,312.480 277.516,312.201 278.398 C 310.943 282.359,306.400 280.658,306.400 276.226 L 306.400 274.400 311.151 274.400 C 317.093 274.400,316.973 274.510,316.710 269.295 C 316.315 261.446,312.122 257.757,306.412 260.233 M96.000 272.400 L 96.000 284.400 98.400 284.400 L 100.800 284.400 100.800 272.400 L 100.800 260.400 98.400 260.400 L 96.000 260.400 96.000 272.400 M104.122 261.300 C 104.241 261.795,104.611 263.190,104.945 264.400 C 105.279 265.610,105.934 268.040,106.400 269.800 C 106.866 271.560,107.521 273.990,107.856 275.200 C 108.190 276.410,108.725 278.480,109.045 279.800 C 110.100 284.157,110.268 284.400,112.225 284.400 C 114.324 284.400,114.127 284.713,115.663 278.935 C 116.355 276.331,117.243 273.030,117.635 271.600 C 121.063 259.111,120.987 260.400,118.288 260.400 L 116.086 260.400 115.461 263.100 C 115.117 264.585,114.723 266.430,114.585 267.200 C 114.447 267.970,114.176 269.140,113.982 269.800 C 113.789 270.460,113.316 272.440,112.932 274.200 C 112.264 277.258,112.219 277.338,111.918 276.000 C 111.278 273.163,109.927 266.925,109.404 264.400 C 108.562 260.333,108.617 260.400,106.111 260.400 C 104.028 260.400,103.919 260.450,104.122 261.300 M133.204 265.300 C 133.700 266.113,133.998 267.312,133.999 268.500 L 134.000 270.400 131.200 270.400 L 128.400 270.400 128.400 268.089 C 128.400 263.992,131.360 262.274,133.204 265.300 M167.038 264.843 C 168.026 265.935,168.207 278.588,167.251 279.739 C 166.688 280.417,164.573 280.625,163.725 280.086 C 161.593 278.730,161.908 265.146,164.092 264.268 C 165.198 263.823,166.312 264.040,167.038 264.843 M184.926 264.460 C 186.336 265.202,186.387 265.485,186.394 272.477 C 186.400 279.664,186.170 280.400,183.911 280.400 C 181.926 280.400,181.600 279.249,181.600 272.229 L 181.600 265.658 182.654 264.829 C 183.889 263.857,183.807 263.871,184.926 264.460 M203.629 264.615 L 204.818 265.230 204.709 272.300 L 204.600 279.370 203.537 279.966 C 202.683 280.446,202.271 280.470,201.437 280.090 L 200.400 279.617 200.400 272.431 C 200.400 265.459,200.426 265.227,201.289 264.623 C 202.367 263.868,202.185 263.868,203.629 264.615 M292.400 264.800 C 293.022 265.422,293.200 266.133,293.200 268.000 L 293.200 270.400 290.344 270.400 L 287.489 270.400 287.709 267.970 C 288.044 264.274,290.329 262.729,292.400 264.800 M310.675 264.314 C 311.417 264.786,312.000 266.682,312.000 268.626 L 312.000 270.400 309.152 270.400 L 306.304 270.400 306.476 268.015 C 306.717 264.684,308.619 263.007,310.675 264.314 " stroke="none" fill="#f5f8f8" fill-rule="evenodd"></path><path id="path2" d="M82.100 307.473 C 81.385 307.571,80.800 307.819,80.800 308.025 C 80.800 308.231,80.570 308.400,80.289 308.400 C 80.008 308.400,79.486 308.741,79.129 309.158 C 78.772 309.574,78.147 310.102,77.740 310.329 C 76.714 310.904,76.582 337.798,77.600 338.914 C 80.263 341.834,80.180 341.800,84.591 341.800 L 88.600 341.800 90.101 340.285 C 91.693 338.679,92.373 336.724,92.390 333.700 L 92.400 332.000 90.245 332.000 L 88.091 332.000 87.808 333.886 C 87.291 337.335,83.517 339.069,82.336 336.400 C 82.044 335.740,81.669 335.200,81.502 335.200 C 81.336 335.200,81.200 330.521,81.200 324.803 C 81.200 313.768,81.451 312.400,83.472 312.400 C 83.762 312.400,84.000 312.220,84.000 312.000 C 84.000 311.780,84.270 311.600,84.600 311.600 C 84.930 311.600,85.200 311.759,85.200 311.953 C 85.200 312.148,85.560 312.401,86.000 312.516 C 86.440 312.631,86.800 313.012,86.800 313.363 C 86.800 313.713,86.974 314.000,87.186 314.000 C 87.399 314.000,87.692 314.900,87.838 316.000 L 88.103 318.000 90.252 318.000 L 92.400 318.000 92.400 316.220 C 92.400 314.045,91.654 310.400,91.209 310.400 C 91.030 310.400,90.460 309.953,89.942 309.407 C 89.424 308.861,88.790 308.411,88.533 308.407 C 88.277 308.403,88.007 308.237,87.933 308.037 C 87.772 307.600,83.910 307.226,82.100 307.473 M177.682 323.215 C 177.762 333.764,177.939 338.922,178.229 339.115 C 178.465 339.272,178.775 339.715,178.917 340.100 C 179.059 340.485,179.436 340.800,179.754 340.800 C 180.073 340.800,180.396 340.989,180.473 341.219 C 180.550 341.450,181.645 341.745,182.906 341.875 L 185.200 342.112 185.200 339.856 C 185.200 337.820,185.117 337.600,184.347 337.600 C 182.067 337.600,182.000 337.149,182.000 321.739 L 182.000 307.600 179.782 307.600 L 177.565 307.600 177.682 323.215 M204.257 308.482 C 204.122 308.987,204.008 309.805,204.005 310.300 C 204.002 310.795,203.855 311.200,203.678 311.200 C 203.500 311.200,203.115 312.820,202.822 314.800 C 202.529 316.780,202.155 318.400,201.991 318.400 C 201.827 318.400,201.568 319.570,201.415 321.000 C 201.262 322.430,200.986 323.600,200.803 323.600 C 200.620 323.600,200.249 325.220,199.978 327.200 C 199.708 329.180,199.346 330.800,199.175 330.800 C 199.004 330.800,198.738 331.970,198.585 333.400 C 198.432 334.830,198.171 336.000,198.005 336.000 C 197.838 336.000,197.584 336.765,197.440 337.700 C 197.296 338.635,197.073 339.985,196.945 340.700 L 196.711 342.000 199.155 342.000 C 201.333 342.000,201.600 341.913,201.600 341.200 C 201.600 340.760,201.754 340.400,201.942 340.400 C 202.130 340.400,202.390 339.273,202.518 337.895 C 202.891 333.906,202.791 334.000,206.643 334.000 C 209.360 334.000,210.000 334.114,210.000 334.600 C 210.000 334.930,210.165 335.200,210.366 335.200 C 210.567 335.200,210.861 336.595,211.018 338.300 C 211.347 341.855,211.463 341.986,214.300 341.994 L 216.400 342.000 216.400 340.600 C 216.400 339.830,216.254 339.200,216.077 339.200 C 215.899 339.200,215.524 337.580,215.243 335.600 C 214.963 333.620,214.590 332.000,214.414 332.000 C 214.237 332.000,213.968 330.830,213.815 329.400 C 213.662 327.970,213.386 326.800,213.203 326.800 C 213.020 326.800,212.649 325.180,212.378 323.200 C 212.108 321.220,211.750 319.600,211.582 319.600 C 211.415 319.600,211.149 318.475,210.991 317.100 C 210.833 315.725,210.570 314.510,210.406 314.400 C 210.243 314.290,209.859 312.760,209.554 311.000 L 209.000 307.800 206.751 307.682 C 204.697 307.573,204.482 307.642,204.257 308.482 M230.000 313.600 C 230.000 319.987,229.909 320.259,228.381 318.417 C 227.402 317.236,222.400 316.514,222.400 317.553 C 222.400 317.748,222.059 317.996,221.642 318.105 C 221.194 318.222,220.773 318.812,220.611 319.551 C 220.460 320.238,220.171 320.800,219.968 320.800 C 219.755 320.800,219.600 324.585,219.600 329.800 C 219.600 335.029,219.755 338.800,219.969 338.800 C 220.172 338.800,220.540 339.411,220.786 340.158 C 221.297 341.707,221.972 341.987,225.219 341.995 C 227.192 341.999,227.546 341.869,228.419 340.817 C 229.668 339.311,230.000 339.307,230.000 340.800 C 230.000 341.988,230.022 342.000,232.200 342.000 L 234.400 342.000 234.400 324.800 L 234.400 307.600 232.200 307.600 L 230.000 307.600 230.000 313.600 M136.000 310.600 L 136.000 312.800 138.200 312.800 L 140.400 312.800 140.400 310.600 L 140.400 308.400 138.200 308.400 L 136.000 308.400 136.000 310.600 M258.000 310.600 L 258.000 312.800 260.600 312.800 L 263.200 312.800 263.200 310.600 L 263.200 308.400 260.600 308.400 L 258.000 308.400 258.000 310.600 M146.000 313.800 L 146.000 317.200 144.780 317.200 L 143.560 317.200 143.680 319.500 C 143.793 321.662,143.864 321.807,144.872 321.924 L 145.944 322.048 146.072 330.555 L 146.200 339.063 147.554 340.416 C 148.753 341.614,149.199 341.787,151.454 341.931 L 154.000 342.093 154.000 339.847 C 154.000 337.657,153.972 337.600,152.889 337.600 C 150.651 337.600,150.400 336.734,150.400 328.995 L 150.400 322.000 152.200 322.000 L 154.000 322.000 154.000 319.600 L 154.000 317.200 152.200 317.200 L 150.400 317.200 150.400 313.800 L 150.400 310.400 148.200 310.400 L 146.000 310.400 146.000 313.800 M207.032 318.400 C 207.181 319.720,207.439 320.800,207.605 320.800 C 207.771 320.800,208.036 322.015,208.195 323.500 C 208.354 324.985,208.618 326.290,208.784 326.400 C 208.949 326.510,209.178 327.455,209.293 328.500 L 209.502 330.400 206.731 330.400 L 203.960 330.400 204.238 327.900 C 204.390 326.525,204.651 325.310,204.816 325.200 C 204.982 325.090,205.354 322.975,205.643 320.500 C 206.231 315.457,206.631 314.854,207.032 318.400 M100.800 317.592 C 100.800 317.808,100.350 318.098,99.800 318.236 C 99.250 318.374,98.800 318.672,98.800 318.899 C 98.800 319.126,98.542 319.512,98.227 319.756 C 97.912 320.000,97.532 321.055,97.382 322.100 L 97.109 324.000 99.355 324.000 C 100.970 324.000,101.600 323.849,101.600 323.461 C 101.600 322.407,103.066 321.200,104.347 321.200 C 105.036 321.200,105.600 321.380,105.600 321.600 C 105.600 321.820,105.847 322.000,106.150 322.000 C 106.721 322.000,107.200 323.663,107.200 325.650 C 107.200 326.763,107.136 326.800,105.200 326.800 C 104.100 326.800,103.200 326.957,103.200 327.148 C 103.200 327.339,102.387 327.588,101.394 327.700 C 99.079 327.960,97.610 329.357,97.312 331.581 C 97.192 332.471,96.938 333.200,96.747 333.200 C 96.556 333.200,96.400 334.190,96.400 335.400 C 96.400 336.610,96.560 337.600,96.755 337.600 C 96.951 337.600,97.222 338.191,97.357 338.913 C 97.901 341.810,104.057 343.382,106.128 341.152 L 107.000 340.213 107.128 341.106 C 107.242 341.908,107.483 342.000,109.462 342.000 L 111.668 342.000 111.534 331.299 L 111.400 320.597 110.041 319.299 C 109.293 318.584,108.438 318.000,108.141 318.000 C 107.843 318.000,107.600 317.820,107.600 317.600 C 107.600 317.365,106.200 317.200,104.200 317.200 C 102.244 317.200,100.800 317.367,100.800 317.592 M116.000 334.400 L 116.000 351.600 118.600 351.600 L 121.200 351.600 121.200 346.000 C 121.200 340.520,121.466 339.455,122.400 341.200 C 123.226 342.744,127.389 342.340,129.131 340.546 C 132.046 337.545,132.155 321.042,129.278 318.354 C 127.485 316.678,123.647 316.649,122.193 318.300 L 121.225 319.400 121.213 318.300 C 121.200 317.214,121.167 317.200,118.600 317.200 L 116.000 317.200 116.000 334.400 M136.000 329.600 L 136.000 342.000 138.200 342.000 L 140.400 342.000 140.400 329.600 L 140.400 317.200 138.200 317.200 L 136.000 317.200 136.000 329.600 M161.400 317.611 C 161.180 317.815,160.479 318.436,159.841 318.991 C 158.931 319.784,158.641 320.429,158.490 322.000 L 158.298 324.000 160.549 324.000 C 162.283 324.000,162.800 323.862,162.800 323.400 C 162.800 322.464,164.294 321.200,165.400 321.200 C 167.053 321.200,168.000 322.512,168.000 324.800 L 168.000 326.800 166.000 326.800 C 164.900 326.800,164.000 326.980,164.000 327.200 C 164.000 327.420,163.496 327.600,162.880 327.600 C 161.458 327.600,159.607 328.447,159.603 329.100 C 159.601 329.375,159.428 329.600,159.219 329.600 C 158.596 329.600,158.005 332.405,158.002 335.372 C 158.000 338.127,158.643 340.800,159.309 340.800 C 159.500 340.800,159.927 341.070,160.257 341.400 C 160.674 341.817,161.695 342.000,163.600 342.000 C 165.505 342.000,166.526 341.817,166.943 341.400 C 167.273 341.070,167.646 340.800,167.771 340.800 C 167.897 340.800,168.000 341.070,168.000 341.400 C 168.000 341.861,168.514 342.000,170.224 342.000 L 172.447 342.000 172.324 331.038 L 172.200 320.076 171.000 319.027 C 170.340 318.449,169.583 317.802,169.317 317.589 C 168.704 317.096,161.935 317.115,161.400 317.611 M237.600 317.800 C 237.600 318.130,237.741 318.400,237.913 318.400 C 238.085 318.400,238.465 319.705,238.757 321.300 C 239.049 322.895,239.427 324.380,239.598 324.600 C 239.770 324.820,240.036 325.765,240.190 326.700 C 240.344 327.635,240.602 328.400,240.763 328.400 C 240.925 328.400,241.272 329.786,241.536 331.481 C 241.799 333.175,242.180 334.664,242.381 334.788 C 242.583 334.913,242.873 335.957,243.025 337.108 C 243.178 338.258,243.440 339.200,243.607 339.200 C 243.774 339.200,244.029 339.830,244.174 340.600 C 244.431 341.970,244.477 342.000,246.367 342.000 L 248.297 342.000 248.562 340.000 C 248.708 338.900,248.988 338.000,249.185 338.000 C 249.382 338.000,249.666 337.010,249.817 335.800 C 249.968 334.590,250.238 333.600,250.417 333.600 C 250.596 333.600,250.960 332.250,251.226 330.600 C 251.492 328.950,251.848 327.600,252.017 327.600 C 252.187 327.600,252.449 326.700,252.600 325.600 C 252.751 324.500,252.997 323.600,253.146 323.600 C 253.410 323.600,254.400 319.030,254.400 317.811 C 254.400 317.339,253.911 317.200,252.247 317.200 C 249.916 317.200,249.618 317.527,249.605 320.100 C 249.602 320.705,249.449 321.200,249.265 321.200 C 249.080 321.200,248.691 323.000,248.400 325.200 C 248.109 327.400,247.729 329.200,247.555 329.200 C 247.382 329.200,247.118 330.280,246.968 331.600 C 246.819 332.920,246.565 334.000,246.404 334.000 C 246.079 334.000,245.200 330.005,245.200 328.533 C 245.200 328.020,245.034 327.600,244.832 327.600 C 244.629 327.600,244.338 326.430,244.185 325.000 C 244.032 323.570,243.762 322.400,243.585 322.400 C 243.408 322.400,243.138 321.230,242.985 319.800 L 242.707 317.200 240.153 317.200 C 238.150 317.200,237.600 317.329,237.600 317.800 M258.000 329.600 L 258.000 342.000 260.600 342.000 L 263.200 342.000 263.200 329.600 L 263.200 317.200 260.600 317.200 L 258.000 317.200 258.000 329.600 M270.400 317.600 C 270.400 317.820,270.161 318.000,269.870 318.000 C 269.226 318.000,267.600 319.666,267.600 320.326 C 267.600 320.587,267.420 320.800,267.200 320.800 C 266.670 320.800,266.675 327.086,267.206 327.717 C 268.924 329.760,269.645 330.353,270.925 330.775 C 271.730 331.041,272.492 331.425,272.618 331.629 C 272.744 331.833,273.169 332.000,273.561 332.000 C 275.668 332.000,277.348 335.985,275.867 337.467 C 275.014 338.319,272.402 338.042,271.950 337.051 C 271.687 336.473,271.320 336.000,271.136 336.000 C 270.951 336.000,270.800 335.730,270.800 335.400 C 270.800 334.938,270.283 334.800,268.548 334.800 L 266.296 334.800 266.494 336.559 C 266.603 337.527,266.900 338.562,267.152 338.859 C 269.732 341.891,269.459 341.757,273.386 341.929 C 276.251 342.054,277.183 341.960,277.646 341.497 C 277.971 341.172,278.634 340.780,279.119 340.626 C 279.603 340.472,280.000 340.083,280.000 339.760 C 280.000 339.438,280.270 339.071,280.600 338.945 C 282.351 338.273,280.984 329.980,279.019 329.346 C 278.589 329.208,277.998 328.855,277.706 328.563 C 277.413 328.271,276.550 327.914,275.787 327.771 C 275.024 327.628,274.400 327.351,274.400 327.155 C 274.400 326.960,273.956 326.800,273.414 326.800 C 271.742 326.800,270.907 323.546,272.157 321.900 C 273.170 320.565,276.000 321.670,276.000 323.400 C 276.000 323.862,276.517 324.000,278.251 324.000 L 280.502 324.000 280.310 322.000 C 280.121 320.038,279.831 319.611,277.317 317.589 C 276.672 317.070,270.400 317.080,270.400 317.600 M287.600 317.610 C 287.600 317.835,287.150 318.191,286.600 318.400 C 286.050 318.609,285.600 319.040,285.600 319.357 C 285.600 319.674,285.375 320.008,285.100 320.100 C 284.719 320.227,284.600 322.455,284.600 329.433 L 284.600 338.600 286.200 340.200 L 287.800 341.800 291.567 341.800 C 294.224 341.800,295.382 341.653,295.500 341.300 C 295.592 341.025,295.927 340.800,296.246 340.800 C 296.564 340.800,296.941 340.485,297.083 340.100 C 297.225 339.715,297.535 339.271,297.771 339.114 C 298.801 338.428,298.310 320.325,297.228 319.100 C 296.693 318.495,296.018 318.000,295.728 318.000 C 295.438 318.000,295.200 317.820,295.200 317.600 C 295.200 317.361,293.667 317.200,291.400 317.200 C 289.072 317.200,287.600 317.359,287.600 317.610 M302.800 329.600 L 302.800 342.000 305.379 342.000 L 307.957 342.000 308.079 333.090 C 308.221 322.652,308.267 322.524,312.067 322.060 L 314.200 321.800 314.320 319.500 L 314.440 317.200 313.238 317.200 C 312.576 317.200,311.127 317.735,310.018 318.390 L 308.000 319.579 308.000 318.390 L 308.000 317.200 305.400 317.200 L 302.800 317.200 302.800 329.600 M320.600 317.611 C 320.380 317.815,319.660 318.453,319.000 319.029 C 317.852 320.030,317.794 320.237,317.663 323.801 L 317.525 327.525 319.122 329.122 C 320.000 330.000,321.277 330.841,321.959 330.991 C 322.642 331.141,323.200 331.407,323.200 331.582 C 323.200 331.757,323.734 332.007,324.388 332.138 C 327.957 332.851,328.054 338.000,324.497 338.000 C 323.390 338.000,321.600 336.356,321.600 335.338 C 321.600 334.953,320.976 334.800,319.400 334.800 C 316.342 334.800,316.280 337.541,319.272 340.534 C 320.614 341.876,327.944 342.526,328.714 341.371 C 328.871 341.135,329.315 340.825,329.700 340.683 C 330.085 340.541,330.400 340.169,330.400 339.855 C 330.400 339.542,330.670 339.182,331.000 339.055 C 332.885 338.332,331.298 329.200,329.287 329.200 C 329.019 329.200,328.800 329.037,328.800 328.837 C 328.800 328.637,327.900 328.243,326.800 327.961 C 325.700 327.679,324.800 327.303,324.800 327.124 C 324.800 326.946,324.480 326.800,324.089 326.800 C 322.208 326.800,321.317 323.483,322.800 322.000 C 324.228 320.572,326.352 321.341,326.387 323.300 C 326.398 323.887,326.786 324.000,328.800 324.000 L 331.200 324.000 331.200 322.400 C 331.200 321.520,331.020 320.800,330.800 320.800 C 330.580 320.800,330.400 320.561,330.400 320.270 C 330.400 319.626,328.734 318.000,328.074 318.000 C 327.813 318.000,327.600 317.820,327.600 317.600 C 327.600 317.092,321.149 317.102,320.600 317.611 M125.418 322.182 C 127.875 324.639,126.571 338.000,123.874 338.000 C 120.014 338.000,119.859 321.356,123.718 321.224 C 124.113 321.211,124.878 321.642,125.418 322.182 M227.600 321.600 C 227.600 321.820,227.867 322.000,228.192 322.000 C 228.518 322.000,228.898 322.450,229.036 323.000 C 229.174 323.550,229.447 324.000,229.643 324.000 C 229.840 324.000,230.000 326.520,230.000 329.600 C 230.000 332.744,229.839 335.200,229.632 335.200 C 229.429 335.200,229.149 335.722,229.009 336.359 C 228.849 337.089,228.429 337.606,227.877 337.754 C 226.470 338.131,226.176 338.055,225.058 337.019 L 224.000 336.038 224.000 329.487 L 224.000 322.935 225.000 322.400 C 225.550 322.106,226.000 321.715,226.000 321.532 C 226.000 321.350,226.360 321.200,226.800 321.200 C 227.240 321.200,227.600 321.380,227.600 321.600 M293.300 322.557 C 294.389 323.383,294.323 335.381,293.223 336.700 C 292.240 337.878,290.161 337.939,289.800 336.800 C 289.660 336.360,289.378 336.000,289.173 336.000 C 288.958 336.000,288.800 333.368,288.800 329.800 C 288.800 326.390,288.959 323.600,289.153 323.600 C 289.348 323.600,289.601 323.240,289.716 322.800 C 289.965 321.849,292.170 321.699,293.300 322.557 M107.102 333.781 C 106.889 336.442,106.418 337.287,104.872 337.777 C 103.647 338.166,101.600 337.660,101.600 336.968 C 101.600 336.656,101.420 336.400,101.200 336.400 C 100.980 336.400,100.800 335.770,100.800 335.000 C 100.800 334.230,100.980 333.600,101.200 333.600 C 101.420 333.600,101.600 333.390,101.600 333.134 C 101.600 332.008,103.015 331.247,105.155 331.224 L 107.310 331.200 107.102 333.781 M168.000 333.579 C 168.000 337.316,164.401 339.734,162.738 337.114 C 161.975 335.910,162.516 332.000,163.447 332.000 C 163.751 332.000,164.000 331.820,164.000 331.600 C 164.000 331.380,164.900 331.200,166.000 331.200 L 168.000 331.200 168.000 333.579 M284.800 434.800 C 284.800 441.733,284.943 445.600,285.200 445.600 C 285.420 445.600,285.600 446.037,285.600 446.571 C 285.600 447.738,286.567 448.800,287.629 448.800 C 288.053 448.800,288.400 448.980,288.400 449.200 C 288.400 449.420,288.850 449.600,289.400 449.600 C 290.729 449.600,290.945 446.227,289.643 445.814 C 288.499 445.451,288.411 444.603,288.405 433.900 L 288.400 424.000 286.600 424.000 L 284.800 424.000 284.800 434.800 M346.400 428.233 C 346.400 431.478,346.283 432.412,345.900 432.234 C 345.625 432.105,345.085 431.889,344.700 431.754 C 344.315 431.618,344.000 431.348,344.000 431.153 C 344.000 430.529,342.487 430.776,341.023 431.640 C 340.240 432.101,339.600 432.731,339.600 433.040 C 339.600 433.348,339.420 433.600,339.200 433.600 C 338.949 433.600,338.800 436.133,338.800 440.400 C 338.800 444.667,338.949 447.200,339.200 447.200 C 339.420 447.200,339.600 447.430,339.600 447.711 C 339.600 449.074,344.000 450.468,344.467 449.253 C 344.737 448.548,346.400 448.308,346.400 448.973 C 346.400 449.438,346.814 449.600,348.000 449.600 L 349.600 449.600 349.600 436.800 L 349.600 424.000 348.000 424.000 L 346.400 424.000 346.400 428.233 M236.400 426.400 L 236.400 428.000 238.200 428.000 L 240.000 428.000 240.000 426.400 L 240.000 424.800 238.200 424.800 L 236.400 424.800 236.400 426.400 M320.000 426.400 L 320.000 428.000 321.600 428.000 L 323.200 428.000 323.200 426.400 L 323.200 424.800 321.600 424.800 L 320.000 424.800 320.000 426.400 M228.000 428.367 C 228.000 430.708,227.712 431.600,226.957 431.600 C 226.574 431.600,226.400 432.099,226.400 433.200 C 226.400 434.533,226.533 434.800,227.200 434.800 C 227.966 434.800,228.000 435.067,228.000 441.000 C 228.000 444.867,228.151 447.200,228.400 447.200 C 228.620 447.200,228.800 447.487,228.800 447.837 C 228.800 448.188,229.160 448.569,229.600 448.684 C 230.040 448.799,230.400 449.052,230.400 449.247 C 230.400 449.441,231.120 449.600,232.000 449.600 L 233.600 449.600 233.600 447.828 C 233.600 446.295,233.479 446.038,232.700 445.928 C 231.823 445.803,231.797 445.661,231.689 440.300 L 231.577 434.800 232.589 434.800 C 233.502 434.800,233.600 434.645,233.600 433.200 C 233.600 431.760,233.500 431.600,232.600 431.600 C 231.636 431.600,231.600 431.507,231.600 429.000 L 231.600 426.400 229.800 426.400 L 228.000 426.400 228.000 428.367 M148.800 431.200 C 148.800 431.420,148.390 431.600,147.889 431.600 C 145.573 431.600,144.800 433.954,144.800 441.005 C 144.800 446.942,145.359 448.800,147.146 448.800 C 147.396 448.800,147.600 448.980,147.600 449.200 C 147.600 449.426,148.733 449.600,150.200 449.600 C 151.667 449.600,152.800 449.426,152.800 449.200 C 152.800 448.980,153.086 448.800,153.435 448.800 C 153.784 448.800,154.273 448.260,154.522 447.600 C 154.772 446.940,155.116 446.400,155.288 446.400 C 155.459 446.400,155.600 445.680,155.600 444.800 L 155.600 443.200 153.845 443.200 C 152.150 443.200,152.080 443.249,151.822 444.623 C 151.568 445.979,151.486 446.040,150.078 445.923 L 148.600 445.800 148.488 440.656 C 148.365 435.046,148.600 434.275,150.366 434.480 C 151.191 434.576,151.475 434.903,151.771 436.100 C 152.127 437.545,152.205 437.600,153.871 437.600 L 155.600 437.600 155.600 436.000 C 155.600 435.120,155.459 434.400,155.288 434.400 C 155.116 434.400,154.771 433.859,154.521 433.197 C 154.193 432.326,153.726 431.925,152.834 431.747 C 152.155 431.611,151.600 431.343,151.600 431.150 C 151.600 430.957,150.970 430.800,150.200 430.800 C 149.430 430.800,148.800 430.980,148.800 431.200 M161.600 431.155 C 161.600 431.351,160.962 431.631,160.182 431.777 C 158.223 432.145,158.000 432.980,158.000 439.966 C 158.000 446.516,158.373 448.278,159.840 448.646 C 160.368 448.778,160.800 449.047,160.800 449.243 C 160.800 449.440,161.790 449.600,163.000 449.600 C 164.210 449.600,165.200 449.420,165.200 449.200 C 165.200 448.980,165.404 448.800,165.654 448.800 C 167.512 448.800,168.000 447.007,168.000 440.179 C 168.000 436.561,167.863 433.600,167.695 433.600 C 167.527 433.600,167.212 433.195,166.995 432.700 C 166.724 432.083,166.192 431.761,165.300 431.675 C 164.585 431.606,164.000 431.381,164.000 431.175 C 164.000 430.969,163.460 430.800,162.800 430.800 C 162.140 430.800,161.600 430.960,161.600 431.155 M177.600 431.102 C 177.600 431.268,176.970 431.601,176.200 431.842 C 175.430 432.083,174.800 432.127,174.800 431.940 C 174.800 431.753,173.990 431.600,173.000 431.600 L 171.200 431.600 171.200 440.600 L 171.200 449.600 173.000 449.600 L 174.800 449.600 174.800 442.391 L 174.800 435.183 175.803 434.726 C 176.581 434.372,177.032 434.389,177.803 434.802 L 178.800 435.335 178.800 442.468 L 178.800 449.600 180.408 449.600 L 182.016 449.600 181.908 440.900 L 181.800 432.200 180.500 431.817 C 179.785 431.607,179.200 431.292,179.200 431.117 C 179.200 430.943,178.840 430.800,178.400 430.800 C 177.960 430.800,177.600 430.936,177.600 431.102 M203.200 431.129 C 203.200 431.311,202.525 431.626,201.700 431.829 C 200.408 432.149,200.149 432.408,199.829 433.700 C 199.626 434.525,199.311 435.200,199.129 435.200 C 198.948 435.200,198.800 437.360,198.800 440.000 C 198.800 442.933,198.956 444.800,199.200 444.800 C 199.420 444.800,199.600 445.306,199.600 445.925 C 199.600 447.144,200.876 448.800,201.816 448.800 C 202.137 448.800,202.400 448.980,202.400 449.200 C 202.400 449.420,203.399 449.600,204.620 449.600 C 207.372 449.600,209.600 447.838,209.600 445.660 C 209.600 444.092,207.313 443.791,206.107 445.200 C 204.458 447.127,202.400 445.780,202.400 442.774 L 202.400 441.600 206.000 441.600 L 209.600 441.600 209.600 437.587 C 209.600 434.390,209.478 433.528,209.000 433.345 C 208.670 433.218,208.400 432.872,208.400 432.575 C 208.400 432.276,207.778 431.919,207.000 431.774 C 206.230 431.629,205.600 431.351,205.600 431.155 C 205.600 430.960,205.060 430.800,204.400 430.800 C 203.740 430.800,203.200 430.948,203.200 431.129 M219.200 431.102 C 219.200 431.268,218.570 431.601,217.800 431.842 C 217.030 432.083,216.400 432.127,216.400 431.940 C 216.400 431.753,215.587 431.600,214.592 431.600 L 212.785 431.600 212.892 440.500 L 213.000 449.400 214.700 449.523 L 216.400 449.646 216.400 442.414 L 216.400 435.183 217.403 434.726 C 218.181 434.372,218.632 434.389,219.403 434.802 L 220.400 435.335 220.400 442.468 L 220.400 449.600 222.008 449.600 L 223.616 449.600 223.508 440.900 L 223.400 432.200 222.100 431.817 C 221.385 431.607,220.800 431.292,220.800 431.117 C 220.800 430.943,220.440 430.800,220.000 430.800 C 219.560 430.800,219.200 430.936,219.200 431.102 M246.800 431.200 C 246.800 431.420,246.449 431.600,246.021 431.600 C 245.592 431.600,244.737 432.067,244.121 432.638 L 243.000 433.676 243.000 440.252 C 243.000 444.490,243.153 446.930,243.429 447.114 C 243.665 447.271,243.975 447.715,244.117 448.100 C 244.259 448.485,244.651 448.800,244.987 448.800 C 245.324 448.800,245.600 448.980,245.600 449.200 C 245.600 450.956,252.282 448.972,252.671 447.100 C 252.797 446.495,253.058 446.000,253.250 446.000 C 253.443 446.000,253.600 443.480,253.600 440.400 C 253.600 436.933,253.448 434.800,253.200 434.800 C 252.980 434.800,252.800 434.447,252.800 434.016 C 252.800 433.053,251.310 431.600,250.325 431.600 C 249.926 431.600,249.600 431.420,249.600 431.200 C 249.600 430.980,248.970 430.800,248.200 430.800 C 247.430 430.800,246.800 430.980,246.800 431.200 M262.400 431.200 C 262.400 431.420,262.076 431.600,261.680 431.600 C 261.284 431.600,260.722 431.825,260.430 432.100 C 260.006 432.500,259.863 432.500,259.717 432.100 C 259.613 431.816,258.856 431.600,257.967 431.600 L 256.400 431.600 256.400 440.600 L 256.400 449.600 257.975 449.600 L 259.550 449.600 259.675 442.432 C 259.811 434.615,259.804 434.640,261.800 434.640 C 263.789 434.640,263.782 434.613,264.000 442.333 L 264.200 449.400 265.900 449.523 L 267.600 449.646 267.600 442.023 C 267.600 437.569,267.445 434.400,267.227 434.400 C 267.021 434.400,266.796 433.905,266.727 433.300 C 266.648 432.620,266.256 432.049,265.700 431.805 C 265.205 431.588,264.800 431.273,264.800 431.105 C 264.800 430.937,264.260 430.800,263.600 430.800 C 262.940 430.800,262.400 430.980,262.400 431.200 M274.800 431.117 C 274.800 431.292,274.215 431.607,273.500 431.817 C 272.523 432.105,272.105 432.523,271.817 433.500 C 271.607 434.215,271.292 434.800,271.117 434.800 C 270.943 434.800,270.800 435.160,270.800 435.600 C 270.800 436.847,274.050 436.764,274.605 435.502 C 275.509 433.447,278.400 434.137,278.400 436.408 C 278.400 437.956,278.362 438.000,277.024 438.000 C 276.267 438.000,275.536 438.180,275.400 438.400 C 275.264 438.620,274.740 438.800,274.236 438.800 C 272.138 438.800,270.800 440.904,270.800 444.203 C 270.800 445.852,270.959 447.200,271.153 447.200 C 271.348 447.200,271.601 447.560,271.716 448.000 C 271.831 448.440,272.212 448.800,272.563 448.800 C 272.913 448.800,273.200 448.980,273.200 449.200 C 273.200 449.892,276.790 449.667,277.529 448.929 C 278.157 448.300,278.208 448.300,278.329 448.929 C 278.424 449.421,278.877 449.600,280.029 449.600 L 281.600 449.600 281.595 441.900 C 281.588 432.473,281.594 432.502,279.349 431.902 C 278.387 431.645,277.600 431.291,277.600 431.117 C 277.600 430.943,276.970 430.800,276.200 430.800 C 275.430 430.800,274.800 430.943,274.800 431.117 M330.000 431.200 C 330.000 431.420,329.649 431.600,329.221 431.600 C 326.570 431.600,324.947 437.329,327.000 439.438 C 328.111 440.580,330.552 442.000,331.403 442.000 C 333.151 442.000,333.915 445.361,332.302 445.958 C 330.902 446.476,329.200 445.710,329.200 444.561 C 329.200 443.701,329.026 443.600,327.548 443.600 L 325.896 443.600 326.091 445.329 C 326.290 447.093,327.370 448.800,328.289 448.800 C 328.570 448.800,328.800 448.980,328.800 449.200 C 328.800 449.426,329.933 449.600,331.400 449.600 C 332.867 449.600,334.000 449.426,334.000 449.200 C 334.000 448.980,334.286 448.800,334.635 448.800 C 334.984 448.800,335.473 448.260,335.722 447.600 C 335.972 446.940,336.316 446.400,336.488 446.400 C 336.659 446.400,336.800 445.320,336.800 444.000 C 336.800 442.667,336.622 441.600,336.400 441.600 C 336.180 441.600,336.000 441.313,336.000 440.963 C 336.000 440.612,335.640 440.231,335.200 440.116 C 334.760 440.001,334.400 439.756,334.400 439.571 C 334.400 439.387,333.770 439.118,333.000 438.974 C 332.230 438.829,331.600 438.551,331.600 438.355 C 331.600 438.160,331.324 438.000,330.987 438.000 C 330.651 438.000,330.259 437.685,330.117 437.300 C 329.975 436.915,329.665 436.468,329.429 436.306 C 329.130 436.101,329.137 436.010,329.453 436.006 C 329.703 436.003,330.004 435.627,330.124 435.171 C 330.438 433.969,332.548 434.236,332.728 435.500 C 332.998 437.399,336.000 436.757,336.000 434.800 C 336.000 433.018,334.936 431.600,333.600 431.600 C 333.160 431.600,332.800 431.420,332.800 431.200 C 332.800 430.980,332.170 430.800,331.400 430.800 C 330.630 430.800,330.000 430.980,330.000 431.200 M356.800 431.200 C 356.800 431.420,356.350 431.600,355.800 431.600 C 353.481 431.600,353.200 432.519,353.200 440.111 L 353.200 447.022 354.377 448.311 C 355.571 449.618,360.400 450.331,360.400 449.200 C 360.400 448.980,360.686 448.800,361.035 448.800 C 361.384 448.800,361.873 448.260,362.122 447.600 C 362.372 446.940,362.716 446.400,362.888 446.400 C 363.059 446.400,363.200 443.700,363.200 440.400 C 363.200 437.012,363.040 434.400,362.832 434.400 C 362.629 434.400,362.346 433.866,362.203 433.213 C 361.992 432.254,361.678 431.976,360.571 431.768 C 359.817 431.627,359.200 431.351,359.200 431.155 C 359.200 430.960,358.660 430.800,358.000 430.800 C 357.340 430.800,356.800 430.980,356.800 431.200 M371.800 431.200 C 371.580 431.398,370.995 431.929,370.500 432.380 C 369.379 433.401,369.200 433.404,369.200 432.400 C 369.200 431.733,368.933 431.600,367.600 431.600 L 366.000 431.600 366.000 440.600 L 366.000 449.600 367.600 449.600 L 369.200 449.600 369.200 443.000 C 369.200 438.867,369.349 436.400,369.600 436.400 C 369.820 436.400,370.000 436.136,370.000 435.814 C 370.000 435.492,370.331 435.051,370.735 434.835 C 371.666 434.337,373.200 434.718,373.200 435.447 C 373.200 435.751,373.380 436.000,373.600 436.000 C 373.851 436.000,374.000 438.533,374.000 442.800 L 374.000 449.600 375.600 449.600 L 377.200 449.600 377.200 442.414 C 377.200 435.719,377.253 435.200,377.974 434.814 C 379.170 434.174,380.054 434.321,380.284 435.200 C 380.399 435.640,380.652 436.000,380.847 436.000 C 381.041 436.000,381.200 439.060,381.200 442.800 L 381.200 449.600 382.800 449.600 L 384.400 449.600 384.400 441.826 C 384.400 433.426,384.175 432.160,382.614 431.768 C 382.056 431.628,381.600 431.353,381.600 431.157 C 381.600 430.960,381.150 430.800,380.600 430.800 C 380.050 430.800,379.600 430.960,379.600 431.157 C 379.600 431.353,379.142 431.628,378.583 431.769 C 378.023 431.909,377.467 432.280,377.347 432.594 C 377.169 433.057,376.970 433.017,376.289 432.382 C 375.827 431.952,375.213 431.600,374.925 431.600 C 374.636 431.600,374.400 431.420,374.400 431.200 C 374.400 430.706,372.349 430.706,371.800 431.200 M185.014 433.300 C 185.170 434.235,185.438 435.090,185.610 435.200 C 185.781 435.310,186.050 436.255,186.206 437.300 C 186.363 438.345,186.619 439.200,186.775 439.200 C 186.931 439.200,187.302 440.640,187.600 442.400 C 187.898 444.160,188.273 445.600,188.433 445.600 C 188.594 445.600,188.849 446.500,189.000 447.600 C 189.474 451.048,192.414 450.371,192.966 446.687 C 193.122 445.649,193.393 444.800,193.570 444.800 C 193.746 444.800,194.108 443.450,194.374 441.800 C 194.640 440.150,195.004 438.800,195.183 438.800 C 195.362 438.800,195.632 437.810,195.783 436.600 C 195.934 435.390,196.225 434.400,196.429 434.400 C 196.633 434.400,196.800 433.770,196.800 433.000 C 196.800 431.686,196.720 431.600,195.500 431.606 C 193.574 431.615,193.289 431.966,192.979 434.705 C 192.824 436.077,192.553 437.200,192.377 437.200 C 192.201 437.200,191.930 438.235,191.775 439.500 C 191.312 443.261,190.558 443.803,190.217 440.619 C 190.063 439.179,189.792 438.000,189.615 438.000 C 189.438 438.000,189.165 436.800,189.008 435.332 C 188.675 432.232,188.199 431.600,186.193 431.600 L 184.730 431.600 185.014 433.300 M236.492 440.500 L 236.600 449.400 238.300 449.523 L 240.000 449.646 240.000 440.623 L 240.000 431.600 238.192 431.600 L 236.385 431.600 236.492 440.500 M299.762 434.261 C 299.915 435.755,300.200 437.076,300.394 437.196 C 300.589 437.317,300.876 438.402,301.033 439.608 C 301.190 440.813,301.445 441.890,301.601 442.000 C 301.757 442.110,302.143 443.820,302.460 445.800 L 303.035 449.400 304.668 449.521 L 306.302 449.641 306.585 446.621 C 306.741 444.959,307.015 443.600,307.194 443.600 C 307.372 443.600,307.666 442.295,307.845 440.700 C 308.024 439.105,308.235 438.295,308.312 438.900 C 308.390 439.505,308.603 440.000,308.786 440.000 C 308.969 440.000,309.245 441.260,309.400 442.800 C 309.555 444.340,309.843 445.600,310.041 445.600 C 310.238 445.600,310.402 446.095,310.405 446.700 C 310.417 448.998,310.799 449.600,312.247 449.600 C 313.484 449.600,313.600 449.497,313.600 448.400 C 313.600 447.740,313.755 447.200,313.944 447.200 C 314.134 447.200,314.529 445.580,314.822 443.600 C 315.115 441.620,315.480 440.000,315.632 440.000 C 315.783 440.000,316.037 438.965,316.195 437.700 C 316.352 436.435,316.616 435.310,316.781 435.200 C 316.945 435.090,317.180 434.235,317.302 433.300 L 317.524 431.600 316.133 431.600 C 314.138 431.600,313.733 432.242,313.407 435.923 C 313.247 437.725,312.955 439.200,312.758 439.200 C 312.561 439.200,312.379 440.055,312.354 441.100 C 312.328 442.145,312.225 442.685,312.124 442.300 C 312.024 441.915,311.801 441.600,311.630 441.600 C 311.458 441.600,311.085 439.710,310.800 437.400 C 310.515 435.090,310.128 433.200,309.941 433.200 C 309.753 433.200,309.600 432.840,309.600 432.400 C 309.600 431.757,309.333 431.600,308.244 431.600 L 306.888 431.600 306.428 434.300 C 306.175 435.785,305.750 438.286,305.484 439.857 C 304.858 443.550,304.176 442.987,303.780 438.451 C 303.624 436.663,303.350 435.200,303.171 435.200 C 302.992 435.200,302.791 434.435,302.723 433.500 C 302.603 431.837,302.566 431.797,301.042 431.672 L 299.484 431.545 299.762 434.261 M320.000 440.600 L 320.000 449.600 321.600 449.600 L 323.200 449.600 323.200 440.600 L 323.200 431.600 321.600 431.600 L 320.000 431.600 320.000 440.600 M163.963 434.956 C 164.273 435.329,164.388 437.204,164.312 440.656 L 164.200 445.800 162.800 445.800 L 161.400 445.800 161.287 440.604 C 161.162 434.802,162.133 432.751,163.963 434.956 M205.367 434.643 C 205.715 434.776,206.000 435.226,206.000 435.643 C 206.000 436.059,206.180 436.400,206.400 436.400 C 206.620 436.400,206.800 436.940,206.800 437.600 C 206.800 438.788,206.778 438.800,204.600 438.800 C 202.433 438.800,202.400 438.782,202.400 437.626 C 202.400 434.963,203.450 433.907,205.367 434.643 M249.830 436.217 C 250.296 438.702,249.861 445.192,249.200 445.609 C 248.203 446.239,247.138 446.048,246.916 445.200 C 246.801 444.760,246.548 444.400,246.353 444.400 C 246.159 444.400,246.000 442.510,246.000 440.200 C 246.000 437.667,246.159 436.000,246.400 436.000 C 246.620 436.000,246.800 435.743,246.800 435.429 C 246.800 435.115,247.115 434.791,247.500 434.709 C 248.865 434.416,249.578 434.878,249.830 436.217 M345.484 435.200 C 345.599 435.640,345.852 436.000,346.047 436.000 C 346.241 436.000,346.400 437.980,346.400 440.400 C 346.400 443.067,346.242 444.800,346.000 444.800 C 345.780 444.800,345.600 445.049,345.600 445.353 C 345.600 446.066,344.418 446.372,343.285 445.953 C 342.060 445.500,341.894 435.534,343.100 434.832 C 344.225 434.177,345.258 434.337,345.484 435.200 M359.120 434.880 C 359.438 435.198,359.600 436.925,359.600 440.004 C 359.600 445.127,359.243 446.173,357.578 445.938 C 356.251 445.751,355.786 435.017,357.089 434.678 C 358.322 434.357,358.627 434.387,359.120 434.880 M278.400 443.569 C 278.400 445.653,276.854 446.856,275.061 446.168 C 273.122 445.424,274.590 441.600,276.814 441.600 L 278.400 441.600 278.400 443.569 " stroke="none" fill="#042464" fill-rule="evenodd"></path></g></svg>