<svg id="svg" version="1.1" xmlns="http://www.w3.org/2000/svg" xmlns:xlink="http://www.w3.org/1999/xlink" width="400" height="400" viewBox="0, 0, 400,400"><g id="svgg"><path id="path0" d="M66.900 269.865 C 66.510 270.022,66.400 274.034,66.400 288.033 L 66.400 306.000 74.020 306.000 L 81.640 306.000 81.520 303.700 L 81.400 301.400 76.300 301.288 L 71.200 301.176 71.200 285.388 L 71.200 269.600 69.300 269.632 C 68.255 269.649,67.175 269.754,66.900 269.865 M211.485 269.849 C 211.031 270.303,211.150 300.403,211.612 302.067 C 212.302 304.551,214.365 306.000,217.214 306.000 L 219.600 306.000 219.600 304.233 C 219.600 301.760,219.301 301.200,217.981 301.200 C 216.222 301.200,216.212 301.115,216.000 285.000 L 215.800 269.800 213.785 269.682 C 212.676 269.617,211.641 269.692,211.485 269.849 M237.289 270.264 C 234.233 271.771,233.009 274.686,233.286 279.800 C 233.563 284.914,234.834 286.585,240.569 289.375 C 245.576 291.810,245.787 292.087,245.794 296.224 C 245.801 300.444,245.106 301.400,242.031 301.400 C 239.446 301.400,238.480 300.530,238.320 298.056 L 238.200 296.200 235.700 296.081 L 233.200 295.962 233.202 297.881 C 233.209 303.662,235.899 306.203,242.000 306.194 C 248.574 306.184,250.439 304.234,250.720 297.076 C 250.997 290.027,250.105 288.609,243.335 285.338 C 238.740 283.117,238.400 282.675,238.400 278.911 C 238.400 275.229,239.051 274.400,241.938 274.400 C 244.355 274.400,245.282 275.297,245.584 277.925 L 245.800 279.800 247.962 279.923 C 250.616 280.074,250.910 279.723,250.572 276.800 C 249.879 270.812,243.023 267.438,237.289 270.264 M85.443 270.633 C 85.309 270.981,85.200 272.061,85.200 273.033 L 85.200 274.800 87.800 274.800 L 90.400 274.800 90.400 272.400 L 90.400 270.000 88.043 270.000 C 86.262 270.000,85.626 270.155,85.443 270.633 M256.314 276.300 L 256.200 280.200 254.900 280.325 C 253.610 280.450,253.600 280.468,253.600 282.600 C 253.600 284.732,253.610 284.750,254.900 284.875 L 256.200 285.000 256.400 294.000 C 256.650 305.256,257.107 306.155,262.595 306.188 L 264.600 306.200 264.600 304.016 C 264.600 301.898,264.563 301.825,263.365 301.580 C 261.154 301.128,261.200 301.315,261.200 292.776 L 261.200 284.800 263.000 284.800 L 264.800 284.800 264.800 282.600 L 264.800 280.400 263.000 280.400 L 261.200 280.400 261.200 276.643 C 261.200 272.425,261.182 272.400,258.182 272.400 L 256.429 272.400 256.314 276.300 M325.885 272.649 C 325.728 272.805,325.600 274.613,325.600 276.667 L 325.600 280.400 324.200 280.400 L 322.800 280.400 322.800 282.600 L 322.800 284.800 324.200 284.800 L 325.600 284.800 325.600 292.854 C 325.600 304.221,326.257 305.705,331.537 306.257 L 334.000 306.514 334.000 304.057 C 334.000 301.703,333.958 301.600,333.000 301.600 C 330.609 301.600,330.371 300.739,330.491 292.491 L 330.600 285.000 332.300 284.877 L 334.000 284.754 334.000 282.600 L 334.000 280.446 332.300 280.323 L 330.600 280.200 330.400 276.400 L 330.200 272.600 328.185 272.482 C 327.076 272.417,326.041 272.492,325.885 272.649 M119.121 280.416 C 113.862 283.194,112.718 299.805,117.465 304.464 L 119.234 306.200 122.748 306.200 C 127.620 306.200,130.400 303.962,130.400 300.040 C 130.400 298.164,126.203 298.097,125.553 299.962 C 124.217 303.795,119.600 301.904,119.600 297.525 L 119.600 295.200 125.000 295.200 L 130.400 295.200 130.400 290.387 C 130.400 281.415,125.475 277.061,119.121 280.416 M144.129 280.343 C 143.430 280.704,142.410 281.390,141.863 281.868 C 140.752 282.837,140.400 282.708,140.400 281.333 C 140.400 280.451,140.257 280.400,137.794 280.400 L 135.189 280.400 135.294 293.100 L 135.400 305.800 137.900 305.919 L 140.400 306.038 140.402 297.719 C 140.405 286.412,140.648 285.739,145.071 284.749 L 147.200 284.273 147.200 281.936 C 147.200 279.295,146.680 279.025,144.129 280.343 M158.903 280.175 C 158.409 280.448,157.644 280.998,157.203 281.398 C 156.423 282.103,156.400 282.100,156.400 281.262 C 156.400 280.468,156.196 280.400,153.796 280.400 L 151.192 280.400 151.296 298.500 L 151.400 316.600 153.800 316.600 L 156.200 316.600 156.415 310.200 C 156.534 306.680,156.669 304.010,156.715 304.267 C 157.120 306.503,162.693 307.018,164.786 305.013 C 167.430 302.480,168.283 287.607,166.045 283.061 C 164.543 280.009,161.457 278.762,158.903 280.175 M175.400 280.421 C 172.045 282.059,171.800 282.914,171.800 292.971 C 171.800 301.475,171.834 301.854,172.715 303.272 C 175.418 307.619,183.096 307.519,185.624 303.104 C 186.746 301.145,187.318 288.211,186.429 284.908 C 185.222 280.425,179.860 278.243,175.400 280.421 M194.941 280.431 C 191.732 281.908,191.421 282.942,191.277 292.600 C 191.155 300.781,191.177 301.046,192.097 302.779 C 195.260 308.733,205.238 307.163,206.142 300.569 C 206.525 297.779,206.436 286.839,206.017 285.031 C 204.955 280.453,199.666 278.256,194.941 280.431 M277.800 280.284 C 277.140 280.624,276.138 281.331,275.572 281.856 C 274.443 282.905,274.000 282.758,274.000 281.333 C 274.000 280.451,273.857 280.400,271.394 280.400 L 268.789 280.400 268.894 293.100 L 269.000 305.800 271.473 305.918 L 273.946 306.037 274.073 296.785 L 274.200 287.533 275.479 286.391 C 276.697 285.303,278.968 284.407,280.520 284.402 C 281.143 284.400,281.224 284.092,281.120 282.100 C 280.984 279.490,280.189 279.055,277.800 280.284 M288.738 280.429 C 283.397 283.138,282.374 300.377,287.304 304.596 C 291.879 308.512,299.290 306.158,300.198 300.500 L 300.470 298.800 298.043 298.800 C 295.778 298.800,295.598 298.868,295.361 299.814 C 294.313 303.989,289.200 301.508,289.200 296.824 L 289.200 295.223 294.700 295.111 L 300.200 295.000 300.319 292.022 C 300.712 282.186,295.520 276.988,288.738 280.429 M309.000 280.296 C 305.096 282.282,304.602 283.731,304.601 293.200 C 304.600 301.705,304.721 302.257,307.064 304.475 C 311.635 308.799,320.400 305.574,320.400 299.567 C 320.400 298.232,315.776 298.443,315.438 299.793 C 315.192 300.770,313.412 302.000,312.242 302.000 C 310.667 302.000,309.505 300.242,309.452 297.779 L 309.400 295.400 314.800 295.200 L 320.200 295.000 320.315 291.517 C 320.621 282.295,315.347 277.065,309.000 280.296 M85.294 293.100 L 85.400 305.800 87.900 305.919 L 90.400 306.038 90.400 293.219 L 90.400 280.400 87.794 280.400 L 85.189 280.400 85.294 293.100 M94.126 281.500 C 94.246 282.105,94.630 283.634,94.980 284.898 C 95.329 286.162,95.896 288.232,96.239 289.498 C 96.582 290.764,97.122 292.744,97.439 293.898 C 97.756 295.052,98.275 296.942,98.593 298.098 C 98.910 299.254,99.427 301.190,99.742 302.400 C 100.679 306.009,100.672 306.000,102.767 306.000 L 104.649 306.000 105.358 303.500 C 106.935 297.944,108.585 291.887,110.233 285.600 C 110.781 283.510,111.325 281.485,111.442 281.100 C 111.627 280.488,111.354 280.400,109.254 280.400 C 106.548 280.400,106.694 280.224,105.763 284.600 C 105.482 285.920,104.971 288.260,104.629 289.800 C 104.286 291.340,103.804 293.680,103.556 295.000 C 102.911 298.444,102.657 298.398,101.863 294.695 C 101.175 291.484,100.821 289.891,99.370 283.500 L 98.666 280.400 96.288 280.400 L 93.909 280.400 94.126 281.500 M125.085 285.600 C 125.362 286.150,125.591 287.643,125.594 288.918 L 125.600 291.235 122.700 291.118 L 119.800 291.000 119.679 288.892 C 119.450 284.904,123.494 282.441,125.085 285.600 M160.956 285.013 C 162.371 286.429,162.439 299.614,161.038 301.159 C 159.813 302.511,157.095 301.950,156.639 300.251 C 156.083 298.176,156.390 286.193,157.023 285.289 C 157.766 284.228,160.013 284.070,160.956 285.013 M180.800 285.200 C 182.099 286.499,182.022 300.059,180.711 300.977 C 179.573 301.774,178.229 301.772,177.429 300.971 C 176.469 300.012,176.498 286.196,177.462 285.131 C 178.331 284.171,179.802 284.202,180.800 285.200 M200.368 285.100 C 201.196 285.776,201.221 286.053,201.112 293.185 L 201.000 300.570 199.927 301.172 C 199.121 301.624,198.575 301.675,197.727 301.377 L 196.600 300.981 196.491 293.432 C 196.361 284.438,197.242 282.546,200.368 285.100 M294.558 285.154 C 295.084 285.734,295.213 286.494,295.120 288.454 L 295.000 291.000 292.200 291.000 L 289.400 291.000 289.446 288.713 C 289.523 284.807,292.420 282.791,294.558 285.154 M314.612 285.362 C 315.050 286.030,315.205 287.038,315.121 288.662 L 315.000 291.000 313.027 291.125 C 309.338 291.358,309.051 291.138,309.346 288.309 C 309.744 284.502,312.894 282.740,314.612 285.362 " stroke="none" fill="#f6f9f9" fill-rule="evenodd"></path><path id="path1" d="M23.200 166.200 L 23.200 322.000 196.800 322.000 L 370.400 322.000 370.400 166.200 L 370.400 10.400 196.800 10.400 L 23.200 10.400 23.200 166.200 M71.200 285.388 L 71.200 301.176 76.300 301.288 L 81.400 301.400 81.520 303.700 L 81.640 306.000 74.020 306.000 L 66.400 306.000 66.400 288.033 C 66.400 274.034,66.510 270.022,66.900 269.865 C 67.175 269.754,68.255 269.649,69.300 269.632 L 71.200 269.600 71.200 285.388 M216.000 285.000 C 216.212 301.115,216.222 301.200,217.981 301.200 C 219.301 301.200,219.600 301.760,219.600 304.233 L 219.600 306.000 217.214 306.000 C 211.561 306.000,211.205 304.780,211.202 285.367 C 211.200 268.449,211.023 269.520,213.785 269.682 L 215.800 269.800 216.000 285.000 M245.874 270.025 C 248.498 271.017,250.184 273.448,250.572 276.800 C 250.910 279.723,250.616 280.074,247.962 279.923 L 245.800 279.800 245.584 277.925 C 245.282 275.297,244.355 274.400,241.938 274.400 C 239.051 274.400,238.400 275.229,238.400 278.911 C 238.400 282.675,238.740 283.117,243.335 285.338 C 250.105 288.609,250.997 290.027,250.720 297.076 C 250.439 304.234,248.574 306.184,242.000 306.194 C 235.899 306.203,233.209 303.662,233.202 297.881 L 233.200 295.962 235.700 296.081 L 238.200 296.200 238.320 298.056 C 238.480 300.530,239.446 301.400,242.031 301.400 C 245.106 301.400,245.801 300.444,245.794 296.224 C 245.787 292.087,245.576 291.810,240.569 289.375 C 234.010 286.184,231.772 281.564,233.567 274.918 C 234.758 270.507,240.795 268.107,245.874 270.025 M90.400 272.400 L 90.400 274.800 87.800 274.800 L 85.200 274.800 85.200 273.033 C 85.200 270.189,85.377 270.000,88.043 270.000 L 90.400 270.000 90.400 272.400 M260.567 272.643 C 261.082 272.840,261.200 273.586,261.200 276.643 L 261.200 280.400 263.000 280.400 L 264.800 280.400 264.800 282.600 L 264.800 284.800 263.000 284.800 L 261.200 284.800 261.200 292.776 C 261.200 301.315,261.154 301.128,263.365 301.580 C 264.563 301.825,264.600 301.898,264.600 304.016 L 264.600 306.200 262.595 306.188 C 257.107 306.155,256.650 305.256,256.400 294.000 L 256.200 285.000 254.900 284.875 C 253.610 284.750,253.600 284.732,253.600 282.600 C 253.600 280.468,253.610 280.450,254.900 280.325 L 256.200 280.200 256.314 276.300 L 256.429 272.400 258.182 272.400 C 259.146 272.400,260.219 272.509,260.567 272.643 M330.400 276.400 L 330.600 280.200 332.300 280.323 L 334.000 280.446 334.000 282.600 L 334.000 284.754 332.300 284.877 L 330.600 285.000 330.491 292.491 C 330.371 300.739,330.609 301.600,333.000 301.600 C 333.958 301.600,334.000 301.703,334.000 304.057 L 334.000 306.514 331.537 306.257 C 326.257 305.705,325.600 304.221,325.600 292.854 L 325.600 284.800 324.200 284.800 L 322.800 284.800 322.800 282.600 L 322.800 280.400 324.200 280.400 L 325.600 280.400 325.600 276.667 C 325.600 272.293,325.577 272.329,328.185 272.482 L 330.200 272.600 330.400 276.400 M126.067 280.348 C 129.562 281.857,130.400 283.798,130.400 290.387 L 130.400 295.200 125.000 295.200 L 119.600 295.200 119.600 297.525 C 119.600 301.904,124.217 303.795,125.553 299.962 C 126.203 298.097,130.400 298.164,130.400 300.040 C 130.400 303.962,127.620 306.200,122.748 306.200 L 119.234 306.200 117.465 304.464 C 114.082 301.144,113.555 286.642,116.666 282.499 C 118.729 279.750,122.620 278.860,126.067 280.348 M147.200 281.936 L 147.200 284.273 145.071 284.749 C 140.648 285.739,140.405 286.412,140.402 297.719 L 140.400 306.038 137.900 305.919 L 135.400 305.800 135.294 293.100 L 135.189 280.400 137.794 280.400 C 140.257 280.400,140.400 280.451,140.400 281.333 C 140.400 282.708,140.752 282.837,141.863 281.868 C 145.277 278.889,147.200 278.914,147.200 281.936 M163.845 280.362 C 168.032 282.915,168.731 301.234,164.786 305.013 C 162.693 307.018,157.120 306.503,156.715 304.267 C 156.669 304.010,156.534 306.680,156.415 310.200 L 156.200 316.600 153.800 316.600 L 151.400 316.600 151.296 298.500 L 151.192 280.400 153.796 280.400 C 156.196 280.400,156.400 280.468,156.400 281.262 C 156.400 282.100,156.423 282.103,157.203 281.398 C 159.304 279.496,161.789 279.108,163.845 280.362 M182.690 280.392 C 186.343 282.157,186.904 284.042,186.730 293.956 C 186.552 304.135,185.580 305.908,179.957 306.310 C 176.588 306.551,174.107 305.510,172.715 303.272 C 171.238 300.896,171.304 284.870,172.800 282.672 C 174.758 279.795,179.290 278.750,182.690 280.392 M202.562 280.507 C 205.842 282.382,206.377 284.079,206.390 292.644 C 206.404 301.135,206.231 302.068,204.228 304.280 C 201.013 307.831,194.342 307.005,192.097 302.779 C 190.673 300.098,190.856 285.072,192.342 282.697 C 194.175 279.767,199.336 278.661,202.562 280.507 M281.120 282.100 C 281.224 284.092,281.143 284.400,280.520 284.402 C 278.968 284.407,276.697 285.303,275.479 286.391 L 274.200 287.533 274.073 296.785 L 273.946 306.037 271.473 305.918 L 269.000 305.800 268.894 293.100 L 268.789 280.400 271.394 280.400 C 273.857 280.400,274.000 280.451,274.000 281.333 C 274.000 282.758,274.443 282.905,275.572 281.856 C 278.805 278.852,280.956 278.947,281.120 282.100 M295.904 280.399 C 299.286 282.033,300.582 285.445,300.319 292.022 L 300.200 295.000 294.700 295.111 L 289.200 295.223 289.200 296.824 C 289.200 301.508,294.313 303.989,295.361 299.814 C 295.598 298.868,295.778 298.800,298.043 298.800 L 300.470 298.800 300.198 300.500 C 298.966 308.174,287.460 308.637,285.087 301.108 C 283.536 296.189,284.344 285.291,286.482 282.285 C 288.278 279.761,292.735 278.868,295.904 280.399 M315.825 280.363 C 319.192 281.996,320.521 285.297,320.315 291.517 L 320.200 295.000 314.800 295.200 L 309.400 295.400 309.452 297.779 C 309.505 300.242,310.667 302.000,312.242 302.000 C 313.412 302.000,315.192 300.770,315.438 299.793 C 315.776 298.443,320.400 298.232,320.400 299.567 C 320.400 307.050,309.043 309.026,305.264 302.200 C 304.145 300.177,304.295 285.975,305.459 283.800 C 307.495 279.995,311.990 278.505,315.825 280.363 M90.400 293.219 L 90.400 306.038 87.900 305.919 L 85.400 305.800 85.294 293.100 L 85.189 280.400 87.794 280.400 L 90.400 280.400 90.400 293.219 M99.370 283.500 C 100.821 289.891,101.175 291.484,101.863 294.695 C 102.657 298.398,102.911 298.444,103.556 295.000 C 103.804 293.680,104.286 291.340,104.629 289.800 C 104.971 288.260,105.482 285.920,105.763 284.600 C 106.694 280.224,106.548 280.400,109.254 280.400 C 111.354 280.400,111.627 280.488,111.442 281.100 C 111.325 281.485,110.781 283.510,110.233 285.600 C 108.585 291.887,106.935 297.944,105.358 303.500 L 104.649 306.000 102.767 306.000 C 100.672 306.000,100.679 306.009,99.742 302.400 C 99.427 301.190,98.910 299.254,98.593 298.098 C 98.275 296.942,97.756 295.052,97.439 293.898 C 97.122 292.744,96.582 290.764,96.239 289.498 C 95.896 288.232,95.329 286.162,94.980 284.898 C 94.630 283.634,94.246 282.105,94.126 281.500 L 93.909 280.400 96.288 280.400 L 98.666 280.400 99.370 283.500 M120.421 285.571 C 119.745 286.519,119.584 287.241,119.679 288.892 L 119.800 291.000 122.700 291.118 L 125.600 291.235 125.594 288.918 C 125.583 284.563,122.540 282.594,120.421 285.571 M157.023 285.289 C 156.390 286.193,156.083 298.176,156.639 300.251 C 157.095 301.950,159.813 302.511,161.038 301.159 C 162.439 299.614,162.371 286.429,160.956 285.013 C 160.013 284.070,157.766 284.228,157.023 285.289 M177.462 285.131 C 176.498 286.196,176.469 300.012,177.429 300.971 C 178.229 301.772,179.573 301.774,180.711 300.977 C 182.022 300.059,182.099 286.499,180.800 285.200 C 179.802 284.202,178.331 284.171,177.462 285.131 M197.053 285.141 C 196.466 285.790,196.396 286.829,196.491 293.432 L 196.600 300.981 197.727 301.377 C 198.575 301.675,199.121 301.624,199.927 301.172 L 201.000 300.570 201.112 293.185 C 201.221 286.053,201.196 285.776,200.368 285.100 C 199.257 284.192,197.897 284.209,197.053 285.141 M290.155 285.413 C 289.752 286.028,289.473 287.325,289.446 288.713 L 289.400 291.000 292.200 291.000 L 295.000 291.000 295.120 288.454 C 295.304 284.558,292.029 282.552,290.155 285.413 M310.263 285.130 C 309.886 285.547,309.492 286.913,309.346 288.309 C 309.051 291.138,309.338 291.358,313.027 291.125 L 315.000 291.000 315.121 288.662 C 315.320 284.831,312.433 282.733,310.263 285.130 M128.000 331.200 C 128.000 331.420,128.990 331.600,130.200 331.600 L 132.400 331.600 132.400 334.000 C 132.400 335.333,132.578 336.400,132.800 336.400 C 133.369 336.400,133.298 331.858,132.720 331.280 C 132.142 330.702,128.000 330.632,128.000 331.200 M176.800 346.000 C 176.800 355.867,176.940 361.200,177.200 361.200 C 177.460 361.200,177.600 355.867,177.600 346.000 C 177.600 336.133,177.460 330.800,177.200 330.800 C 176.940 330.800,176.800 336.133,176.800 346.000 M227.200 337.176 C 227.200 340.996,227.360 343.652,227.600 343.800 C 227.861 343.961,228.000 341.737,228.000 337.424 C 228.000 333.275,227.851 330.800,227.600 330.800 C 227.350 330.800,227.200 333.192,227.200 337.176 M257.599 331.300 C 257.598 331.665,258.354 331.764,260.399 331.667 C 264.039 331.495,264.040 330.800,260.400 330.800 C 258.427 330.800,257.600 330.948,257.599 331.300 M78.400 332.229 C 78.400 332.653,79.636 333.697,79.867 333.467 C 79.992 333.341,79.817 332.960,79.476 332.619 C 78.841 331.984,78.400 331.824,78.400 332.229 M72.400 335.200 C 72.400 335.420,72.760 335.600,73.200 335.600 C 73.640 335.600,74.000 335.420,74.000 335.200 C 74.000 334.980,73.640 334.800,73.200 334.800 C 72.760 334.800,72.400 334.980,72.400 335.200 M64.400 349.000 C 64.400 356.067,64.543 360.000,64.800 360.000 C 65.057 360.000,65.200 356.067,65.200 349.000 C 65.200 341.933,65.057 338.000,64.800 338.000 C 64.543 338.000,64.400 341.933,64.400 349.000 M76.400 340.200 C 76.400 340.970,76.580 341.600,76.800 341.600 C 77.020 341.600,77.200 340.970,77.200 340.200 C 77.200 339.430,77.020 338.800,76.800 338.800 C 76.580 338.800,76.400 339.430,76.400 340.200 M92.400 340.800 C 92.400 341.020,93.210 341.200,94.200 341.200 C 95.190 341.200,96.000 341.020,96.000 340.800 C 96.000 340.580,95.190 340.400,94.200 340.400 C 93.210 340.400,92.400 340.580,92.400 340.800 M116.000 340.800 C 116.000 341.020,116.540 341.200,117.200 341.200 C 117.860 341.200,118.400 341.020,118.400 340.800 C 118.400 340.580,117.860 340.400,117.200 340.400 C 116.540 340.400,116.000 340.580,116.000 340.800 M157.200 340.800 C 157.200 341.020,158.010 341.200,159.000 341.200 C 159.990 341.200,160.800 341.020,160.800 340.800 C 160.800 340.580,159.990 340.400,159.000 340.400 C 158.010 340.400,157.200 340.580,157.200 340.800 M221.200 340.800 C 221.200 341.020,221.740 341.200,222.400 341.200 C 223.060 341.200,223.600 341.020,223.600 340.800 C 223.600 340.580,223.060 340.400,222.400 340.400 C 221.740 340.400,221.200 340.580,221.200 340.800 M272.800 340.800 C 272.800 341.020,273.610 341.200,274.600 341.200 C 275.590 341.200,276.400 341.020,276.400 340.800 C 276.400 340.580,275.590 340.400,274.600 340.400 C 273.610 340.400,272.800 340.580,272.800 340.800 M292.000 340.800 C 292.000 341.020,292.810 341.200,293.800 341.200 C 294.790 341.200,295.600 341.020,295.600 340.800 C 295.600 340.580,294.790 340.400,293.800 340.400 C 292.810 340.400,292.000 340.580,292.000 340.800 M316.400 340.757 C 316.400 340.954,316.670 341.218,317.000 341.345 C 317.434 341.511,317.600 342.192,317.600 343.811 C 317.600 345.200,317.752 345.954,318.000 345.800 C 318.620 345.417,318.486 341.629,317.829 340.971 C 317.188 340.331,316.400 340.213,316.400 340.757 M326.800 340.800 C 326.800 341.020,327.610 341.200,328.600 341.200 C 329.590 341.200,330.400 341.020,330.400 340.800 C 330.400 340.580,329.590 340.400,328.600 340.400 C 327.610 340.400,326.800 340.580,326.800 340.800 M132.400 354.200 C 132.400 362.600,132.542 367.200,132.800 367.200 C 133.058 367.200,133.200 362.600,133.200 354.200 C 133.200 345.800,133.058 341.200,132.800 341.200 C 132.542 341.200,132.400 345.800,132.400 354.200 M135.600 343.600 C 135.600 344.933,135.778 346.000,136.000 346.000 C 136.222 346.000,136.400 344.933,136.400 343.600 C 136.400 342.267,136.222 341.200,136.000 341.200 C 135.778 341.200,135.600 342.267,135.600 343.600 M146.800 343.600 C 146.800 344.933,146.978 346.000,147.200 346.000 C 147.422 346.000,147.600 344.933,147.600 343.600 C 147.600 342.267,147.422 341.200,147.200 341.200 C 146.978 341.200,146.800 342.267,146.800 343.600 M99.675 342.825 C 99.771 343.114,100.086 343.429,100.375 343.525 C 100.675 343.625,100.825 343.475,100.725 343.175 C 100.629 342.886,100.314 342.571,100.025 342.475 C 99.725 342.375,99.575 342.525,99.675 342.825 M252.800 345.400 C 252.800 345.730,252.980 346.000,253.200 346.000 C 253.420 346.000,253.600 345.730,253.600 345.400 C 253.600 345.070,253.420 344.800,253.200 344.800 C 252.980 344.800,252.800 345.070,252.800 345.400 M161.260 346.380 C 161.348 346.644,161.551 346.847,161.710 346.830 C 162.188 346.781,162.096 346.232,161.580 346.060 C 161.316 345.972,161.172 346.116,161.260 346.380 M122.400 347.000 C 122.400 347.330,122.580 347.600,122.800 347.600 C 123.020 347.600,123.200 347.330,123.200 347.000 C 123.200 346.670,123.020 346.400,122.800 346.400 C 122.580 346.400,122.400 346.670,122.400 347.000 M216.400 354.200 C 216.400 358.600,216.549 361.200,216.800 361.200 C 217.051 361.200,217.200 358.600,217.200 354.200 C 217.200 349.800,217.051 347.200,216.800 347.200 C 216.549 347.200,216.400 349.800,216.400 354.200 M266.800 348.424 C 266.800 349.137,266.967 349.544,267.200 349.400 C 267.420 349.264,267.600 348.713,267.600 348.176 C 267.600 347.639,267.420 347.200,267.200 347.200 C 266.980 347.200,266.800 347.751,266.800 348.424 M290.667 347.467 C 290.228 347.905,290.355 360.725,290.800 361.000 C 291.061 361.161,291.200 358.804,291.200 354.224 C 291.200 350.361,291.140 347.200,291.067 347.200 C 290.993 347.200,290.813 347.320,290.667 347.467 M320.800 348.424 C 320.800 349.137,320.967 349.544,321.200 349.400 C 321.420 349.264,321.600 348.713,321.600 348.176 C 321.600 347.639,321.420 347.200,321.200 347.200 C 320.980 347.200,320.800 347.751,320.800 348.424 M227.200 354.200 C 227.200 358.067,227.351 360.400,227.600 360.400 C 227.849 360.400,228.000 358.067,228.000 354.200 C 228.000 350.333,227.849 348.000,227.600 348.000 C 227.351 348.000,227.200 350.333,227.200 354.200 M92.000 351.600 C 92.000 351.820,92.371 352.000,92.824 352.000 C 93.277 352.000,93.536 351.820,93.400 351.600 C 93.264 351.380,92.893 351.200,92.576 351.200 C 92.259 351.200,92.000 351.380,92.000 351.600 M157.200 351.600 C 157.200 351.820,157.470 352.000,157.800 352.000 C 158.130 352.000,158.400 351.820,158.400 351.600 C 158.400 351.380,158.130 351.200,157.800 351.200 C 157.470 351.200,157.200 351.380,157.200 351.600 M278.000 352.800 C 278.000 353.020,278.270 353.200,278.600 353.200 C 278.930 353.200,279.200 353.391,279.200 353.624 C 279.200 353.857,279.407 353.919,279.661 353.763 C 279.980 353.565,279.895 353.312,279.384 352.939 C 278.510 352.300,278.000 352.248,278.000 352.800 M331.603 352.700 C 331.608 353.195,333.578 353.959,333.824 353.561 C 333.947 353.362,333.576 353.019,332.998 352.799 C 331.740 352.321,331.599 352.311,331.603 352.700 M76.400 357.800 C 76.400 358.570,76.580 359.200,76.800 359.200 C 77.020 359.200,77.200 358.570,77.200 357.800 C 77.200 357.030,77.020 356.400,76.800 356.400 C 76.580 356.400,76.400 357.030,76.400 357.800 M282.267 358.667 C 281.845 359.088,281.956 361.200,282.400 361.200 C 282.620 361.200,282.800 360.570,282.800 359.800 C 282.800 358.361,282.727 358.206,282.267 358.667 M336.000 359.800 C 336.000 360.570,336.180 361.200,336.400 361.200 C 336.620 361.200,336.800 360.570,336.800 359.800 C 336.800 359.030,336.620 358.400,336.400 358.400 C 336.180 358.400,336.000 359.030,336.000 359.800 M199.200 359.200 C 199.200 359.438,200.725 359.600,202.976 359.600 C 205.063 359.600,206.863 359.421,207.000 359.200 C 207.159 358.943,205.804 358.800,203.224 358.800 C 200.808 358.800,199.200 358.960,199.200 359.200 M266.800 359.400 C 266.800 359.867,267.336 360.000,269.224 360.000 C 270.618 360.000,271.549 360.158,271.417 360.372 C 271.291 360.577,271.370 360.858,271.593 360.996 C 272.057 361.282,272.092 360.984,271.748 359.700 C 271.445 358.570,266.800 358.289,266.800 359.400 M320.800 359.380 C 320.800 359.872,321.302 360.000,323.233 360.000 C 326.465 360.000,326.325 359.052,323.068 358.880 C 321.235 358.783,320.800 358.879,320.800 359.380 M96.800 360.200 C 96.800 360.530,96.980 360.800,97.200 360.800 C 97.420 360.800,97.600 360.530,97.600 360.200 C 97.600 359.870,97.420 359.600,97.200 359.600 C 96.980 359.600,96.800 359.870,96.800 360.200 M122.200 360.800 C 121.908 361.272,122.287 362.000,122.824 362.000 C 123.031 362.000,123.200 361.640,123.200 361.200 C 123.200 360.356,122.618 360.124,122.200 360.800 M96.000 361.800 C 96.000 362.130,96.180 362.400,96.400 362.400 C 96.620 362.400,96.800 362.130,96.800 361.800 C 96.800 361.470,96.620 361.200,96.400 361.200 C 96.180 361.200,96.000 361.470,96.000 361.800 M86.000 362.600 C 86.000 362.930,86.180 363.200,86.400 363.200 C 86.620 363.200,86.800 362.930,86.800 362.600 C 86.800 362.270,86.620 362.000,86.400 362.000 C 86.180 362.000,86.000 362.270,86.000 362.600 M225.500 362.276 C 224.726 362.478,224.582 363.018,225.200 363.400 C 225.420 363.536,225.600 363.457,225.600 363.224 C 225.600 362.991,225.870 362.800,226.200 362.800 C 226.530 362.800,226.800 362.620,226.800 362.400 C 226.800 361.984,226.665 361.971,225.500 362.276 M146.800 364.776 C 146.800 366.125,146.977 367.200,147.200 367.200 C 147.420 367.200,147.600 366.221,147.600 365.024 C 147.600 363.827,147.420 362.736,147.200 362.600 C 146.950 362.446,146.800 363.263,146.800 364.776 M227.467 364.267 C 227.043 364.690,227.157 367.200,227.600 367.200 C 227.820 367.200,228.000 366.480,228.000 365.600 C 228.000 363.965,227.934 363.800,227.467 364.267 M287.275 365.225 C 287.371 365.514,287.686 365.829,287.975 365.925 C 288.275 366.025,288.425 365.875,288.325 365.575 C 288.229 365.286,287.914 364.971,287.625 364.875 C 287.325 364.775,287.175 364.925,287.275 365.225 M120.267 365.867 C 119.884 366.249,119.938 366.800,120.357 366.800 C 120.554 366.800,120.818 366.530,120.945 366.200 C 121.179 365.590,120.753 365.381,120.267 365.867 M221.200 367.600 C 221.200 367.820,221.740 368.000,222.400 368.000 C 223.060 368.000,223.600 367.820,223.600 367.600 C 223.600 367.380,223.060 367.200,222.400 367.200 C 221.740 367.200,221.200 367.380,221.200 367.600 " stroke="none" fill="#046464" fill-rule="evenodd"></path><path id="path2" d="M71.841 330.733 C 71.728 330.917,71.087 330.986,70.418 330.888 C 69.683 330.780,69.200 330.886,69.200 331.155 C 69.200 331.400,68.944 331.600,68.631 331.600 C 67.699 331.600,65.600 333.976,65.600 335.031 C 65.600 335.564,65.465 336.000,65.300 336.000 C 65.135 336.000,65.000 341.940,65.000 349.200 C 65.000 356.460,65.115 362.400,65.257 362.400 C 65.398 362.400,65.627 362.853,65.766 363.406 C 66.078 364.652,67.197 366.000,67.917 366.000 C 68.214 366.000,68.747 366.290,69.101 366.644 C 71.149 368.692,80.400 366.276,80.400 363.693 C 80.400 363.458,80.582 363.206,80.805 363.132 C 81.028 363.057,81.324 361.512,81.464 359.698 L 81.719 356.400 79.459 356.400 L 77.200 356.400 77.200 357.800 C 77.200 358.570,77.020 359.200,76.800 359.200 C 76.580 359.200,76.400 359.541,76.400 359.957 C 76.400 360.374,76.090 360.833,75.711 360.979 C 75.147 361.195,75.123 361.305,75.579 361.587 C 75.962 361.824,75.565 362.016,74.307 362.205 C 71.966 362.556,70.864 362.194,70.558 360.973 C 70.423 360.438,70.153 360.000,69.957 360.000 C 69.756 360.000,69.600 355.009,69.600 348.600 C 69.600 342.330,69.753 337.200,69.941 337.200 C 70.128 337.200,70.846 336.660,71.537 336.000 C 72.775 334.817,74.000 334.419,74.000 335.200 C 74.000 335.420,74.267 335.600,74.592 335.600 C 74.918 335.600,75.298 336.050,75.436 336.600 C 75.574 337.150,75.847 337.600,76.043 337.600 C 76.240 337.600,76.400 337.870,76.400 338.200 C 76.400 338.530,76.580 338.800,76.800 338.800 C 77.020 338.800,77.200 339.430,77.200 340.200 L 77.200 341.600 79.453 341.600 L 81.705 341.600 81.507 338.518 C 81.393 336.737,81.118 335.373,80.855 335.285 C 80.605 335.202,80.400 334.950,80.400 334.727 C 80.400 334.179,77.794 331.600,77.240 331.600 C 76.998 331.600,76.800 331.400,76.800 331.155 C 76.800 330.887,76.320 330.780,75.600 330.885 C 74.940 330.982,74.400 330.913,74.400 330.731 C 74.400 330.298,72.109 330.300,71.841 330.733 M172.000 346.600 C 172.000 360.644,172.069 362.400,172.624 362.400 C 172.967 362.400,173.133 362.584,172.994 362.810 C 172.461 363.672,173.246 365.596,174.232 365.844 C 174.764 365.977,175.200 366.268,175.200 366.490 C 175.200 366.712,175.650 366.807,176.200 366.702 C 176.750 366.597,177.200 366.666,177.200 366.855 C 177.200 367.045,177.920 367.200,178.800 367.200 L 180.400 367.200 180.400 364.750 L 180.400 362.300 179.222 362.536 C 178.283 362.723,177.994 362.612,177.795 361.986 C 177.658 361.553,177.378 361.200,177.173 361.200 C 176.949 361.200,176.800 355.134,176.800 346.000 L 176.800 330.800 174.400 330.800 L 172.000 330.800 172.000 346.600 M201.000 331.600 C 201.146 332.059,201.072 332.400,200.827 332.400 C 200.592 332.400,200.400 332.850,200.400 333.400 C 200.400 333.950,200.201 334.400,199.958 334.400 C 199.684 334.400,199.574 335.007,199.669 336.000 C 199.752 336.880,199.681 337.600,199.511 337.600 C 199.340 337.600,199.200 338.140,199.200 338.800 C 199.200 339.460,199.034 340.000,198.832 340.000 C 198.629 340.000,198.338 341.170,198.185 342.600 C 198.032 344.030,197.724 345.200,197.501 345.200 C 197.261 345.200,197.188 345.771,197.323 346.600 C 197.447 347.370,197.381 348.000,197.175 348.000 C 196.969 348.000,196.800 348.450,196.800 349.000 C 196.800 349.550,196.601 350.000,196.358 350.000 C 196.084 350.000,195.974 350.607,196.069 351.600 C 196.152 352.480,196.061 353.200,195.865 353.200 C 195.669 353.200,195.588 353.740,195.685 354.400 C 195.801 355.186,195.689 355.600,195.363 355.600 C 195.044 355.600,194.763 356.539,194.585 358.200 C 194.432 359.630,194.124 360.800,193.901 360.800 C 193.661 360.800,193.588 361.371,193.723 362.200 C 193.847 362.970,193.781 363.600,193.575 363.600 C 193.369 363.600,193.200 364.050,193.200 364.600 C 193.200 365.150,193.020 365.600,192.800 365.600 C 192.580 365.600,192.400 365.960,192.400 366.400 C 192.400 367.122,192.667 367.200,195.150 367.200 L 197.900 367.200 198.150 365.950 C 198.288 365.263,198.400 364.093,198.400 363.350 C 198.400 362.608,198.580 362.000,198.800 362.000 C 199.020 362.000,199.200 361.280,199.200 360.400 L 199.200 358.800 203.187 358.800 C 206.568 358.800,207.140 358.891,206.945 359.400 C 206.818 359.730,206.893 360.000,207.110 360.000 C 207.328 360.000,207.635 361.381,207.794 363.069 C 207.952 364.757,208.320 366.377,208.612 366.669 C 209.393 367.450,213.048 367.372,213.357 366.567 C 213.711 365.644,213.654 364.400,213.257 364.400 C 213.068 364.400,212.797 363.275,212.653 361.900 C 212.510 360.525,212.214 359.340,211.996 359.267 C 211.778 359.193,211.600 358.608,211.600 357.967 C 211.600 357.325,211.460 356.800,211.289 356.800 C 211.119 356.800,211.048 356.080,211.131 355.200 C 211.226 354.207,211.116 353.600,210.842 353.600 C 210.599 353.600,210.400 353.150,210.400 352.600 C 210.400 352.050,210.231 351.600,210.025 351.600 C 209.819 351.600,209.753 350.970,209.877 350.200 C 210.012 349.371,209.939 348.800,209.699 348.800 C 209.476 348.800,209.168 347.630,209.015 346.200 C 208.862 344.770,208.571 343.600,208.368 343.600 C 208.166 343.600,208.000 343.060,208.000 342.400 C 208.000 341.740,207.860 341.200,207.689 341.200 C 207.519 341.200,207.448 340.480,207.531 339.600 C 207.626 338.607,207.516 338.000,207.242 338.000 C 206.999 338.000,206.800 337.550,206.800 337.000 C 206.800 336.450,206.631 336.000,206.425 336.000 C 206.217 336.000,206.156 335.349,206.288 334.538 C 206.458 333.487,206.395 333.156,206.062 333.361 C 205.746 333.557,205.600 333.199,205.600 332.224 L 205.600 330.800 203.173 330.800 C 200.928 330.800,200.765 330.860,201.000 331.600 M228.000 337.473 L 228.000 344.145 226.690 342.673 C 224.867 340.624,219.185 340.537,218.558 342.548 C 218.412 343.016,218.091 343.528,217.846 343.685 C 217.251 344.065,216.977 363.600,217.568 363.600 C 217.792 363.600,217.871 363.870,217.745 364.200 C 217.618 364.530,217.694 364.800,217.914 364.800 C 218.134 364.800,218.429 365.260,218.570 365.823 C 218.769 366.616,219.003 366.789,219.613 366.596 C 220.060 366.454,220.400 366.531,220.400 366.773 C 220.400 368.688,226.421 366.823,227.416 364.600 C 227.707 363.948,227.799 364.114,227.910 365.500 L 228.046 367.200 230.423 367.200 L 232.800 367.200 232.800 349.000 L 232.800 330.800 230.400 330.800 L 228.000 330.800 228.000 337.473 M128.000 334.000 L 128.000 336.400 130.200 336.400 L 132.400 336.400 132.400 334.000 L 132.400 331.600 130.200 331.600 L 128.000 331.600 128.000 334.000 M257.762 332.154 C 257.645 332.459,257.606 333.494,257.675 334.454 L 257.800 336.200 260.500 336.318 L 263.200 336.437 263.200 334.018 L 263.200 331.600 260.587 331.600 C 258.730 331.600,257.913 331.760,257.762 332.154 M138.800 337.600 L 138.800 341.200 137.600 341.200 L 136.400 341.200 136.400 343.600 C 136.400 345.988,136.406 346.000,137.573 346.000 L 138.746 346.000 138.873 355.132 L 139.000 364.263 140.354 365.616 C 141.553 366.814,141.999 366.987,144.254 367.131 L 146.800 367.293 146.800 364.847 C 146.800 362.686,146.709 362.400,146.019 362.400 C 143.426 362.400,143.400 362.312,143.400 353.642 L 143.400 345.721 145.100 345.912 L 146.800 346.104 146.800 343.652 L 146.800 341.200 145.200 341.200 L 143.600 341.200 143.600 337.600 L 143.600 334.000 141.200 334.000 L 138.800 334.000 138.800 337.600 M203.200 340.600 C 203.200 341.150,203.380 341.600,203.600 341.600 C 203.820 341.600,204.000 342.230,204.000 343.000 C 204.000 343.770,204.169 344.400,204.375 344.400 C 204.581 344.400,204.647 345.030,204.523 345.800 C 204.375 346.709,204.454 347.200,204.748 347.200 C 205.009 347.200,205.200 347.877,205.200 348.800 C 205.200 349.680,205.335 350.400,205.500 350.400 C 205.665 350.400,205.736 351.322,205.658 352.449 C 205.559 353.873,205.651 354.416,205.958 354.226 C 206.201 354.076,206.400 354.188,206.401 354.476 C 206.402 354.873,205.673 354.968,203.393 354.868 L 200.384 354.736 200.652 352.068 C 200.799 350.601,201.099 349.283,201.318 349.140 C 201.538 348.997,201.613 348.233,201.484 347.440 C 201.355 346.645,201.418 346.000,201.625 346.000 C 201.831 346.000,202.000 345.460,202.000 344.800 C 202.000 344.140,202.197 343.600,202.439 343.600 C 202.717 343.600,202.827 342.868,202.739 341.600 C 202.662 340.500,202.735 339.600,202.900 339.600 C 203.065 339.600,203.200 340.050,203.200 340.600 M90.295 341.477 C 89.907 341.578,89.693 341.827,89.819 342.030 C 89.944 342.234,89.677 342.400,89.224 342.400 C 88.771 342.400,88.400 342.651,88.400 342.957 C 88.400 343.264,88.130 343.618,87.800 343.745 C 87.470 343.871,87.200 344.431,87.200 344.987 C 87.200 345.544,87.008 346.000,86.773 346.000 C 86.539 346.000,86.404 346.495,86.473 347.100 C 86.645 348.591,91.200 349.092,91.200 347.620 C 91.200 347.169,91.377 346.800,91.592 346.800 C 91.808 346.800,92.088 346.387,92.215 345.883 C 92.490 344.787,95.000 344.836,95.926 345.955 C 96.219 346.310,96.345 346.375,96.206 346.100 C 96.067 345.825,96.120 345.600,96.324 345.600 C 96.731 345.600,97.189 347.856,97.196 349.900 C 97.200 351.196,97.194 351.200,95.176 351.200 C 93.765 351.200,93.238 351.338,93.434 351.655 C 93.635 351.980,93.314 352.035,92.317 351.848 C 90.457 351.499,87.200 353.308,87.200 354.689 C 87.200 354.970,86.996 355.200,86.748 355.200 C 86.454 355.200,86.375 355.691,86.523 356.600 C 86.647 357.370,86.581 358.000,86.375 358.000 C 86.169 358.000,86.000 358.900,86.000 360.000 C 86.000 361.197,86.178 362.000,86.443 362.000 C 86.717 362.000,86.790 362.384,86.636 363.000 C 86.491 363.577,86.557 364.000,86.792 364.000 C 87.017 364.000,87.200 364.320,87.200 364.711 C 87.200 367.018,94.299 368.321,96.130 366.350 L 97.000 365.413 97.128 366.306 C 97.244 367.116,97.478 367.200,99.628 367.200 L 102.000 367.200 102.000 356.800 C 102.000 351.080,101.851 346.400,101.669 346.400 C 101.487 346.400,101.415 345.878,101.509 345.240 C 101.644 344.320,101.500 344.022,100.815 343.805 C 100.340 343.654,99.760 343.111,99.527 342.599 C 98.942 341.315,93.466 340.649,90.295 341.477 M106.800 359.400 L 106.800 377.600 109.590 377.600 L 112.379 377.600 112.490 371.500 L 112.600 365.400 113.389 366.300 C 115.895 369.159,122.140 366.418,122.216 362.425 C 122.234 361.438,122.460 360.580,122.725 360.492 C 123.292 360.303,123.415 347.600,122.850 347.600 C 122.657 347.600,122.419 346.631,122.320 345.447 C 122.051 342.200,120.806 341.200,117.030 341.200 C 114.572 341.200,114.069 341.324,113.389 342.100 L 112.601 343.000 112.473 342.100 C 112.354 341.266,112.142 341.200,109.572 341.200 L 106.800 341.200 106.800 359.400 M128.000 354.200 L 128.000 367.200 130.200 367.200 L 132.400 367.200 132.400 354.200 L 132.400 341.200 130.200 341.200 L 128.000 341.200 128.000 354.200 M155.044 341.470 C 154.104 341.731,152.400 343.529,152.400 344.258 C 152.400 344.556,152.220 344.800,152.000 344.800 C 151.555 344.800,151.483 346.121,151.852 347.500 C 152.198 348.790,156.400 348.882,156.400 347.600 C 156.400 346.337,157.822 345.200,159.400 345.200 C 160.170 345.200,160.800 345.359,160.800 345.553 C 160.800 345.748,161.115 345.989,161.500 346.089 C 162.091 346.243,162.179 346.656,162.064 348.736 L 161.929 351.200 160.164 351.200 C 159.194 351.200,158.400 351.377,158.400 351.592 C 158.400 351.826,157.688 351.887,156.642 351.744 C 155.087 351.531,154.853 351.602,154.612 352.362 C 154.452 352.868,154.064 353.176,153.670 353.111 C 153.235 353.039,153.039 353.235,153.111 353.670 C 153.175 354.061,152.870 354.451,152.377 354.607 C 151.721 354.815,151.586 355.091,151.774 355.838 C 151.910 356.383,151.838 356.800,151.608 356.800 C 151.166 356.800,151.044 362.375,151.452 363.900 C 151.585 364.395,151.937 364.800,152.234 364.800 C 152.550 364.800,152.679 365.049,152.545 365.400 C 152.403 365.769,152.545 366.000,152.914 366.000 C 153.244 366.000,153.618 366.270,153.745 366.600 C 154.011 367.293,160.000 367.496,160.000 366.813 C 160.000 366.599,160.270 366.529,160.600 366.655 C 160.930 366.782,161.200 366.686,161.200 366.443 C 161.200 366.199,161.380 366.000,161.600 366.000 C 161.820 366.000,162.000 366.270,162.000 366.600 C 162.000 367.067,162.533 367.200,164.400 367.200 L 166.800 367.200 166.800 356.200 C 166.800 349.133,166.657 345.200,166.400 345.200 C 166.180 345.200,166.000 344.866,166.000 344.458 C 166.000 341.984,159.531 340.219,155.044 341.470 M236.598 342.500 C 236.742 343.215,237.151 344.430,237.506 345.200 C 237.862 345.970,238.105 347.095,238.046 347.700 C 237.988 348.305,238.110 348.800,238.318 348.800 C 238.527 348.800,238.816 349.700,238.962 350.800 C 239.108 351.900,239.384 352.800,239.575 352.800 C 239.765 352.800,240.047 353.880,240.200 355.200 C 240.353 356.520,240.641 357.600,240.839 357.600 C 241.038 357.600,241.200 357.949,241.200 358.376 C 241.200 358.803,241.350 359.245,241.533 359.359 C 241.717 359.472,241.786 360.113,241.688 360.782 C 241.590 361.452,241.686 362.000,241.903 362.000 C 242.120 362.000,242.416 362.900,242.562 364.000 C 242.708 365.100,243.001 366.000,243.214 366.000 C 243.426 366.000,243.600 366.270,243.600 366.600 C 243.600 367.053,244.089 367.200,245.600 367.200 C 247.556 367.200,247.600 367.173,247.600 366.000 C 247.600 365.340,247.774 364.800,247.986 364.800 C 248.199 364.800,248.492 363.900,248.638 362.800 C 248.784 361.700,249.080 360.800,249.297 360.800 C 249.514 360.800,249.612 360.260,249.515 359.600 C 249.418 358.940,249.474 358.400,249.640 358.400 C 249.807 358.400,250.066 357.410,250.217 356.200 C 250.368 354.990,250.628 354.000,250.795 354.000 C 250.961 354.000,251.216 353.100,251.362 352.000 C 251.508 350.900,251.784 350.000,251.975 350.000 C 252.165 350.000,252.451 348.875,252.609 347.500 C 252.767 346.125,253.068 344.891,253.278 344.758 C 253.489 344.624,253.761 343.769,253.883 342.858 L 254.105 341.200 251.853 341.200 C 250.117 341.200,249.600 341.338,249.600 341.800 C 249.600 342.130,249.406 342.400,249.169 342.400 C 248.922 342.400,248.789 342.987,248.857 343.779 C 248.923 344.537,248.847 345.287,248.688 345.445 C 248.530 345.604,248.400 346.333,248.400 347.067 C 248.400 347.800,248.234 348.400,248.032 348.400 C 247.829 348.400,247.538 349.570,247.385 351.000 C 247.232 352.430,246.959 353.600,246.778 353.600 C 246.597 353.600,246.324 354.860,246.173 356.400 C 245.841 359.760,245.358 360.005,244.983 357.005 C 244.832 355.797,244.549 354.908,244.354 355.028 C 244.160 355.149,243.998 354.652,243.996 353.924 C 243.988 351.725,243.523 349.600,243.048 349.596 C 242.770 349.594,242.570 348.571,242.521 346.903 C 242.478 345.424,242.253 344.151,242.021 344.074 C 241.789 343.996,241.600 343.318,241.600 342.567 L 241.600 341.200 238.968 341.200 L 236.336 341.200 236.598 342.500 M257.600 354.200 L 257.600 367.200 260.400 367.200 L 263.200 367.200 263.200 354.200 L 263.200 341.200 260.400 341.200 L 257.600 341.200 257.600 354.200 M270.428 341.471 C 269.571 341.836,268.000 343.640,268.000 344.258 C 268.000 344.556,267.847 344.800,267.660 344.800 C 267.473 344.800,267.320 346.330,267.320 348.200 C 267.320 350.070,267.473 351.600,267.660 351.600 C 267.847 351.600,268.000 351.844,268.000 352.142 C 268.000 353.011,269.967 354.898,270.615 354.650 C 270.937 354.526,271.200 354.599,271.200 354.813 C 271.200 355.026,271.393 355.200,271.629 355.200 C 271.864 355.200,272.327 355.470,272.657 355.800 C 272.987 356.130,273.694 356.400,274.229 356.400 C 274.763 356.400,275.200 356.580,275.200 356.800 C 275.200 357.020,275.430 357.200,275.711 357.200 C 276.565 357.200,277.600 358.737,277.600 360.005 C 277.600 360.662,277.408 361.200,277.173 361.200 C 276.921 361.200,276.856 361.545,277.013 362.039 C 277.239 362.754,277.154 362.839,276.439 362.613 C 275.945 362.456,275.600 362.521,275.600 362.773 C 275.600 363.008,275.140 363.200,274.577 363.200 C 273.513 363.200,271.058 360.954,271.442 360.331 C 271.555 360.149,270.557 360.000,269.224 360.000 C 266.975 360.000,266.800 360.065,266.805 360.900 C 266.815 362.416,267.266 363.600,267.834 363.600 C 268.132 363.600,268.284 363.837,268.173 364.126 C 268.062 364.415,268.461 365.180,269.059 365.826 C 270.237 367.098,278.386 367.688,279.114 366.554 C 279.271 366.309,279.818 365.977,280.329 365.818 C 280.896 365.641,281.175 365.312,281.046 364.975 C 280.929 364.671,281.151 364.192,281.538 363.911 C 282.302 363.357,282.688 356.000,281.953 356.000 C 281.759 356.000,281.600 355.743,281.600 355.429 C 281.600 354.604,280.392 353.518,279.748 353.764 C 279.447 353.880,279.200 353.801,279.200 353.587 C 279.200 353.374,278.930 353.200,278.600 353.200 C 278.270 353.200,278.000 353.020,278.000 352.800 C 278.000 352.580,277.730 352.400,277.400 352.400 C 277.070 352.400,276.800 352.236,276.800 352.035 C 276.800 351.834,276.042 351.542,275.115 351.386 C 272.403 350.927,272.000 350.503,272.000 348.104 C 272.000 346.500,272.143 346.000,272.600 346.000 C 272.930 346.000,273.200 345.820,273.200 345.600 C 273.200 345.047,274.826 345.099,276.083 345.692 C 276.836 346.047,277.108 346.464,277.063 347.192 C 277.003 348.150,277.118 348.206,279.351 348.321 L 281.703 348.443 281.522 346.261 C 281.213 342.538,279.706 341.424,274.832 341.314 C 272.724 341.266,270.742 341.337,270.428 341.471 M289.359 341.764 C 289.224 342.114,288.757 342.400,288.320 342.400 C 287.862 342.400,287.437 342.739,287.316 343.200 C 287.201 343.640,286.927 344.000,286.707 344.000 C 286.487 344.000,286.393 344.450,286.498 345.000 C 286.603 345.550,286.519 346.000,286.311 346.000 C 285.655 346.000,286.088 364.097,286.750 364.317 C 287.458 364.552,288.647 365.742,288.883 366.450 C 289.120 367.161,297.072 367.249,297.515 366.546 C 297.672 366.297,298.158 366.025,298.595 365.942 C 299.033 365.859,299.457 365.446,299.539 365.024 C 299.620 364.602,299.948 363.994,300.269 363.674 C 300.754 363.189,300.830 361.500,300.726 353.614 L 300.600 344.137 299.232 342.768 C 297.606 341.143,289.898 340.358,289.359 341.764 M305.600 354.200 L 305.600 367.200 308.380 367.200 L 311.160 367.200 311.280 357.699 C 311.405 347.792,311.687 346.400,313.567 346.400 C 313.768 346.400,314.024 346.175,314.135 345.900 C 314.246 345.625,314.351 345.585,314.368 345.811 C 314.387 346.046,315.090 346.155,316.019 346.067 L 317.637 345.912 317.519 343.656 C 317.402 341.431,317.382 341.398,316.100 341.275 C 315.385 341.206,314.800 341.335,314.800 341.562 C 314.800 341.789,314.553 341.880,314.252 341.764 C 313.950 341.649,313.596 341.834,313.464 342.177 C 313.333 342.520,312.874 342.800,312.446 342.800 C 312.017 342.800,311.576 343.025,311.465 343.300 C 311.354 343.575,311.249 343.215,311.232 342.500 L 311.200 341.200 308.400 341.200 L 305.600 341.200 305.600 354.200 M324.428 341.471 C 323.571 341.836,322.000 343.640,322.000 344.258 C 322.000 344.556,321.847 344.800,321.660 344.800 C 321.473 344.800,321.320 346.330,321.320 348.200 C 321.320 350.070,321.473 351.600,321.660 351.600 C 321.847 351.600,322.000 351.844,322.000 352.142 C 322.000 353.000,323.739 354.648,324.971 354.957 C 325.590 355.112,326.358 355.501,326.677 355.820 C 326.996 356.139,327.694 356.400,328.229 356.400 C 328.763 356.400,329.200 356.580,329.200 356.800 C 329.200 357.020,329.430 357.200,329.711 357.200 C 331.092 357.200,332.310 360.714,331.173 361.417 C 330.938 361.562,330.850 361.953,330.977 362.285 C 331.137 362.701,331.025 362.818,330.617 362.662 C 330.292 362.537,329.919 362.607,329.789 362.817 C 329.659 363.028,328.978 363.197,328.276 363.194 C 327.305 363.189,327.143 363.095,327.600 362.800 C 328.125 362.461,328.120 362.411,327.561 362.406 C 326.436 362.395,324.920 360.822,325.613 360.384 C 326.008 360.134,325.298 360.010,323.447 360.006 L 320.695 360.000 320.922 361.691 C 321.046 362.622,321.340 363.447,321.574 363.525 C 321.808 363.603,322.000 363.895,322.000 364.175 C 322.000 366.475,331.814 368.575,333.113 366.554 C 333.271 366.309,333.813 365.979,334.317 365.822 C 334.977 365.616,335.168 365.329,335.000 364.800 C 334.842 364.302,335.007 363.988,335.511 363.828 C 336.294 363.580,336.698 356.000,335.927 356.000 C 335.747 356.000,335.600 355.770,335.600 355.489 C 335.600 354.931,334.174 353.564,333.697 353.665 C 333.175 353.774,331.820 353.078,331.200 352.381 C 330.869 352.011,329.969 351.583,329.200 351.430 C 326.380 350.872,326.000 350.481,326.000 348.132 C 326.000 346.504,326.142 346.000,326.600 346.000 C 326.930 346.000,327.200 345.820,327.200 345.600 C 327.200 345.380,327.740 345.200,328.400 345.200 C 329.060 345.200,329.600 345.359,329.600 345.553 C 329.600 345.748,329.939 345.995,330.354 346.104 C 330.924 346.253,331.059 346.558,330.907 347.351 C 330.708 348.392,330.725 348.400,333.203 348.400 L 335.699 348.400 335.520 346.240 C 335.213 342.541,333.696 341.423,328.832 341.314 C 326.724 341.266,324.742 341.337,324.428 341.471 M116.000 345.587 C 116.000 345.801,116.246 345.881,116.546 345.766 C 118.076 345.178,118.145 360.496,116.619 362.142 C 113.781 365.204,112.400 362.732,112.400 354.592 C 112.400 347.908,112.624 345.600,113.274 345.600 C 113.479 345.600,113.540 345.825,113.409 346.100 C 113.278 346.375,113.401 346.285,113.683 345.900 C 114.223 345.163,116.000 344.924,116.000 345.587 M225.600 345.600 C 225.600 345.820,225.850 346.000,226.157 346.000 C 226.463 346.000,226.826 346.450,226.964 347.000 C 227.102 347.550,227.392 348.000,227.608 348.000 C 228.306 348.000,228.110 359.947,227.400 360.657 C 227.070 360.987,226.800 361.604,226.800 362.029 C 226.800 362.453,226.530 362.800,226.200 362.800 C 225.870 362.800,225.600 362.955,225.600 363.145 C 225.600 363.334,225.133 363.400,224.563 363.291 C 223.912 363.166,223.703 362.984,224.001 362.799 C 224.304 362.612,224.103 362.412,223.444 362.247 C 222.103 361.910,222.032 361.510,221.906 353.518 C 221.801 346.928,221.812 346.830,222.700 346.427 C 223.195 346.201,223.600 345.833,223.600 345.609 C 223.600 345.384,224.050 345.200,224.600 345.200 C 225.150 345.200,225.600 345.380,225.600 345.600 M295.281 346.418 L 296.200 346.836 296.000 354.233 C 295.787 362.108,295.711 362.380,293.733 362.394 C 293.256 362.397,292.626 362.490,292.333 362.601 C 290.346 363.349,289.320 348.910,291.216 346.875 C 292.101 345.925,293.781 345.736,295.281 346.418 M97.300 358.333 C 97.406 359.580,97.337 360.660,97.147 360.733 C 96.956 360.807,96.800 361.212,96.800 361.633 C 96.800 362.184,96.519 362.400,95.800 362.400 C 95.250 362.400,94.800 362.580,94.800 362.800 C 94.800 363.020,94.260 363.200,93.600 363.200 C 92.940 363.200,92.400 363.026,92.400 362.813 C 92.400 362.599,92.130 362.529,91.800 362.655 C 91.420 362.801,91.200 362.650,91.200 362.243 C 91.200 361.889,91.047 361.600,90.860 361.600 C 90.312 361.600,91.094 357.649,91.777 356.966 C 92.120 356.623,92.400 356.221,92.399 356.071 C 92.399 355.922,93.458 355.860,94.752 355.933 L 97.106 356.066 97.300 358.333 M161.987 358.500 C 161.967 362.472,159.685 364.322,156.986 362.554 C 156.171 362.020,156.001 361.586,156.005 360.054 C 156.016 356.372,156.255 356.127,159.900 356.046 L 162.000 356.000 161.987 358.500 " stroke="none" fill="#042464" fill-rule="evenodd"></path></g></svg>