<svg id="svg" version="1.1" xmlns="http://www.w3.org/2000/svg" xmlns:xlink="http://www.w3.org/1999/xlink" width="400" height="159.47448206164728" viewBox="0, 0, 400,159.47448206164728"><g id="svgg"><path id="path0" d="M251.625 10.278 C 251.281 10.320,251.000 10.424,251.000 10.510 C 251.000 10.596,250.858 10.667,250.684 10.667 C 250.234 10.667,248.167 11.323,248.167 11.466 C 248.167 11.532,247.950 11.681,247.684 11.799 C 247.419 11.916,247.013 12.178,246.782 12.381 C 245.739 13.296,245.567 13.460,245.304 13.791 C 245.150 13.984,244.850 14.467,244.637 14.863 C 244.424 15.258,244.197 15.622,244.132 15.671 C 243.951 15.809,243.503 17.638,243.389 18.708 C 243.332 19.235,243.222 19.667,243.143 19.667 C 243.064 19.667,243.000 21.017,243.000 22.667 C 243.000 24.556,243.062 25.667,243.167 25.667 C 243.258 25.667,243.336 25.948,243.339 26.292 C 243.353 27.753,244.381 30.555,245.219 31.415 C 245.328 31.526,245.706 31.966,246.059 32.392 C 246.412 32.818,246.798 33.167,246.916 33.167 C 247.034 33.167,247.174 33.279,247.227 33.417 C 247.280 33.555,247.588 33.793,247.912 33.948 C 248.235 34.102,248.500 34.283,248.500 34.349 C 248.500 34.416,248.856 34.641,249.292 34.849 C 249.727 35.057,250.122 35.282,250.168 35.350 C 250.215 35.418,250.664 35.635,251.167 35.833 C 251.669 36.031,252.118 36.244,252.165 36.305 C 252.265 36.436,253.253 36.830,253.792 36.953 C 253.998 37.000,254.167 37.096,254.167 37.166 C 254.167 37.236,254.617 37.461,255.167 37.667 C 255.717 37.872,256.167 38.093,256.167 38.156 C 256.167 38.220,256.410 38.390,256.708 38.534 C 257.525 38.930,258.400 39.747,259.111 40.779 L 259.750 41.706 259.805 44.895 C 259.866 48.403,259.765 49.711,259.405 50.072 C 259.274 50.202,259.167 50.390,259.167 50.488 C 259.167 50.852,257.957 51.988,257.364 52.182 C 257.026 52.292,256.702 52.456,256.643 52.547 C 256.504 52.761,253.342 52.778,253.195 52.565 C 253.134 52.476,252.757 52.298,252.359 52.169 C 251.234 51.807,250.000 50.313,250.000 49.314 C 250.000 49.141,249.925 49.000,249.833 49.000 C 249.732 49.000,249.667 48.278,249.667 47.167 L 249.667 45.333 246.333 45.333 L 243.000 45.333 243.000 47.583 C 243.000 48.972,243.064 49.833,243.167 49.833 C 243.258 49.833,243.334 50.077,243.336 50.375 C 243.342 51.736,244.664 55.167,245.182 55.167 C 245.265 55.167,245.333 55.270,245.333 55.396 C 245.333 55.602,245.702 55.959,247.227 57.229 C 247.489 57.447,247.995 57.722,248.352 57.839 C 248.708 57.957,249.000 58.107,249.000 58.173 C 249.000 58.389,251.221 58.857,252.708 58.954 C 253.510 59.007,254.167 59.113,254.167 59.191 C 254.167 59.376,255.454 59.377,255.568 59.192 C 255.616 59.114,256.314 59.005,257.119 58.950 C 258.537 58.852,260.480 58.441,260.661 58.201 C 260.710 58.136,261.102 57.918,261.531 57.715 C 263.485 56.796,265.833 53.847,265.833 52.313 C 265.833 52.141,265.899 52.000,265.980 52.000 C 266.640 52.000,266.688 39.803,266.029 39.341 C 265.958 39.291,265.803 38.912,265.683 38.500 C 265.238 36.962,263.311 34.630,261.809 33.812 C 261.410 33.595,261.046 33.375,261.000 33.324 C 260.851 33.158,257.725 31.667,257.527 31.667 C 257.420 31.667,257.333 31.600,257.333 31.518 C 257.333 31.436,257.130 31.318,256.880 31.256 C 256.631 31.193,255.802 30.848,255.037 30.488 C 254.273 30.128,253.580 29.833,253.498 29.833 C 253.417 29.833,253.290 29.739,253.217 29.625 C 253.143 29.510,252.896 29.318,252.667 29.199 C 251.812 28.752,250.168 26.986,250.166 26.512 C 250.165 26.368,250.053 26.035,249.916 25.773 C 249.631 25.226,249.552 20.714,249.819 20.206 C 249.902 20.047,250.097 19.556,250.253 19.115 C 250.898 17.285,253.136 16.323,255.878 16.698 C 256.820 16.827,257.325 17.069,258.340 17.878 C 258.606 18.090,259.167 19.170,259.167 19.470 C 259.167 19.563,259.257 19.669,259.368 19.706 C 259.507 19.752,259.590 20.454,259.638 21.970 L 259.706 24.167 263.043 24.167 L 266.380 24.167 266.297 21.420 C 266.251 19.910,266.138 18.578,266.045 18.462 C 265.953 18.345,265.824 17.950,265.760 17.583 C 265.620 16.784,265.189 15.457,265.030 15.336 C 264.968 15.289,264.773 14.993,264.598 14.679 C 263.944 13.506,262.654 12.210,261.736 11.803 C 261.469 11.684,261.152 11.493,261.031 11.379 C 260.911 11.264,260.386 11.054,259.865 10.911 C 259.343 10.769,258.767 10.566,258.583 10.461 C 258.246 10.267,252.886 10.127,251.625 10.278 M24.333 34.667 L 24.333 58.667 34.417 58.667 L 44.500 58.667 44.500 55.500 L 44.500 52.333 37.667 52.333 L 30.833 52.333 30.833 31.500 L 30.833 10.667 27.583 10.667 L 24.333 10.667 24.333 34.667 M214.168 30.375 C 214.169 48.948,214.251 52.887,214.639 53.160 C 214.709 53.210,214.894 53.651,215.049 54.142 C 215.514 55.608,216.999 57.281,218.265 57.764 C 218.669 57.919,219.000 58.102,219.000 58.172 C 219.000 58.417,221.132 58.667,223.226 58.667 L 225.341 58.667 225.295 55.542 L 225.250 52.417 223.717 52.331 C 220.598 52.158,220.835 53.969,220.834 30.375 L 220.833 10.667 217.500 10.667 L 214.167 10.667 214.168 30.375 M49.500 14.330 L 49.500 17.667 52.747 17.667 C 56.609 17.667,56.198 18.113,56.131 14.000 L 56.083 11.083 52.792 11.038 L 49.500 10.993 49.500 14.330 M273.500 19.417 L 273.500 24.333 271.833 24.333 L 270.167 24.333 270.167 27.500 L 270.167 30.667 271.833 30.667 L 273.500 30.667 273.500 40.240 C 273.500 46.443,273.559 49.850,273.667 49.917 C 273.758 49.973,273.833 50.459,273.833 50.995 C 273.833 52.053,274.250 54.502,274.456 54.655 C 274.526 54.707,274.771 55.122,275.000 55.577 C 275.487 56.545,276.344 57.416,277.167 57.780 C 277.487 57.921,277.787 58.088,277.833 58.150 C 278.088 58.496,279.542 58.703,282.292 58.786 L 285.333 58.878 285.333 55.772 L 285.333 52.667 283.667 52.667 C 282.750 52.667,282.000 52.606,282.000 52.531 C 282.000 52.456,281.738 52.270,281.417 52.117 C 280.946 51.893,280.795 51.693,280.632 51.086 C 280.521 50.672,280.371 50.333,280.299 50.333 C 280.226 50.333,280.167 45.910,280.167 40.504 L 280.167 30.675 282.708 30.629 L 285.250 30.583 285.295 27.458 L 285.341 24.333 282.754 24.333 L 280.167 24.333 280.167 19.417 L 280.167 14.500 276.833 14.500 L 273.500 14.500 273.500 19.417 M364.667 19.417 L 364.667 24.333 363.000 24.333 L 361.333 24.333 361.333 27.500 L 361.333 30.667 363.000 30.667 L 364.667 30.667 364.667 40.333 C 364.667 46.667,364.724 50.000,364.833 50.000 C 364.926 50.000,365.000 50.440,365.000 50.985 C 365.000 52.551,365.428 54.430,365.995 55.351 C 366.273 55.802,366.500 56.202,366.500 56.240 C 366.500 56.444,367.932 57.666,368.385 57.850 C 368.678 57.968,368.954 58.109,369.000 58.164 C 369.288 58.508,370.733 58.710,373.458 58.787 L 376.500 58.874 376.500 55.770 L 376.500 52.667 374.847 52.667 C 373.938 52.667,373.169 52.603,373.139 52.526 C 373.108 52.448,372.858 52.279,372.583 52.149 C 372.222 51.979,372.014 51.705,371.833 51.165 C 371.696 50.753,371.527 50.392,371.458 50.361 C 371.390 50.331,371.333 45.889,371.333 40.490 L 371.333 30.675 373.875 30.629 L 376.417 30.583 376.462 27.458 L 376.507 24.333 373.920 24.333 L 371.333 24.333 371.333 19.417 L 371.333 14.500 368.000 14.500 L 364.667 14.500 364.667 19.417 M96.417 23.833 C 96.360 23.925,96.138 24.000,95.924 24.000 C 95.420 24.000,93.333 24.644,93.333 24.799 C 93.333 24.865,93.118 25.014,92.856 25.130 C 90.844 26.021,88.513 30.167,88.502 32.875 C 88.501 33.219,88.425 33.500,88.333 33.500 C 88.224 33.500,88.167 36.333,88.167 41.667 C 88.167 47.000,88.224 49.833,88.333 49.833 C 88.425 49.833,88.503 50.077,88.506 50.375 C 88.535 53.107,90.605 56.607,92.833 57.694 C 93.246 57.896,93.621 58.107,93.667 58.165 C 93.942 58.509,96.101 59.000,97.342 59.000 C 97.795 59.000,98.167 59.075,98.167 59.167 C 98.167 59.258,98.504 59.333,98.917 59.333 C 99.329 59.333,99.667 59.269,99.667 59.191 C 99.667 59.113,100.248 59.002,100.958 58.944 C 102.291 58.835,103.979 58.450,104.152 58.216 C 104.206 58.143,104.513 57.950,104.833 57.787 C 106.007 57.191,108.000 54.976,108.000 54.268 C 108.000 54.134,108.111 53.913,108.246 53.777 C 108.538 53.486,109.000 51.002,109.000 49.725 L 109.000 48.826 105.792 48.871 L 102.583 48.917 102.484 49.833 C 102.372 50.873,101.981 51.743,101.511 51.994 C 101.336 52.088,101.075 52.282,100.932 52.425 C 100.337 53.020,96.838 53.109,96.832 52.530 C 96.832 52.468,96.578 52.244,96.268 52.033 C 95.052 51.205,94.516 49.332,94.505 45.875 L 94.500 44.167 101.667 44.167 L 108.833 44.167 108.832 38.375 C 108.831 33.014,108.683 30.559,108.349 30.337 C 108.277 30.289,108.085 29.823,107.922 29.301 C 107.760 28.779,107.524 28.217,107.398 28.051 C 106.234 26.522,105.773 26.000,105.587 26.000 C 105.467 26.000,105.327 25.891,105.276 25.759 C 105.225 25.626,104.936 25.391,104.634 25.235 C 104.331 25.080,104.046 24.898,104.000 24.830 C 103.873 24.641,102.375 24.166,101.553 24.053 C 101.152 23.998,100.784 23.889,100.736 23.810 C 100.610 23.607,96.543 23.629,96.417 23.833 M129.000 23.833 C 129.000 23.925,128.839 24.000,128.643 24.000 C 128.103 24.000,126.000 24.660,126.000 24.829 C 126.000 24.911,125.831 25.030,125.625 25.094 C 124.995 25.290,123.439 26.534,122.657 27.468 L 121.917 28.352 121.870 26.343 L 121.823 24.333 118.495 24.333 L 115.167 24.333 115.167 41.500 L 115.167 58.667 118.494 58.667 L 121.821 58.667 121.875 47.042 C 121.931 35.008,121.969 34.352,122.618 33.950 C 122.736 33.877,122.833 33.710,122.833 33.580 C 122.833 33.268,124.165 31.833,124.453 31.833 C 124.576 31.833,124.720 31.723,124.771 31.588 C 124.823 31.453,125.402 31.180,126.058 30.982 C 126.714 30.784,127.400 30.561,127.583 30.487 C 127.767 30.413,128.610 30.302,129.458 30.242 L 131.000 30.131 131.000 26.899 L 131.000 23.667 130.000 23.667 C 129.444 23.667,129.000 23.741,129.000 23.833 M147.667 23.833 C 147.667 23.925,147.523 24.000,147.347 24.000 C 146.890 24.000,145.500 24.622,145.500 24.827 C 145.500 24.922,145.397 25.000,145.270 25.000 C 145.144 25.000,144.544 25.526,143.937 26.170 L 142.833 27.340 142.833 25.836 L 142.833 24.333 139.500 24.333 L 136.167 24.333 136.167 48.500 L 136.167 72.667 139.500 72.667 L 142.833 72.667 142.834 64.125 C 142.835 55.948,142.848 55.602,143.126 56.016 C 144.346 57.831,146.202 59.000,147.863 59.000 C 148.213 59.000,148.500 59.075,148.500 59.167 C 148.500 59.258,148.725 59.333,149.000 59.333 C 149.275 59.333,149.500 59.258,149.500 59.167 C 149.500 59.075,149.744 58.999,150.042 58.997 C 150.911 58.993,152.550 58.551,152.760 58.264 C 152.867 58.119,153.030 58.000,153.123 58.000 C 154.077 58.000,156.147 54.642,156.513 52.500 C 156.631 51.813,156.807 51.196,156.905 51.131 C 157.166 50.957,157.153 32.030,156.892 31.484 C 156.787 31.263,156.613 30.633,156.506 30.083 C 156.239 28.716,156.004 28.000,155.820 28.000 C 155.736 28.000,155.667 27.903,155.667 27.785 C 155.667 27.160,154.944 26.207,153.475 24.895 C 153.055 24.519,151.712 24.000,151.161 24.000 C 150.981 24.000,150.833 23.925,150.833 23.833 C 150.833 23.734,150.194 23.667,149.250 23.667 C 148.306 23.667,147.667 23.734,147.667 23.833 M170.500 23.833 C 170.500 23.925,170.305 24.000,170.066 24.000 C 169.305 24.000,167.605 24.508,166.962 24.928 C 166.620 25.151,166.281 25.333,166.209 25.333 C 165.818 25.333,163.667 28.054,163.667 28.548 C 163.667 28.644,163.565 28.842,163.441 28.987 C 162.347 30.259,162.328 52.685,163.419 53.776 C 163.555 53.912,163.667 54.132,163.667 54.265 C 163.667 54.956,165.646 57.187,166.758 57.750 C 167.120 57.933,167.458 58.139,167.509 58.206 C 167.690 58.449,169.274 58.831,170.547 58.939 C 171.260 58.999,171.883 59.113,171.932 59.191 C 172.056 59.391,173.333 59.369,173.333 59.167 C 173.333 59.075,173.727 58.997,174.208 58.994 C 175.905 58.983,178.648 58.044,179.250 57.269 C 179.342 57.151,179.585 56.965,179.792 56.855 C 179.998 56.745,180.167 56.548,180.167 56.417 C 180.167 56.286,180.302 56.106,180.467 56.018 C 181.211 55.620,182.333 52.597,182.333 50.992 C 182.333 50.630,182.408 50.333,182.500 50.333 C 182.609 50.333,182.667 47.253,182.667 41.427 C 182.667 35.668,182.608 32.483,182.500 32.417 C 182.408 32.360,182.333 32.059,182.333 31.748 C 182.333 30.578,181.814 28.638,181.382 28.196 C 181.264 28.075,181.167 27.869,181.167 27.737 C 181.167 27.410,179.366 25.527,178.750 25.210 C 178.475 25.069,178.213 24.897,178.167 24.829 C 178.049 24.653,175.877 24.000,175.409 24.000 C 175.195 24.000,174.973 23.925,174.917 23.833 C 174.857 23.736,173.915 23.667,172.657 23.667 C 171.330 23.667,170.500 23.731,170.500 23.833 M196.000 23.833 C 196.000 23.925,195.805 24.000,195.566 24.000 C 194.805 24.000,193.105 24.508,192.462 24.928 C 192.120 25.151,191.788 25.333,191.723 25.333 C 191.246 25.333,189.167 27.998,189.167 28.609 C 189.167 28.732,189.097 28.833,189.012 28.833 C 188.815 28.833,188.333 30.472,188.333 31.141 C 188.333 31.419,188.258 31.693,188.167 31.750 C 188.059 31.817,188.000 35.224,188.000 41.427 C 188.000 47.698,188.057 51.000,188.167 51.000 C 188.258 51.000,188.335 51.206,188.336 51.458 C 188.340 52.176,188.787 53.901,188.987 53.968 C 189.086 54.001,189.167 54.118,189.167 54.229 C 189.167 54.991,191.070 57.166,192.250 57.752 C 192.617 57.934,192.958 58.139,193.009 58.206 C 193.194 58.455,194.786 58.841,196.047 58.944 C 196.761 59.003,197.384 59.114,197.432 59.192 C 197.556 59.392,198.833 59.369,198.833 59.167 C 198.833 59.075,199.212 59.000,199.675 59.000 C 200.678 59.000,202.752 58.554,203.044 58.275 C 203.157 58.166,203.573 57.934,203.968 57.759 C 204.364 57.584,204.760 57.304,204.849 57.137 C 204.939 56.970,205.123 56.833,205.260 56.833 C 205.397 56.833,205.580 56.644,205.668 56.412 C 205.756 56.181,205.931 55.952,206.056 55.904 C 206.182 55.856,206.463 55.427,206.682 54.950 C 206.901 54.473,207.144 54.037,207.223 53.980 C 207.421 53.837,207.820 51.898,207.827 51.042 C 207.831 50.652,207.908 50.333,208.000 50.333 C 208.109 50.333,208.167 47.250,208.167 41.417 C 208.167 35.583,208.109 32.500,208.000 32.500 C 207.908 32.500,207.831 32.181,207.827 31.792 C 207.820 30.912,207.419 28.992,207.213 28.853 C 207.129 28.796,206.933 28.425,206.776 28.028 C 206.503 27.333,204.736 25.333,204.395 25.333 C 204.304 25.333,204.080 25.194,203.898 25.024 C 203.502 24.656,202.221 24.211,201.125 24.062 C 200.690 24.003,200.333 23.890,200.333 23.811 C 200.333 23.731,199.358 23.667,198.167 23.667 C 196.833 23.667,196.000 23.731,196.000 23.833 M304.333 23.833 C 304.333 23.925,304.175 24.000,303.982 24.000 C 303.403 24.000,301.596 24.506,301.417 24.719 C 301.325 24.828,300.950 25.066,300.583 25.249 C 300.217 25.432,299.819 25.713,299.699 25.874 C 299.579 26.035,299.404 26.167,299.310 26.167 C 299.067 26.167,297.673 27.543,297.669 27.786 C 297.668 27.897,297.517 28.069,297.333 28.167 C 297.009 28.340,297.000 28.293,297.000 26.339 L 297.000 24.333 293.667 24.333 L 290.333 24.333 290.333 41.500 L 290.333 58.667 293.660 58.667 L 296.987 58.667 297.035 46.972 C 297.073 37.799,297.128 35.263,297.292 35.208 C 297.406 35.170,297.500 35.022,297.500 34.879 C 297.500 34.135,298.436 32.825,299.813 31.642 C 300.196 31.313,301.957 30.667,302.469 30.667 C 302.670 30.667,302.833 30.601,302.833 30.520 C 302.833 30.439,303.621 30.319,304.583 30.254 L 306.333 30.135 306.333 26.901 L 306.333 23.667 305.333 23.667 C 304.778 23.667,304.333 23.741,304.333 23.833 M318.917 23.833 C 318.860 23.925,318.638 24.000,318.424 24.000 C 317.884 24.000,315.833 24.649,315.833 24.820 C 315.833 24.897,315.620 25.048,315.360 25.156 C 314.351 25.574,312.370 27.990,311.970 29.292 C 311.850 29.681,311.701 30.000,311.637 30.000 C 311.574 30.000,311.386 30.581,311.220 31.292 C 310.495 34.380,310.871 53.167,311.657 53.167 C 311.731 53.167,311.834 53.376,311.885 53.632 C 312.116 54.789,314.482 57.470,315.597 57.838 C 315.910 57.941,316.167 58.083,316.167 58.153 C 316.167 58.439,318.534 58.990,319.792 58.996 C 320.273 58.998,320.667 59.075,320.667 59.167 C 320.667 59.258,321.042 59.333,321.500 59.333 C 321.958 59.333,322.333 59.269,322.333 59.191 C 322.333 59.113,322.915 59.002,323.625 58.944 C 324.882 58.841,326.473 58.455,326.658 58.206 C 326.709 58.139,327.046 57.933,327.408 57.750 C 328.583 57.155,330.500 54.987,330.500 54.254 C 330.500 54.130,330.581 54.001,330.680 53.968 C 330.948 53.878,331.321 52.121,331.443 50.375 L 331.550 48.833 328.358 48.833 L 325.167 48.833 325.167 49.506 C 325.167 50.350,324.483 51.730,323.874 52.118 C 323.622 52.278,323.378 52.461,323.331 52.525 C 323.141 52.784,321.600 53.039,320.798 52.944 C 319.413 52.780,317.970 51.629,317.651 50.436 C 317.550 50.059,317.394 49.660,317.303 49.550 C 317.213 49.439,317.096 48.183,317.044 46.758 L 316.950 44.167 324.154 44.167 L 331.358 44.167 331.291 37.708 C 331.227 31.526,331.121 30.155,330.683 29.833 C 330.620 29.787,330.462 29.416,330.330 29.008 C 329.900 27.672,327.475 25.000,326.693 25.000 C 326.587 25.000,326.500 24.931,326.500 24.847 C 326.500 24.649,325.142 24.200,324.125 24.062 C 323.690 24.003,323.333 23.890,323.333 23.811 C 323.333 23.606,319.044 23.628,318.917 23.833 M345.264 23.810 C 345.216 23.889,344.855 24.000,344.463 24.056 C 343.458 24.202,342.549 24.478,342.294 24.715 C 342.175 24.826,341.839 25.050,341.548 25.212 C 340.538 25.777,339.110 27.372,338.623 28.483 C 338.438 28.905,338.234 29.287,338.170 29.333 C 338.106 29.379,337.921 29.942,337.760 30.583 C 337.598 31.225,337.380 31.930,337.275 32.150 C 337.005 32.714,337.002 50.961,337.271 51.131 C 337.375 51.196,337.513 51.587,337.579 52.000 C 337.907 54.049,339.923 56.859,341.667 57.699 C 342.079 57.898,342.464 58.130,342.522 58.216 C 342.694 58.471,344.325 58.847,345.708 58.951 C 346.419 59.004,347.000 59.112,347.000 59.190 C 347.000 59.269,347.337 59.333,347.750 59.333 C 348.162 59.333,348.500 59.269,348.500 59.191 C 348.500 59.113,349.081 59.003,349.792 58.947 C 351.057 58.847,352.835 58.418,353.000 58.173 C 353.046 58.105,353.348 57.925,353.671 57.773 C 354.231 57.510,356.000 55.911,356.000 55.668 C 356.000 55.604,356.187 55.334,356.416 55.068 C 356.646 54.801,356.833 54.469,356.833 54.329 C 356.833 54.189,356.953 53.904,357.099 53.695 C 357.421 53.235,357.820 51.102,357.828 49.792 L 357.833 48.833 354.583 48.833 L 351.333 48.833 351.333 49.580 C 351.333 52.335,347.622 54.086,345.449 52.355 C 343.770 51.017,343.507 50.302,343.376 46.722 L 343.283 44.167 350.487 44.167 L 357.691 44.167 357.637 37.708 C 357.586 31.580,357.566 31.212,357.237 30.500 C 357.046 30.087,356.790 29.431,356.668 29.042 C 356.546 28.652,356.393 28.333,356.327 28.333 C 356.261 28.333,356.113 28.105,355.997 27.827 C 355.882 27.548,355.666 27.228,355.519 27.116 C 355.371 27.003,355.170 26.768,355.072 26.592 C 354.974 26.416,354.751 26.192,354.575 26.094 C 354.399 25.997,354.156 25.785,354.035 25.625 C 353.914 25.465,353.746 25.333,353.663 25.333 C 353.580 25.333,353.162 25.112,352.735 24.841 C 352.224 24.516,351.538 24.277,350.729 24.141 C 350.053 24.028,349.500 23.875,349.500 23.801 C 349.500 23.620,345.377 23.629,345.264 23.810 M49.500 41.500 L 49.500 58.674 52.792 58.629 L 56.083 58.583 56.083 41.500 L 56.083 24.417 52.792 24.371 L 49.500 24.326 49.500 41.500 M60.500 24.660 C 60.500 24.840,60.639 25.347,60.809 25.785 C 60.978 26.224,61.211 27.070,61.325 27.665 C 61.439 28.259,61.626 28.934,61.740 29.165 C 61.855 29.395,62.081 30.221,62.244 31.000 C 62.406 31.779,62.602 32.495,62.678 32.591 C 62.755 32.686,62.979 33.511,63.176 34.424 C 63.374 35.337,63.588 36.121,63.652 36.167 C 63.716 36.212,63.942 37.037,64.154 38.000 C 64.366 38.962,64.591 39.787,64.654 39.833 C 64.717 39.879,64.903 40.554,65.068 41.333 C 65.232 42.112,65.420 42.788,65.485 42.833 C 65.549 42.879,65.776 43.704,65.987 44.667 C 66.199 45.629,66.422 46.454,66.483 46.500 C 66.543 46.546,66.767 47.371,66.980 48.333 C 67.193 49.296,67.425 50.158,67.495 50.250 C 67.566 50.342,67.755 51.017,67.915 51.750 C 68.075 52.483,68.256 53.121,68.318 53.167 C 68.379 53.212,68.609 54.075,68.827 55.083 C 69.046 56.092,69.279 56.954,69.345 57.000 C 69.411 57.046,69.531 57.421,69.613 57.833 L 69.761 58.583 72.492 58.583 L 75.224 58.583 75.523 57.167 C 75.687 56.387,75.893 55.630,75.979 55.484 C 76.066 55.338,76.298 54.479,76.493 53.575 C 76.689 52.671,76.913 51.853,76.990 51.757 C 77.067 51.662,77.250 50.999,77.396 50.285 C 77.542 49.571,77.736 48.849,77.826 48.680 C 77.916 48.511,78.145 47.671,78.334 46.812 C 78.523 45.953,78.788 45.014,78.922 44.725 C 79.057 44.436,79.167 44.103,79.167 43.985 C 79.167 43.656,79.665 41.615,79.815 41.333 C 79.888 41.196,80.123 40.296,80.338 39.333 C 80.553 38.371,80.781 37.546,80.845 37.500 C 80.909 37.454,81.083 36.823,81.232 36.098 C 81.382 35.373,81.570 34.698,81.650 34.598 C 81.731 34.498,81.926 33.817,82.083 33.083 C 82.241 32.350,82.410 31.563,82.460 31.333 C 82.509 31.104,82.599 30.879,82.659 30.833 C 82.720 30.787,82.942 29.967,83.153 29.010 C 83.364 28.053,83.601 27.153,83.680 27.010 C 83.822 26.751,84.333 24.777,84.333 24.487 C 84.333 24.399,82.925 24.333,81.023 24.333 L 77.712 24.333 77.369 25.958 C 77.180 26.852,76.830 28.558,76.591 29.750 C 76.352 30.942,76.092 32.034,76.013 32.177 C 75.934 32.320,75.701 33.407,75.494 34.593 C 75.287 35.780,75.067 36.787,75.005 36.833 C 74.942 36.879,74.756 37.704,74.591 38.667 C 74.426 39.629,74.231 40.533,74.158 40.675 C 74.084 40.817,73.859 41.867,73.657 43.008 C 73.454 44.150,73.233 45.158,73.164 45.250 C 73.095 45.342,72.944 45.979,72.827 46.667 C 72.613 47.936,72.333 48.586,72.333 47.817 C 72.333 47.588,72.266 47.329,72.184 47.242 C 72.102 47.155,71.905 46.296,71.747 45.333 C 71.588 44.371,71.407 43.546,71.344 43.500 C 71.282 43.454,71.057 42.442,70.845 41.250 C 70.634 40.058,70.403 39.008,70.333 38.917 C 70.262 38.825,70.114 38.188,70.002 37.500 C 69.768 36.059,69.409 34.424,69.280 34.216 C 69.232 34.137,69.025 33.137,68.821 31.995 C 68.618 30.852,68.398 29.879,68.333 29.833 C 68.269 29.787,68.076 28.906,67.906 27.875 C 67.736 26.844,67.545 26.000,67.481 26.000 C 67.417 26.000,67.313 25.625,67.250 25.167 L 67.135 24.333 63.818 24.333 C 60.632 24.333,60.500 24.346,60.500 24.660 M100.286 30.125 C 100.633 30.285,101.012 30.544,101.129 30.700 C 101.245 30.856,101.444 31.087,101.571 31.214 C 102.135 31.778,102.384 33.053,102.462 35.792 L 102.539 38.500 98.520 38.500 L 94.500 38.500 94.505 37.208 C 94.519 32.981,95.287 30.846,97.073 30.069 C 97.815 29.745,99.530 29.776,100.286 30.125 M147.834 30.025 C 148.608 30.295,149.577 31.294,149.830 32.083 C 149.947 32.450,150.127 32.855,150.230 32.984 C 150.362 33.150,150.417 35.617,150.417 41.417 C 150.417 47.216,150.362 49.684,150.230 49.849 C 150.127 49.978,149.949 50.375,149.834 50.732 C 149.296 52.402,147.576 53.301,145.623 52.935 C 145.037 52.825,143.833 51.937,143.833 51.615 C 143.833 51.518,143.694 51.283,143.524 51.094 C 142.836 50.330,142.453 35.719,143.049 33.000 C 143.589 30.538,145.643 29.261,147.834 30.025 M322.720 30.082 C 324.382 30.776,325.167 32.777,325.167 36.323 L 325.167 38.500 321.059 38.500 L 316.951 38.500 317.069 35.962 C 317.134 34.566,317.248 33.385,317.323 33.337 C 317.397 33.289,317.514 32.987,317.582 32.667 C 318.070 30.378,320.502 29.155,322.720 30.082 M349.015 30.106 C 350.643 30.689,351.324 32.509,351.330 36.292 L 351.333 38.500 347.307 38.500 L 343.282 38.500 343.392 36.069 C 343.506 33.560,343.731 32.246,344.113 31.863 C 344.234 31.742,344.333 31.570,344.333 31.481 C 344.333 31.215,345.674 30.024,346.059 29.949 C 346.924 29.780,348.310 29.853,349.015 30.106 M174.133 30.428 C 174.198 30.522,174.480 30.760,174.762 30.956 C 175.085 31.182,175.356 31.578,175.499 32.032 C 175.623 32.427,175.787 32.821,175.862 32.908 C 176.049 33.123,176.039 49.789,175.852 49.905 C 175.771 49.955,175.657 50.251,175.598 50.561 C 175.493 51.126,175.162 51.555,174.241 52.326 C 173.096 53.284,170.727 52.692,169.812 51.219 L 169.417 50.583 169.417 41.500 C 169.417 31.262,169.354 31.777,170.713 30.776 C 171.605 30.119,173.772 29.899,174.133 30.428 M199.920 30.710 C 200.192 30.961,200.469 31.167,200.538 31.167 C 201.323 31.167,201.704 49.505,200.950 51.019 C 199.701 53.527,195.000 53.045,195.000 50.410 C 195.000 50.276,194.925 50.167,194.833 50.167 C 194.724 50.167,194.667 47.139,194.667 41.417 C 194.667 36.528,194.731 32.667,194.813 32.667 C 194.893 32.667,195.004 32.440,195.059 32.162 C 195.154 31.689,195.480 31.284,196.281 30.647 C 197.133 29.968,199.159 30.003,199.920 30.710 " stroke="none" fill="#fcfcfc" fill-rule="evenodd"></path><path id="path1" d="M29.974 91.231 C 29.455 91.342,28.930 91.510,28.807 91.603 C 28.684 91.697,28.257 91.876,27.857 92.003 C 27.458 92.129,27.096 92.323,27.054 92.434 C 27.011 92.545,26.755 92.728,26.484 92.840 C 25.956 93.059,24.000 95.107,24.000 95.441 C 24.000 95.552,23.901 95.742,23.780 95.863 C 23.658 95.984,23.419 96.458,23.247 96.917 C 23.075 97.375,22.877 97.790,22.807 97.839 C 21.845 98.514,21.845 132.319,22.807 132.995 C 22.877 133.043,23.075 133.458,23.247 133.917 C 23.419 134.375,23.658 134.849,23.780 134.970 C 23.901 135.091,24.000 135.294,24.000 135.420 C 24.000 135.714,26.381 138.167,26.666 138.167 C 26.784 138.167,26.963 138.266,27.065 138.386 C 27.167 138.507,27.587 138.740,28.000 138.904 C 28.412 139.067,28.867 139.260,29.010 139.332 C 30.360 140.013,37.667 140.036,37.667 139.359 C 37.667 139.298,37.985 139.149,38.375 139.029 C 39.773 138.597,42.045 136.742,42.544 135.625 C 42.656 135.373,42.795 135.167,42.851 135.167 C 42.908 135.167,43.090 134.810,43.254 134.375 C 43.419 133.940,43.651 133.433,43.769 133.250 C 44.159 132.646,44.500 130.028,44.500 127.645 L 44.500 125.333 41.167 125.333 L 37.833 125.333 37.829 127.125 C 37.827 128.110,37.751 129.254,37.661 129.667 C 37.571 130.079,37.462 130.572,37.420 130.761 C 37.182 131.817,35.317 133.333,34.255 133.333 C 34.023 133.333,33.833 133.408,33.833 133.500 C 33.833 133.592,33.608 133.667,33.333 133.667 C 33.058 133.667,32.833 133.592,32.833 133.500 C 32.833 133.408,32.655 133.333,32.437 133.333 C 31.513 133.333,30.731 132.770,29.474 131.196 C 28.891 130.467,28.845 129.322,28.845 115.417 C 28.845 101.521,28.891 100.373,29.472 99.637 C 30.748 98.021,31.538 97.500,32.714 97.500 C 32.948 97.500,33.177 97.406,33.223 97.292 C 33.283 97.144,33.348 97.136,33.446 97.266 C 33.521 97.367,33.946 97.497,34.389 97.556 C 36.696 97.865,37.815 99.866,37.827 103.708 L 37.833 105.500 41.167 105.500 L 44.500 105.500 44.500 103.188 C 44.500 100.805,44.159 98.188,43.769 97.583 C 43.651 97.400,43.419 96.894,43.254 96.458 C 43.090 96.023,42.890 95.667,42.811 95.667 C 42.731 95.667,42.667 95.589,42.667 95.493 C 42.667 95.045,41.167 93.375,40.344 92.908 C 40.029 92.730,39.636 92.452,39.469 92.292 C 39.303 92.131,39.073 92.000,38.958 91.999 C 38.844 91.998,38.525 91.879,38.250 91.734 C 36.930 91.037,32.208 90.750,29.974 91.231 M163.544 112.121 C 163.603 133.896,163.632 134.738,164.320 134.968 C 164.419 135.001,164.500 135.144,164.500 135.286 C 164.500 135.831,165.629 137.267,166.783 138.188 C 167.233 138.547,168.904 139.167,169.423 139.167 C 169.649 139.167,169.833 139.242,169.833 139.333 C 169.833 139.437,170.722 139.500,172.167 139.500 L 174.500 139.500 174.500 136.333 L 174.500 133.167 173.175 133.167 C 171.603 133.167,171.118 132.979,170.621 132.180 L 170.250 131.583 170.167 111.500 L 170.083 91.417 166.785 91.371 L 163.487 91.326 163.544 112.121 M201.112 91.625 C 201.069 91.785,200.940 92.404,200.826 93.000 C 200.711 93.596,200.562 94.158,200.495 94.250 C 200.429 94.342,200.202 95.354,199.993 96.500 C 199.783 97.646,199.561 98.621,199.498 98.667 C 199.436 98.712,199.210 99.725,198.995 100.917 C 198.780 102.108,198.548 103.122,198.479 103.170 C 198.410 103.218,198.226 103.968,198.070 104.837 C 197.914 105.706,197.729 106.492,197.659 106.583 C 197.589 106.675,197.360 107.688,197.150 108.833 C 196.940 109.979,196.721 110.954,196.662 111.000 C 196.603 111.046,196.383 111.983,196.174 113.083 C 195.965 114.183,195.738 115.158,195.670 115.250 C 195.602 115.342,195.419 116.129,195.263 117.000 C 195.107 117.871,194.912 118.708,194.830 118.861 C 194.749 119.013,194.517 120.026,194.317 121.111 C 194.116 122.196,193.902 123.121,193.841 123.167 C 193.781 123.212,193.550 124.188,193.328 125.333 C 193.106 126.479,192.876 127.454,192.817 127.500 C 192.758 127.546,192.577 128.333,192.416 129.250 C 192.254 130.167,192.060 131.038,191.984 131.186 C 191.908 131.333,191.688 132.271,191.495 133.269 C 191.302 134.267,191.073 135.233,190.986 135.417 C 190.851 135.701,190.167 139.009,190.167 139.375 C 190.167 139.444,191.734 139.500,193.649 139.500 C 197.575 139.500,197.246 139.630,197.429 138.011 C 197.492 137.455,197.596 137.000,197.662 137.000 C 197.727 137.000,197.915 136.081,198.078 134.958 C 198.242 133.835,198.432 132.842,198.499 132.750 C 198.567 132.658,198.714 131.946,198.826 131.167 C 198.938 130.387,199.066 129.619,199.109 129.458 C 199.183 129.189,199.572 129.167,204.254 129.167 L 209.318 129.167 209.403 129.708 C 209.450 130.006,209.575 130.813,209.680 131.500 C 209.786 132.188,209.920 132.825,209.978 132.917 C 210.069 133.061,210.823 137.046,211.105 138.875 L 211.202 139.500 214.786 139.500 L 218.369 139.500 218.283 139.125 C 218.235 138.919,218.066 138.075,217.907 137.250 C 217.749 136.425,217.569 135.712,217.507 135.667 C 217.446 135.621,217.255 134.796,217.083 133.833 C 216.912 132.871,216.721 132.046,216.660 132.000 C 216.599 131.954,216.384 131.029,216.183 129.944 C 215.983 128.859,215.750 127.847,215.667 127.694 C 215.584 127.541,215.353 126.554,215.154 125.500 C 214.955 124.446,214.737 123.508,214.669 123.417 C 214.600 123.325,214.412 122.500,214.251 121.583 C 214.089 120.667,213.908 119.879,213.847 119.833 C 213.787 119.787,213.560 118.813,213.344 117.667 C 213.128 116.521,212.899 115.546,212.836 115.500 C 212.773 115.454,212.550 114.479,212.341 113.333 C 212.131 112.188,211.902 111.175,211.833 111.083 C 211.763 110.992,211.573 110.167,211.412 109.250 C 211.250 108.333,211.066 107.546,211.004 107.500 C 210.942 107.454,210.713 106.479,210.495 105.333 C 210.277 104.188,210.049 103.212,209.989 103.167 C 209.929 103.121,209.709 102.146,209.500 101.000 C 209.291 99.854,209.072 98.879,209.012 98.833 C 208.953 98.787,208.729 97.830,208.516 96.706 C 208.302 95.582,208.070 94.627,208.000 94.583 C 207.929 94.540,207.820 94.147,207.756 93.710 C 207.692 93.274,207.564 92.560,207.473 92.125 L 207.306 91.333 204.247 91.333 C 201.475 91.333,201.182 91.361,201.112 91.625 M236.000 99.777 L 236.000 108.220 235.458 107.582 C 233.658 105.460,232.194 104.638,230.030 104.534 C 228.529 104.462,226.500 104.732,226.500 105.005 C 226.500 105.074,226.319 105.176,226.097 105.232 C 225.588 105.360,223.988 106.811,223.663 107.441 C 223.527 107.702,223.335 108.003,223.236 108.109 C 223.137 108.215,222.925 108.740,222.765 109.276 C 222.605 109.812,222.405 110.400,222.321 110.583 C 221.621 112.101,221.619 133.686,222.319 134.166 C 222.386 134.212,222.541 134.625,222.662 135.083 C 223.267 137.363,225.405 139.426,227.572 139.820 C 229.396 140.152,232.291 139.897,232.652 139.374 C 232.706 139.295,233.000 139.130,233.306 139.006 C 233.865 138.780,235.167 137.678,235.167 137.431 C 235.167 137.358,235.354 137.075,235.583 136.803 L 236.000 136.308 236.000 137.904 L 236.000 139.500 239.333 139.500 L 242.667 139.500 242.667 115.417 L 242.667 91.333 239.333 91.333 L 236.000 91.333 236.000 99.777 M105.000 95.170 L 105.000 98.507 108.292 98.462 L 111.583 98.417 111.629 95.125 L 111.674 91.833 108.337 91.833 L 105.000 91.833 105.000 95.170 M275.667 95.170 L 275.667 98.507 278.958 98.462 L 282.250 98.417 282.295 95.125 L 282.340 91.833 279.004 91.833 L 275.667 91.833 275.667 95.170 M119.167 100.167 L 119.167 105.167 117.417 105.167 L 115.667 105.167 115.667 108.250 L 115.667 111.333 117.417 111.333 L 119.167 111.333 119.169 120.708 C 119.172 129.809,119.328 134.025,119.668 134.139 C 119.759 134.169,119.833 134.314,119.833 134.460 C 119.833 136.184,122.077 138.674,124.000 139.084 C 124.321 139.153,124.634 139.289,124.697 139.387 C 124.768 139.499,125.937 139.592,127.822 139.637 L 130.833 139.708 130.833 136.521 L 130.833 133.333 129.328 133.333 C 127.503 133.333,126.857 133.096,126.317 132.227 L 125.917 131.583 125.870 121.458 L 125.823 111.333 128.328 111.333 L 130.833 111.333 130.833 108.250 L 130.833 105.167 128.333 105.167 L 125.833 105.167 125.833 100.167 L 125.833 95.167 122.500 95.167 L 119.167 95.167 119.167 100.167 M204.752 105.250 C 204.913 106.350,205.094 107.287,205.155 107.333 C 205.215 107.379,205.436 108.542,205.645 109.917 C 205.855 111.292,206.092 112.567,206.173 112.750 C 206.254 112.933,206.485 114.171,206.686 115.500 C 206.886 116.829,207.105 117.954,207.171 118.000 C 207.237 118.046,207.428 119.040,207.595 120.208 C 207.763 121.377,207.960 122.333,208.033 122.333 C 208.107 122.333,208.167 122.446,208.167 122.583 C 208.167 122.798,207.620 122.833,204.250 122.833 L 200.333 122.833 200.333 122.417 C 200.333 122.188,200.395 122.000,200.471 122.000 C 200.547 122.000,200.784 120.856,200.998 119.458 C 201.212 118.060,201.439 116.879,201.503 116.833 C 201.567 116.787,201.756 115.813,201.922 114.667 C 202.088 113.521,202.274 112.546,202.334 112.500 C 202.395 112.454,202.616 111.292,202.827 109.917 C 203.037 108.542,203.267 107.342,203.338 107.250 C 203.408 107.158,203.602 106.127,203.769 104.959 C 204.142 102.346,204.335 102.403,204.752 105.250 M57.691 104.679 C 57.291 104.758,56.879 104.892,56.774 104.978 C 56.669 105.064,56.277 105.216,55.902 105.316 C 55.527 105.416,55.002 105.686,54.735 105.916 C 54.468 106.145,54.188 106.333,54.111 106.333 C 53.885 106.333,52.506 107.732,52.503 107.964 C 52.501 108.081,52.387 108.220,52.250 108.273 C 52.112 108.326,52.000 108.434,52.000 108.513 C 52.000 108.593,51.817 109.053,51.593 109.537 C 51.041 110.729,50.861 111.495,50.729 113.215 L 50.617 114.674 53.840 114.629 L 57.064 114.583 57.269 113.472 C 57.570 111.839,58.436 110.620,59.441 110.414 C 59.657 110.370,60.013 110.296,60.233 110.251 C 60.745 110.146,62.399 110.455,62.472 110.670 C 62.503 110.760,62.615 110.834,62.722 110.834 C 63.857 110.839,64.500 112.747,64.500 116.114 L 64.500 118.667 61.845 118.667 C 58.793 118.667,56.870 118.889,55.974 119.347 C 55.629 119.523,55.231 119.667,55.090 119.667 C 54.949 119.667,54.700 119.798,54.538 119.958 C 54.375 120.119,53.962 120.398,53.621 120.580 C 53.279 120.761,53.000 120.950,53.000 121.001 C 53.000 121.051,52.779 121.334,52.509 121.629 C 52.240 121.925,51.883 122.410,51.718 122.708 C 51.552 123.006,51.365 123.289,51.303 123.336 C 51.145 123.456,50.715 124.778,50.571 125.583 C 50.505 125.950,50.369 126.303,50.268 126.369 C 50.010 126.535,50.015 133.136,50.273 133.682 C 50.378 133.903,50.597 134.556,50.760 135.133 C 50.924 135.710,51.138 136.235,51.237 136.299 C 51.336 136.364,51.556 136.667,51.726 136.972 C 52.167 137.764,53.133 138.614,53.958 138.936 C 54.348 139.088,54.667 139.268,54.667 139.337 C 54.667 139.575,56.888 139.880,58.649 139.885 C 60.314 139.889,62.167 139.588,62.167 139.313 C 62.167 139.245,62.322 139.140,62.512 139.080 C 62.978 138.932,64.326 137.667,64.363 137.343 C 64.379 137.200,64.435 137.608,64.488 138.250 L 64.583 139.417 67.798 139.462 L 71.013 139.507 70.958 125.462 C 70.905 111.485,70.861 110.372,70.348 110.000 C 70.285 109.954,70.097 109.555,69.931 109.113 C 69.765 108.670,69.526 108.269,69.398 108.220 C 69.271 108.171,69.167 108.044,69.167 107.938 C 69.167 107.711,67.782 106.333,67.553 106.333 C 67.467 106.333,67.249 106.196,67.068 106.028 C 66.888 105.860,66.368 105.584,65.912 105.416 C 65.456 105.247,65.008 105.054,64.917 104.987 C 64.322 104.549,59.415 104.340,57.691 104.679 M89.178 104.612 C 88.052 104.851,85.351 106.939,84.903 107.917 C 84.794 108.153,84.736 107.804,84.702 106.708 L 84.654 105.167 81.327 105.167 L 78.000 105.167 78.000 129.250 L 78.000 153.333 81.333 153.333 L 84.667 153.333 84.667 144.794 C 84.667 136.285,84.668 136.257,84.986 136.851 C 85.495 137.800,87.023 139.167,87.577 139.167 C 87.718 139.167,87.833 139.239,87.833 139.327 C 87.833 139.605,89.196 139.871,90.667 139.880 C 92.083 139.889,94.000 139.586,94.000 139.353 C 94.000 139.285,94.260 139.127,94.579 139.002 C 94.897 138.877,95.309 138.600,95.494 138.387 C 95.680 138.174,95.899 138.000,95.982 138.000 C 96.229 138.000,97.660 135.708,97.664 135.306 C 97.665 135.153,97.744 135.002,97.838 134.971 C 98.103 134.882,98.662 131.892,98.664 130.552 C 98.666 129.892,98.742 129.307,98.833 129.250 C 98.940 129.184,99.000 126.613,99.000 122.083 C 99.000 117.554,98.940 114.983,98.833 114.917 C 98.742 114.860,98.666 114.274,98.664 113.615 C 98.662 112.274,98.103 109.284,97.838 109.196 C 97.744 109.165,97.667 109.066,97.667 108.977 C 97.667 106.371,92.765 103.851,89.178 104.612 M143.042 104.699 C 142.560 104.787,142.167 104.919,142.167 104.993 C 142.167 105.067,141.844 105.208,141.449 105.308 C 141.055 105.407,140.511 105.678,140.241 105.911 C 139.971 106.143,139.688 106.333,139.611 106.333 C 139.388 106.333,138.006 107.730,138.003 107.958 C 138.001 108.073,137.923 108.167,137.829 108.167 C 137.735 108.167,137.593 108.338,137.514 108.547 C 137.434 108.756,137.216 109.262,137.028 109.672 C 136.541 110.733,136.357 111.552,136.229 113.215 L 136.117 114.674 139.340 114.629 L 142.564 114.583 142.769 113.472 C 143.118 111.580,143.912 110.603,145.318 110.336 C 146.223 110.165,147.871 110.372,147.972 110.670 C 148.003 110.760,148.115 110.834,148.222 110.834 C 149.357 110.839,150.000 112.747,150.000 116.114 L 150.000 118.667 147.345 118.667 C 144.293 118.667,142.370 118.889,141.474 119.347 C 141.129 119.523,140.731 119.667,140.590 119.667 C 140.449 119.667,140.200 119.798,140.038 119.958 C 139.875 120.119,139.462 120.398,139.121 120.580 C 138.779 120.761,138.500 120.953,138.500 121.006 C 138.500 121.060,138.288 121.324,138.029 121.593 C 137.769 121.863,137.413 122.346,137.237 122.667 C 137.061 122.987,136.865 123.289,136.803 123.336 C 136.645 123.456,136.215 124.778,136.071 125.583 C 136.005 125.950,135.869 126.303,135.768 126.369 C 135.510 126.535,135.515 133.136,135.773 133.682 C 135.878 133.903,136.097 134.556,136.260 135.133 C 136.424 135.710,136.638 136.235,136.737 136.299 C 136.836 136.364,137.056 136.667,137.226 136.972 C 137.667 137.764,138.633 138.614,139.458 138.936 C 139.848 139.088,140.167 139.268,140.167 139.337 C 140.167 139.575,142.388 139.880,144.149 139.885 C 145.814 139.889,147.667 139.588,147.667 139.313 C 147.667 139.245,147.822 139.140,148.012 139.080 C 148.478 138.932,149.826 137.667,149.863 137.343 C 149.879 137.200,149.935 137.608,149.988 138.250 L 150.083 139.417 153.298 139.462 L 156.513 139.507 156.458 125.462 C 156.405 111.485,156.361 110.372,155.848 110.000 C 155.785 109.954,155.597 109.555,155.431 109.113 C 155.265 108.670,155.026 108.269,154.898 108.220 C 154.771 108.171,154.665 108.045,154.664 107.941 C 154.661 107.719,153.265 106.333,153.045 106.333 C 152.963 106.333,152.749 106.196,152.568 106.028 C 152.388 105.860,151.868 105.584,151.412 105.416 C 150.956 105.247,150.508 105.054,150.417 104.987 C 149.803 104.536,144.971 104.347,143.042 104.699 M294.679 104.672 C 294.273 104.757,293.898 104.887,293.845 104.962 C 293.793 105.036,293.416 105.205,293.008 105.337 C 292.599 105.468,292.151 105.709,292.012 105.871 C 291.873 106.034,291.678 106.167,291.579 106.167 C 291.317 106.167,289.167 108.461,289.167 108.740 C 289.167 108.870,289.052 109.091,288.912 109.231 C 288.615 109.528,288.000 111.801,288.000 112.600 C 288.000 112.901,287.925 113.193,287.833 113.250 C 287.630 113.375,287.608 116.000,287.810 116.000 C 287.889 116.000,287.994 116.431,288.044 116.958 C 288.134 117.914,288.596 119.509,288.828 119.667 C 288.896 119.712,289.077 120.019,289.232 120.349 C 289.729 121.407,291.910 123.237,293.208 123.685 C 293.552 123.803,293.833 123.954,293.833 124.020 C 293.833 124.086,294.340 124.307,294.958 124.511 C 295.577 124.716,296.121 124.928,296.167 124.983 C 296.212 125.038,296.813 125.268,297.500 125.493 C 298.188 125.718,298.787 125.951,298.833 126.010 C 298.879 126.069,299.200 126.250,299.546 126.413 C 301.880 127.510,302.497 130.566,300.814 132.691 C 300.534 133.044,300.226 133.333,300.129 133.333 C 300.033 133.333,299.868 133.449,299.765 133.591 C 299.397 134.095,296.498 134.113,295.953 133.615 C 295.834 133.506,295.589 133.335,295.410 133.235 C 295.230 133.135,294.985 132.853,294.866 132.610 C 294.746 132.366,294.583 132.167,294.503 132.167 C 294.346 132.167,294.022 130.784,293.957 129.833 L 293.917 129.250 290.625 129.205 L 287.333 129.160 287.335 130.038 C 287.336 131.193,287.644 133.069,287.843 133.139 C 287.929 133.169,288.000 133.332,288.000 133.500 C 288.000 134.440,289.479 136.732,290.696 137.680 C 291.092 137.989,291.456 138.296,291.505 138.362 C 291.642 138.551,293.051 139.159,293.361 139.163 C 293.514 139.165,293.664 139.241,293.694 139.331 C 293.926 140.017,301.508 140.050,301.990 139.368 C 302.041 139.295,302.421 139.130,302.833 139.000 C 304.752 138.398,306.983 136.146,307.538 134.250 C 307.646 133.883,307.789 133.544,307.857 133.496 C 308.452 133.076,308.448 126.554,307.853 125.756 C 307.782 125.661,307.599 125.243,307.445 124.828 C 306.803 123.087,304.538 121.001,302.746 120.499 C 302.336 120.384,302.000 120.230,302.000 120.157 C 302.000 120.084,301.569 119.902,301.042 119.753 C 300.515 119.603,299.858 119.379,299.583 119.254 C 299.308 119.128,298.858 118.973,298.583 118.909 C 295.592 118.213,293.382 115.040,294.494 113.039 C 294.583 112.880,294.809 112.394,294.998 111.958 C 295.187 111.523,295.415 111.167,295.504 111.167 C 295.594 111.167,295.835 110.998,296.042 110.792 C 296.508 110.325,298.540 110.241,299.067 110.667 C 300.333 111.689,300.833 112.654,300.833 114.074 L 300.833 114.667 304.107 114.667 L 307.381 114.667 307.294 112.951 C 307.233 111.768,307.105 111.004,306.879 110.492 C 306.700 110.084,306.450 109.487,306.324 109.167 C 306.198 108.846,305.962 108.438,305.798 108.260 C 305.634 108.083,305.500 107.876,305.500 107.802 C 305.500 107.626,304.208 106.333,304.031 106.333 C 303.957 106.333,303.751 106.199,303.573 106.035 C 303.395 105.872,302.987 105.635,302.667 105.509 C 302.346 105.384,301.746 105.129,301.333 104.943 C 300.481 104.560,296.073 104.380,294.679 104.672 M319.674 104.690 C 319.174 104.773,318.724 104.897,318.674 104.966 C 318.624 105.036,318.160 105.223,317.642 105.383 C 317.124 105.543,316.657 105.784,316.605 105.920 C 316.553 106.056,316.407 106.167,316.282 106.167 C 315.911 106.167,314.071 108.196,313.826 108.876 C 313.701 109.219,313.550 109.500,313.488 109.500 C 312.110 109.500,312.109 133.744,313.487 134.833 C 313.545 134.879,313.729 135.226,313.896 135.605 C 314.182 136.255,315.898 138.167,316.196 138.167 C 316.271 138.167,316.465 138.299,316.627 138.460 C 316.788 138.622,317.257 138.862,317.669 138.995 C 318.080 139.127,318.459 139.295,318.510 139.368 C 318.845 139.843,324.060 140.065,325.741 139.675 C 328.043 139.142,330.631 137.227,331.253 135.599 C 331.414 135.178,331.604 134.833,331.676 134.833 C 331.856 134.833,332.333 132.668,332.333 131.852 C 332.333 131.486,332.408 131.140,332.500 131.083 C 332.608 131.017,332.667 127.863,332.667 122.167 C 332.667 116.471,332.608 113.317,332.500 113.250 C 332.408 113.193,332.333 112.861,332.333 112.511 C 332.333 111.726,331.844 109.500,331.671 109.500 C 331.602 109.500,331.423 109.181,331.275 108.792 C 330.992 108.054,329.356 106.249,328.813 106.077 C 328.641 106.022,328.500 105.914,328.500 105.835 C 328.500 105.757,328.106 105.565,327.625 105.408 C 327.144 105.251,326.675 105.064,326.583 104.993 C 326.005 104.545,321.692 104.355,319.674 104.690 M351.920 104.696 C 351.464 104.783,351.051 104.909,351.003 104.977 C 350.956 105.044,350.601 105.192,350.216 105.304 C 349.830 105.417,349.414 105.610,349.291 105.733 C 349.168 105.856,348.823 106.083,348.525 106.237 C 348.227 106.391,347.941 106.626,347.890 106.759 C 347.839 106.891,347.701 107.000,347.582 107.000 C 347.374 107.000,346.618 107.727,345.762 108.750 L 345.344 109.250 345.339 107.208 L 345.333 105.167 342.000 105.167 L 338.667 105.167 338.667 122.333 L 338.667 139.500 342.000 139.500 L 345.333 139.500 345.333 128.447 C 345.333 116.751,345.371 116.089,346.114 114.717 C 346.523 113.961,348.241 112.167,348.556 112.167 C 348.636 112.167,349.079 111.977,349.540 111.745 C 350.208 111.410,350.817 111.285,352.523 111.133 L 354.667 110.943 354.667 107.721 L 354.667 104.500 353.708 104.519 C 353.181 104.529,352.377 104.609,351.920 104.696 M365.583 104.671 C 365.217 104.745,364.692 104.924,364.417 105.068 C 364.142 105.213,363.839 105.332,363.744 105.332 C 362.712 105.338,359.717 108.466,359.412 109.857 C 359.354 110.119,359.246 110.333,359.172 110.333 C 358.897 110.333,358.583 112.650,358.586 114.667 C 358.588 116.624,358.896 118.833,359.167 118.833 C 359.233 118.833,359.421 119.181,359.583 119.606 C 359.745 120.030,359.981 120.499,360.106 120.647 C 360.813 121.482,361.834 122.500,361.965 122.500 C 362.047 122.500,362.247 122.646,362.409 122.825 C 362.571 123.004,363.107 123.317,363.602 123.522 C 364.096 123.727,364.500 123.943,364.500 124.003 C 364.500 124.062,365.044 124.289,365.708 124.508 C 366.373 124.726,366.954 124.953,367.000 125.011 C 367.046 125.069,367.593 125.286,368.217 125.492 C 370.381 126.207,371.801 127.258,372.168 128.417 C 372.284 128.783,372.458 129.254,372.553 129.462 C 372.678 129.734,372.672 129.895,372.530 130.037 C 372.422 130.145,372.333 130.448,372.333 130.711 C 372.333 131.203,371.708 132.833,371.519 132.833 C 371.461 132.833,371.210 133.022,370.961 133.252 C 369.875 134.260,367.320 134.288,366.263 133.303 C 366.084 133.137,365.878 133.000,365.806 133.000 C 365.734 133.000,365.519 132.644,365.328 132.208 C 365.138 131.773,364.913 131.267,364.828 131.083 C 364.744 130.900,364.654 130.412,364.629 130.000 L 364.583 129.250 361.292 129.205 L 358.000 129.160 358.000 130.246 C 358.000 130.860,358.073 131.333,358.167 131.333 C 358.258 131.333,358.334 131.540,358.334 131.792 C 358.336 132.547,358.969 134.833,359.177 134.833 C 359.245 134.833,359.373 135.041,359.461 135.294 C 359.701 135.982,361.656 138.167,362.032 138.167 C 362.106 138.167,362.305 138.305,362.474 138.474 C 362.643 138.643,363.130 138.884,363.557 139.010 C 363.984 139.136,364.333 139.291,364.333 139.355 C 364.333 139.577,366.770 139.881,368.583 139.884 C 370.503 139.888,372.833 139.577,372.833 139.318 C 372.833 139.235,372.940 139.167,373.070 139.167 C 373.467 139.167,374.908 138.491,375.050 138.238 C 375.123 138.107,375.279 138.000,375.397 138.000 C 376.288 138.000,378.343 134.724,378.768 132.625 C 379.264 130.179,378.851 125.327,378.082 124.558 C 377.945 124.421,377.833 124.209,377.833 124.087 C 377.833 123.788,375.685 121.500,375.405 121.500 C 375.283 121.500,375.120 121.387,375.043 121.250 C 374.966 121.112,374.456 120.842,373.910 120.650 C 373.364 120.458,372.879 120.242,372.833 120.170 C 372.787 120.098,372.262 119.884,371.667 119.696 C 366.310 118.001,365.167 117.081,365.167 114.466 C 365.167 112.635,365.570 111.767,366.933 110.667 C 367.460 110.241,369.492 110.325,369.958 110.792 C 370.165 110.998,370.406 111.167,370.496 111.167 C 370.683 111.167,371.333 112.519,371.333 112.908 C 371.333 113.050,371.408 113.167,371.500 113.167 C 371.592 113.167,371.667 113.504,371.667 113.917 L 371.667 114.667 374.857 114.667 L 378.048 114.667 377.953 112.958 C 377.855 111.200,377.484 109.627,377.069 109.212 C 376.939 109.082,376.833 108.876,376.833 108.753 C 376.833 108.389,375.390 106.729,374.712 106.314 C 374.366 106.102,373.994 105.842,373.884 105.736 C 373.775 105.629,373.343 105.441,372.926 105.318 C 372.508 105.195,372.167 105.043,372.167 104.981 C 372.167 104.587,367.166 104.352,365.583 104.671 M105.000 122.333 L 105.000 139.500 108.333 139.500 L 111.667 139.500 111.667 122.333 L 111.667 105.167 108.333 105.167 L 105.000 105.167 105.000 122.333 M247.336 105.375 C 247.340 105.719,247.825 107.725,247.991 108.083 C 248.171 108.471,248.666 110.493,248.668 110.844 C 248.668 110.976,248.773 111.284,248.901 111.528 C 249.028 111.773,249.266 112.598,249.429 113.361 C 249.592 114.125,249.772 114.787,249.830 114.833 C 249.940 114.920,250.500 117.149,250.500 117.499 C 250.500 117.609,250.610 117.936,250.744 118.225 C 250.879 118.514,251.144 119.453,251.333 120.312 C 251.522 121.171,251.750 122.011,251.841 122.180 C 251.931 122.349,252.125 123.071,252.272 123.785 C 252.419 124.499,252.596 125.121,252.664 125.167 C 252.733 125.212,252.958 126.037,253.165 127.000 C 253.371 127.962,253.602 128.828,253.679 128.924 C 253.755 129.020,253.979 129.845,254.176 130.757 C 254.374 131.670,254.589 132.454,254.655 132.500 C 254.721 132.546,254.909 133.221,255.074 134.000 C 255.238 134.779,255.435 135.495,255.512 135.591 C 255.588 135.686,255.811 136.505,256.007 137.409 C 256.481 139.599,256.324 139.500,259.318 139.500 L 261.827 139.500 261.936 139.042 C 261.997 138.790,262.103 138.508,262.173 138.417 C 262.243 138.325,262.461 137.503,262.658 136.591 C 262.855 135.678,263.077 134.853,263.152 134.757 C 263.227 134.662,263.463 133.796,263.676 132.833 C 263.888 131.871,264.110 131.046,264.169 131.000 C 264.227 130.954,264.409 130.279,264.574 129.500 C 264.738 128.721,264.929 128.008,264.998 127.917 C 265.066 127.825,265.295 127.000,265.505 126.083 C 265.716 125.167,265.943 124.342,266.009 124.250 C 266.076 124.158,266.303 123.296,266.514 122.333 C 266.725 121.371,266.949 120.546,267.012 120.500 C 267.076 120.454,267.257 119.817,267.415 119.083 C 267.573 118.350,267.743 117.563,267.793 117.333 C 267.842 117.104,267.932 116.879,267.993 116.833 C 268.053 116.787,268.242 116.112,268.413 115.333 C 268.583 114.554,268.776 113.842,268.842 113.750 C 268.907 113.658,269.128 112.833,269.333 111.917 C 269.538 111.000,269.762 110.175,269.831 110.083 C 269.899 109.992,270.129 109.129,270.342 108.167 C 270.555 107.204,270.781 106.379,270.844 106.333 C 270.907 106.287,271.011 106.006,271.076 105.708 L 271.193 105.167 267.854 105.167 L 264.515 105.167 264.402 105.792 C 264.341 106.135,264.233 106.492,264.163 106.583 C 264.093 106.675,263.867 107.725,263.660 108.917 C 263.454 110.108,263.234 111.121,263.173 111.167 C 263.111 111.212,262.883 112.263,262.667 113.500 C 262.450 114.737,262.225 115.787,262.166 115.833 C 262.106 115.879,261.923 116.704,261.758 117.667 C 261.594 118.629,261.400 119.492,261.329 119.583 C 261.258 119.675,261.029 120.744,260.820 121.958 C 260.612 123.173,260.379 124.167,260.304 124.167 C 260.228 124.167,260.167 124.297,260.167 124.456 C 260.167 125.108,259.433 128.599,259.255 128.797 C 259.105 128.961,259.011 128.696,258.840 127.630 C 258.718 126.871,258.568 126.212,258.506 126.167 C 258.444 126.121,258.217 125.071,258.000 123.833 C 257.783 122.596,257.556 121.546,257.494 121.500 C 257.433 121.454,257.219 120.479,257.020 119.333 C 256.820 118.188,256.588 117.100,256.504 116.917 C 256.420 116.733,256.195 115.721,256.004 114.667 C 255.813 113.612,255.590 112.600,255.507 112.417 C 255.424 112.233,255.231 111.371,255.079 110.500 C 254.927 109.629,254.747 108.842,254.679 108.750 C 254.611 108.658,254.417 107.815,254.250 106.875 L 253.944 105.167 250.639 105.167 C 248.104 105.167,247.334 105.215,247.336 105.375 M275.667 122.337 L 275.667 139.507 278.958 139.462 L 282.250 139.417 282.292 122.292 L 282.335 105.167 279.001 105.167 L 275.667 105.167 275.667 122.337 M89.239 110.648 C 89.289 110.730,89.537 110.848,89.790 110.911 C 90.802 111.162,92.000 113.028,92.000 114.353 C 92.000 114.606,92.075 114.860,92.167 114.917 C 92.274 114.983,92.333 117.585,92.333 122.177 C 92.333 126.837,92.275 129.333,92.167 129.333 C 92.075 129.333,92.000 129.566,92.000 129.849 C 92.000 131.211,91.491 132.175,90.095 133.455 C 89.665 133.850,87.340 133.982,86.987 133.632 C 86.856 133.503,86.623 133.350,86.468 133.291 C 86.313 133.233,86.051 132.974,85.887 132.717 C 85.722 132.460,85.495 132.153,85.382 132.034 C 84.808 131.434,84.750 130.527,84.750 122.167 C 84.750 113.780,84.808 112.884,85.390 112.299 C 85.508 112.180,85.688 111.933,85.789 111.750 C 86.228 110.956,88.901 110.102,89.239 110.648 M232.500 110.667 C 232.500 110.758,232.701 110.833,232.947 110.833 C 233.836 110.833,234.725 111.437,235.338 112.455 L 235.917 113.417 235.964 122.062 L 236.011 130.707 235.471 131.783 C 235.174 132.375,234.802 132.928,234.645 133.012 C 234.488 133.096,234.228 133.296,234.067 133.457 C 233.830 133.694,233.482 133.750,232.258 133.750 C 230.681 133.750,230.587 133.716,229.753 132.856 C 228.473 131.536,228.500 131.757,228.501 122.397 C 228.502 114.727,228.581 113.140,228.978 112.833 C 229.038 112.787,229.236 112.465,229.418 112.117 C 229.769 111.448,230.332 111.078,231.269 110.902 C 231.581 110.844,231.878 110.729,231.928 110.648 C 232.053 110.446,232.500 110.460,232.500 110.667 M323.947 111.178 C 324.636 111.438,325.465 112.394,325.593 113.076 C 325.654 113.403,325.771 113.711,325.852 113.762 C 325.935 113.813,326.000 117.513,326.000 122.167 C 326.000 126.821,325.935 130.521,325.852 130.572 C 325.771 130.622,325.653 130.945,325.590 131.290 C 325.443 132.094,324.465 133.127,323.718 133.267 C 323.415 133.324,323.167 133.437,323.167 133.519 C 323.167 133.600,322.904 133.667,322.583 133.667 C 322.262 133.667,322.000 133.607,322.000 133.535 C 322.000 133.462,321.668 133.314,321.261 133.205 C 320.457 132.990,319.858 132.350,319.523 131.350 C 319.258 130.557,319.257 113.779,319.522 112.983 C 320.050 111.399,322.207 110.519,323.947 111.178 M64.500 127.242 C 64.500 128.750,64.418 130.381,64.317 130.867 C 63.577 134.440,58.421 135.265,56.707 132.083 C 56.247 131.230,56.486 126.833,56.992 126.833 C 57.066 126.833,57.222 126.603,57.339 126.320 C 57.456 126.038,57.746 125.687,57.984 125.540 C 58.222 125.394,58.499 125.175,58.600 125.056 C 58.867 124.738,60.311 124.542,62.542 124.519 L 64.500 124.500 64.500 127.242 M150.000 127.242 C 150.000 128.750,149.918 130.381,149.817 130.867 C 149.077 134.441,143.929 135.264,142.205 132.083 C 141.407 130.610,142.421 125.500,143.512 125.500 C 143.597 125.500,143.817 125.349,144.002 125.165 C 144.436 124.731,145.605 124.544,148.042 124.519 L 150.000 124.500 150.000 127.242 " stroke="none" fill="#042464" fill-rule="evenodd"></path></g></svg>