<svg id="svg" version="1.1" xmlns="http://www.w3.org/2000/svg" xmlns:xlink="http://www.w3.org/1999/xlink" width="400" height="131.77627535341117" viewBox="0, 0, 400,131.77627535341117"><g id="svgg"><path id="path0" d="M60.434 28.208 C 59.797 33.364,60.528 34.655,64.250 34.945 C 65.333 35.029,67.579 34.818,68.222 34.571 C 68.639 34.411,68.558 34.709,68.035 35.260 C 67.780 35.530,67.313 36.087,66.998 36.500 C 66.683 36.912,66.384 37.287,66.332 37.333 C 65.734 37.870,60.764 44.530,59.242 46.833 C 58.788 47.521,58.360 48.108,58.292 48.139 C 58.223 48.169,58.167 48.256,58.167 48.332 C 58.167 48.407,57.804 49.020,57.361 49.693 C 56.918 50.366,56.163 51.592,55.682 52.417 C 55.202 53.242,54.741 54.029,54.658 54.167 C 54.122 55.053,52.412 58.693,51.761 60.333 C 51.598 60.746,51.388 61.271,51.295 61.500 C 47.905 69.900,52.943 76.239,61.495 74.334 C 64.940 73.567,71.104 70.229,73.500 67.833 C 73.546 67.787,74.183 67.231,74.917 66.596 C 75.650 65.962,76.985 64.724,77.883 63.846 L 79.517 62.250 78.952 63.583 C 77.833 66.223,77.333 68.372,77.333 70.549 C 77.333 73.200,77.975 74.513,79.696 75.381 C 84.612 77.861,93.589 73.951,94.247 69.042 C 94.389 67.987,94.444 67.992,92.676 68.894 C 85.215 72.701,83.776 70.426,87.787 61.167 C 87.926 60.846,88.135 60.358,88.251 60.083 C 89.152 57.950,91.357 53.458,92.709 51.000 C 93.823 48.973,94.021 48.618,94.772 47.294 C 98.516 40.694,104.917 31.333,105.685 31.333 C 105.767 31.333,105.833 31.221,105.833 31.083 C 105.833 30.538,102.287 30.886,99.654 31.689 C 97.500 32.346,95.797 33.527,94.286 35.411 C 93.493 36.399,90.833 40.275,90.833 40.441 C 90.833 40.470,90.547 40.964,90.198 41.539 C 89.848 42.113,89.511 42.696,89.449 42.833 C 89.386 42.971,89.241 43.230,89.126 43.410 C 88.718 44.048,88.212 44.933,87.550 46.167 C 87.181 46.854,86.603 47.927,86.265 48.550 C 85.926 49.174,85.297 50.345,84.866 51.153 C 84.436 51.961,83.746 53.021,83.333 53.508 C 82.921 53.996,82.100 54.962,81.510 55.656 C 71.736 67.136,61.457 71.831,59.332 65.787 C 58.062 62.172,61.968 53.520,69.527 43.205 C 71.656 40.301,75.953 34.639,76.129 34.507 C 76.195 34.458,76.622 33.929,77.077 33.333 C 77.532 32.737,77.944 32.212,77.994 32.167 C 78.044 32.121,78.510 31.551,79.030 30.900 C 79.549 30.249,80.077 29.611,80.202 29.483 C 80.327 29.355,80.641 28.969,80.901 28.625 L 81.373 28.000 80.895 27.997 C 80.632 27.995,79.179 28.106,77.667 28.244 C 65.856 29.322,64.292 29.283,61.738 27.841 C 60.569 27.181,60.561 27.183,60.434 28.208 M138.917 40.580 C 137.653 40.842,135.912 41.508,135.024 42.068 C 134.648 42.306,134.304 42.500,134.260 42.500 C 134.155 42.500,131.521 44.343,130.991 44.787 C 127.541 47.676,124.417 50.763,121.331 54.333 C 120.737 55.021,120.211 55.621,120.163 55.667 C 120.115 55.712,119.703 56.197,119.246 56.742 C 118.790 57.288,118.304 57.855,118.167 58.003 C 118.029 58.150,117.323 59.035,116.597 59.969 C 115.026 61.992,114.934 62.003,115.844 60.062 C 116.225 59.249,116.680 58.220,116.856 57.776 C 117.031 57.332,117.440 56.401,117.765 55.707 C 120.285 50.324,121.960 45.647,121.757 44.562 C 121.404 42.683,119.369 42.651,114.139 44.442 L 113.362 44.708 113.371 46.562 C 113.377 47.829,113.292 48.707,113.104 49.333 C 112.777 50.422,112.038 52.473,111.837 52.850 C 111.759 52.996,111.379 53.859,110.993 54.766 C 110.607 55.674,110.086 56.867,109.834 57.417 C 109.583 57.967,109.093 59.092,108.744 59.917 C 108.396 60.742,108.057 61.492,107.990 61.583 C 107.924 61.675,107.607 62.387,107.286 63.167 C 106.965 63.946,106.460 65.108,106.165 65.750 C 103.080 72.449,102.669 74.314,104.050 75.349 C 104.737 75.864,106.928 75.907,108.250 75.431 C 110.119 74.758,110.000 74.842,110.002 74.188 C 110.004 73.126,111.429 70.755,113.278 68.735 C 113.538 68.451,114.275 67.633,114.917 66.918 C 115.558 66.202,116.271 65.420,116.500 65.181 C 116.729 64.942,117.517 64.072,118.250 63.248 C 118.983 62.424,119.771 61.552,120.000 61.309 C 120.229 61.067,121.052 60.167,121.829 59.309 C 124.170 56.724,129.142 51.825,130.917 50.356 C 133.170 48.490,133.157 48.500,133.268 48.500 C 133.321 48.500,133.601 48.331,133.889 48.125 C 136.825 46.022,138.002 47.803,136.504 52.083 C 136.266 52.764,135.032 56.591,134.167 59.333 C 133.776 60.571,133.362 61.883,133.246 62.250 C 130.608 70.584,131.454 74.401,136.092 75.097 C 137.500 75.309,141.990 73.740,143.346 72.562 C 143.491 72.436,143.656 72.333,143.713 72.333 C 143.815 72.333,146.000 70.855,146.167 70.674 C 146.212 70.624,146.737 70.209,147.333 69.752 C 150.573 67.264,155.872 62.154,160.877 56.691 C 161.931 55.540,162.000 55.416,162.000 54.679 C 162.000 52.175,163.742 50.167,165.915 50.167 C 167.408 50.167,167.260 49.686,165.385 48.447 L 164.187 47.654 161.802 50.117 C 147.522 64.860,143.565 68.284,140.980 68.134 C 139.305 68.037,139.424 66.148,141.506 59.750 C 144.368 50.958,144.233 51.432,144.825 48.097 C 145.826 42.455,143.591 39.612,138.917 40.580 " stroke="none" fill="#046464" fill-rule="evenodd"></path><path id="path1" d="M282.503 53.625 L 282.505 63.083 282.878 63.734 C 283.572 64.948,284.247 65.332,285.888 65.448 L 287.333 65.550 287.333 64.108 L 287.333 62.667 286.875 62.664 C 285.287 62.657,285.333 62.956,285.333 52.808 L 285.333 44.167 283.917 44.167 L 282.500 44.167 282.503 53.625 M334.500 47.929 L 334.500 51.690 333.958 51.137 C 332.186 49.326,329.656 49.656,328.623 51.833 C 327.733 53.709,327.755 62.422,328.653 64.098 C 329.739 66.124,332.274 66.392,333.958 64.660 L 334.500 64.103 334.500 64.802 L 334.500 65.500 335.917 65.500 L 337.333 65.500 337.333 54.833 L 337.333 44.167 335.917 44.167 L 334.500 44.167 334.500 47.929 M240.500 45.833 L 240.500 47.333 242.000 47.333 L 243.500 47.333 243.500 45.833 L 243.500 44.333 242.000 44.333 L 240.500 44.333 240.500 45.833 M311.667 45.827 L 311.667 47.333 313.256 47.333 L 314.846 47.333 314.798 45.875 L 314.750 44.417 313.208 44.369 L 311.667 44.321 311.667 45.827 M233.167 48.083 L 233.167 50.333 232.333 50.333 L 231.500 50.333 231.500 51.750 L 231.500 53.167 232.321 53.167 L 233.141 53.167 233.196 58.292 C 233.267 65.035,233.646 65.667,237.611 65.667 L 238.333 65.667 238.333 64.167 L 238.333 62.667 237.542 62.664 C 236.042 62.659,236.000 62.514,236.000 57.322 L 236.000 53.167 237.167 53.167 L 238.333 53.167 238.333 51.750 L 238.333 50.333 237.167 50.333 L 236.000 50.333 236.000 48.083 L 236.000 45.833 234.583 45.833 L 233.167 45.833 233.167 48.083 M166.000 50.117 C 162.630 50.487,161.926 51.920,161.920 58.417 C 161.916 63.376,162.043 63.868,163.608 64.964 C 166.744 67.161,170.896 65.264,171.282 61.458 L 171.380 60.500 169.880 60.500 L 168.380 60.500 168.232 61.369 C 167.924 63.171,165.622 63.553,164.996 61.906 C 164.788 61.358,164.782 54.489,164.990 53.944 C 165.572 52.412,168.167 52.551,168.167 54.113 C 168.167 54.303,168.214 54.693,168.271 54.979 L 168.375 55.500 169.854 55.500 L 171.333 55.500 171.333 55.031 C 171.333 52.880,170.442 51.235,168.875 50.493 C 167.861 50.013,167.444 49.959,166.000 50.117 M175.520 50.315 C 173.409 51.171,173.000 52.387,173.000 57.809 C 173.000 63.700,173.434 64.768,176.155 65.567 C 178.156 66.155,180.657 65.339,181.397 63.857 C 182.053 62.542,182.248 54.097,181.660 52.437 C 180.951 50.436,177.857 49.367,175.520 50.315 M189.250 50.276 C 188.975 50.421,188.506 50.770,188.208 51.052 L 187.667 51.565 187.667 50.949 L 187.667 50.333 186.167 50.333 L 184.667 50.333 184.667 57.917 L 184.667 65.500 186.167 65.500 L 187.667 65.500 187.671 60.125 C 187.676 53.255,187.776 52.833,189.404 52.833 C 191.061 52.833,191.167 53.259,191.167 59.928 L 191.167 65.500 192.594 65.500 L 194.021 65.500 193.969 58.779 L 193.917 52.058 193.458 51.366 C 192.629 50.113,190.574 49.581,189.250 50.276 M211.083 50.293 C 210.133 50.686,209.401 51.413,208.875 52.486 L 208.419 53.417 208.422 57.917 C 208.426 63.797,208.791 64.689,211.533 65.521 C 214.761 66.502,217.667 64.514,217.667 61.325 C 217.667 61.237,217.011 61.167,216.185 61.167 L 214.704 61.167 214.593 61.758 C 214.301 63.313,212.041 63.345,211.424 61.802 C 211.282 61.449,211.167 60.674,211.167 60.080 L 211.167 59.000 214.352 59.000 L 217.537 59.000 217.473 55.958 C 217.405 52.681,217.340 52.413,216.336 51.275 C 215.317 50.119,212.691 49.628,211.083 50.293 M224.874 50.275 C 224.575 50.422,224.107 50.772,223.832 51.053 L 223.333 51.563 223.333 50.948 L 223.333 50.333 221.833 50.333 L 220.333 50.333 220.333 57.917 L 220.333 65.500 221.833 65.500 L 223.333 65.500 223.334 60.042 C 223.335 54.328,223.417 53.527,224.044 53.088 C 224.659 52.657,225.700 52.759,226.219 53.301 L 226.667 53.768 226.667 59.634 L 226.667 65.500 228.177 65.500 L 229.687 65.500 229.635 58.784 C 229.579 51.532,229.601 51.711,228.669 50.809 C 227.823 49.992,225.976 49.732,224.874 50.275 M248.431 50.424 C 246.484 51.389,246.298 51.931,246.207 56.917 C 246.121 61.629,246.265 63.017,246.948 64.033 C 248.525 66.382,253.051 66.326,254.474 63.941 C 255.419 62.358,255.417 51.833,254.472 51.833 C 254.396 51.833,254.333 51.739,254.333 51.623 C 254.333 50.338,250.270 49.512,248.431 50.424 M262.374 50.275 C 262.075 50.422,261.607 50.772,261.332 51.053 L 260.833 51.563 260.833 50.948 L 260.833 50.333 259.333 50.333 L 257.833 50.333 257.833 57.917 L 257.833 65.500 259.333 65.500 L 260.833 65.500 260.833 59.825 C 260.833 53.788,260.878 53.422,261.657 53.005 C 262.296 52.663,263.238 52.799,263.719 53.301 L 264.167 53.768 264.167 59.634 L 264.167 65.500 265.677 65.500 L 267.187 65.500 267.135 58.784 C 267.079 51.547,267.094 51.672,266.179 50.833 C 265.252 49.983,263.491 49.724,262.374 50.275 M272.833 50.304 C 271.373 50.848,270.333 52.386,270.333 54.002 L 270.333 54.500 271.724 54.500 L 273.114 54.500 273.314 53.833 C 273.960 51.677,276.258 52.387,276.444 54.799 L 276.549 56.167 275.870 56.167 C 271.223 56.167,269.091 58.818,270.246 63.161 C 270.923 65.702,274.677 66.773,276.186 64.854 L 276.500 64.455 276.500 64.978 L 276.500 65.500 277.926 65.500 L 279.351 65.500 279.301 59.042 L 279.250 52.583 278.813 51.917 C 277.680 50.186,275.052 49.478,272.833 50.304 M319.365 50.451 C 317.851 51.187,317.167 52.481,317.167 54.606 C 317.167 56.371,318.266 58.333,319.256 58.333 C 319.390 58.333,319.500 58.398,319.500 58.478 C 319.500 58.557,319.969 58.787,320.542 58.989 C 322.828 59.794,323.231 60.150,323.231 61.363 C 323.231 63.541,320.241 63.613,319.889 61.443 L 319.790 60.833 318.395 60.833 L 317.000 60.833 317.000 61.325 C 317.000 66.767,325.106 67.553,326.188 62.215 C 326.606 60.149,325.797 58.036,324.310 57.310 C 323.327 56.830,322.538 56.500,322.371 56.500 C 321.324 56.500,320.166 55.406,320.169 54.421 C 320.176 52.487,322.334 51.958,322.740 53.792 L 322.897 54.500 324.365 54.500 L 325.833 54.500 325.833 53.914 C 325.833 50.893,322.321 49.013,319.365 50.451 M342.333 50.366 C 340.199 51.329,340.000 51.965,340.000 57.833 C 340.000 62.518,340.000 62.521,340.427 63.423 C 342.008 66.765,347.414 66.558,348.617 63.110 C 349.126 61.649,349.063 53.378,348.534 52.315 C 347.490 50.217,344.646 49.323,342.333 50.366 M356.083 50.296 C 355.808 50.454,355.340 50.832,355.042 51.137 L 354.500 51.690 354.500 51.012 L 354.500 50.333 353.083 50.333 L 351.667 50.333 351.667 57.917 L 351.667 65.500 353.083 65.500 L 354.500 65.500 354.499 60.125 C 354.498 54.544,354.653 53.167,355.283 53.167 C 355.402 53.167,355.500 53.092,355.500 53.000 C 355.500 52.615,356.944 52.823,357.394 53.273 L 357.833 53.712 357.833 59.606 L 357.833 65.500 359.409 65.500 L 360.984 65.500 361.034 59.597 L 361.083 53.693 361.487 53.263 C 361.976 52.743,363.047 52.675,363.603 53.129 C 364.267 53.671,364.333 54.295,364.333 60.025 L 364.333 65.500 365.755 65.500 L 367.178 65.500 367.130 58.792 L 367.083 52.083 366.625 51.378 C 365.364 49.439,361.997 49.581,360.856 51.621 C 360.765 51.782,360.664 51.877,360.631 51.832 C 360.597 51.787,360.371 51.479,360.128 51.148 C 359.312 50.039,357.277 49.610,356.083 50.296 M196.178 50.792 C 196.260 51.044,196.433 51.700,196.563 52.250 C 196.802 53.260,197.329 55.219,197.775 56.750 C 197.908 57.208,198.085 57.846,198.168 58.167 C 198.374 58.960,199.053 61.460,199.505 63.083 C 199.708 63.817,199.925 64.642,199.986 64.917 C 200.095 65.413,200.105 65.417,201.366 65.465 L 202.637 65.513 202.801 64.798 C 203.017 63.859,203.776 60.955,203.982 60.281 C 204.202 59.558,204.901 56.998,205.423 55.000 C 205.579 54.404,205.802 53.579,205.919 53.167 C 206.037 52.754,206.222 52.042,206.332 51.583 C 206.443 51.125,206.560 50.656,206.594 50.542 C 206.641 50.386,206.283 50.333,205.183 50.333 L 203.710 50.333 203.538 51.042 C 203.444 51.431,203.243 52.313,203.091 53.000 C 202.939 53.688,202.714 54.700,202.590 55.250 C 202.466 55.800,202.237 56.850,202.082 57.583 C 201.926 58.317,201.705 59.292,201.590 59.750 L 201.380 60.583 201.205 59.917 C 201.109 59.550,200.906 58.688,200.756 58.000 C 200.605 57.313,200.381 56.300,200.257 55.750 C 200.133 55.200,199.900 54.150,199.740 53.417 C 199.580 52.683,199.342 51.690,199.212 51.208 L 198.976 50.333 197.503 50.333 L 196.029 50.333 196.178 50.792 M240.500 57.917 L 240.500 65.500 242.000 65.500 L 243.500 65.500 243.500 57.917 L 243.500 50.333 242.000 50.333 L 240.500 50.333 240.500 57.917 M294.083 50.958 C 294.136 51.302,294.283 51.996,294.409 52.500 C 294.534 53.004,294.761 53.979,294.913 54.667 C 295.064 55.354,295.263 56.254,295.354 56.667 C 295.445 57.079,295.622 57.829,295.748 58.333 C 295.873 58.837,296.211 60.300,296.499 61.583 C 296.787 62.867,297.115 64.254,297.227 64.667 L 297.432 65.417 298.619 65.465 L 299.806 65.514 299.994 64.549 C 300.097 64.018,300.285 63.096,300.410 62.500 C 300.536 61.904,300.764 60.779,300.917 60.000 C 301.069 59.221,301.300 58.118,301.430 57.549 C 301.560 56.980,301.673 56.305,301.682 56.049 C 301.700 55.477,302.021 56.669,302.319 58.417 C 302.428 59.058,302.621 60.071,302.749 60.667 C 303.076 62.194,303.459 64.138,303.581 64.882 L 303.684 65.514 304.967 65.465 C 306.197 65.419,306.252 65.399,306.297 65.000 C 306.323 64.771,306.460 64.096,306.603 63.500 C 306.918 62.185,307.302 60.512,307.523 59.500 C 307.613 59.087,307.789 58.337,307.914 57.833 C 308.039 57.329,308.377 55.867,308.665 54.583 C 308.953 53.300,309.296 51.868,309.427 51.402 C 309.559 50.936,309.667 50.504,309.667 50.444 C 309.667 50.383,309.002 50.333,308.189 50.333 L 306.712 50.333 306.536 51.292 C 306.347 52.319,306.001 54.331,305.598 56.750 C 305.460 57.575,305.256 58.775,305.145 59.417 L 304.942 60.583 304.747 59.750 C 304.640 59.292,304.424 58.204,304.268 57.333 C 303.998 55.833,303.827 54.994,303.254 52.375 C 303.119 51.756,302.987 51.063,302.962 50.833 C 302.919 50.441,302.852 50.414,301.813 50.368 L 300.710 50.319 300.536 51.035 C 300.441 51.428,300.243 52.425,300.096 53.250 C 299.773 55.069,299.402 56.899,299.076 58.277 C 298.943 58.842,298.832 59.517,298.831 59.777 C 298.825 60.769,298.533 60.739,298.423 59.735 C 298.364 59.193,298.213 58.262,298.088 57.667 C 297.962 57.071,297.770 55.908,297.660 55.083 C 297.550 54.258,297.357 53.110,297.230 52.531 C 297.104 51.953,297.000 51.221,297.000 50.906 L 297.000 50.333 295.492 50.333 L 293.985 50.333 294.083 50.958 M311.667 57.917 L 311.667 65.500 313.250 65.500 L 314.833 65.500 314.833 57.917 L 314.833 50.333 313.250 50.333 L 311.667 50.333 311.667 57.917 M178.053 53.020 C 178.970 53.489,178.992 53.602,178.996 57.891 L 179.000 61.866 178.482 62.350 C 177.871 62.921,177.316 62.963,176.651 62.489 L 176.167 62.144 176.172 57.947 C 176.177 53.577,176.197 53.447,176.917 53.035 C 177.342 52.791,177.599 52.788,178.053 53.020 M213.956 53.088 C 214.409 53.405,214.665 54.290,214.666 55.542 L 214.667 56.500 212.917 56.500 L 211.167 56.500 211.167 55.484 C 211.167 53.328,212.574 52.120,213.956 53.088 M251.321 53.077 C 251.997 53.427,252.000 53.446,252.000 58.016 L 252.000 62.172 251.458 62.502 C 250.710 62.958,250.224 62.916,249.654 62.346 L 249.167 61.859 249.172 57.888 C 249.178 53.626,249.192 53.554,250.085 53.036 C 250.527 52.779,250.760 52.787,251.321 53.077 M333.588 53.102 C 334.951 53.995,334.896 61.899,333.521 62.711 C 332.847 63.109,332.378 63.073,331.724 62.575 L 331.167 62.150 331.167 58.009 L 331.167 53.869 331.650 53.351 C 332.203 52.759,332.923 52.666,333.588 53.102 M345.079 53.071 C 345.835 53.387,345.864 53.594,345.802 58.305 C 345.745 62.555,345.756 62.512,344.705 62.776 C 343.255 63.140,343.000 62.404,343.000 57.859 C 343.000 53.781,343.076 53.337,343.828 53.037 C 344.414 52.803,344.441 52.804,345.079 53.071 M158.240 53.708 L 157.750 54.250 158.292 53.760 C 158.590 53.491,158.833 53.248,158.833 53.219 C 158.833 53.090,158.696 53.203,158.240 53.708 M276.440 60.458 C 276.305 62.470,275.905 63.004,274.539 62.994 C 273.235 62.985,272.739 62.274,272.948 60.712 C 273.120 59.435,273.899 58.900,275.650 58.856 L 276.549 58.833 276.440 60.458 " stroke="none" fill="#042464" fill-rule="evenodd"></path></g></svg>